<svg width="768" height="330" viewBox="0 0 768 330" fill="none" xmlns="http://www.w3.org/2000/svg">
<g opacity="0.8">
<path d="M407.88 248.661C402.053 251.19 395.413 250.879 389.09 250.198C382.767 249.517 376.365 248.466 370.122 249.673C360.449 251.618 351.926 258.7 342.075 258.194C328.419 257.493 320.272 243.058 308.201 236.794C293.534 229.012 273.852 233.876 262.039 219.557C258.53 215.294 256.388 210.106 255.883 204.649C255.379 199.191 256.534 193.709 259.205 188.896C267.787 173.702 287.608 171.173 303.068 176.64C316.368 181.329 327.249 190.842 337.616 200.258C341.144 203.468 344.672 206.697 348.319 209.791C354.147 214.718 360.936 218.431 368.272 220.702C375.609 222.972 383.339 223.755 390.993 223C398.4 222.249 405.815 224.34 411.686 228.837C413.264 230.068 414.504 231.666 415.293 233.486C416.12 235.237 416.481 237.165 416.344 239.089C415.868 243.856 412.597 246.618 407.88 248.661Z" fill="#C43E00"/>
</g>
<g opacity="0.8">
<path d="M673.019 33.5232C675.776 32.3264 678.918 32.4737 681.91 32.7959C684.902 33.1181 687.932 33.6153 690.886 33.0445C695.464 32.1239 699.497 28.7728 704.158 29.0122C710.621 29.3436 714.476 36.1746 720.188 39.1389C727.128 42.8214 736.442 40.5198 742.032 47.2956C743.693 49.3126 744.707 51.7677 744.945 54.3503C745.184 56.9329 744.637 59.527 743.374 61.8045C739.312 68.9945 729.933 70.1913 722.617 67.6043C716.323 65.3856 711.174 60.8839 706.269 56.4281C704.599 54.9091 702.93 53.3808 701.204 51.9171C698.446 49.5852 695.233 47.8286 691.761 46.7539C688.29 45.6793 684.632 45.3092 681.01 45.6661C677.505 46.0217 673.996 45.0319 671.218 42.9042C670.471 42.3217 669.884 41.5654 669.511 40.704C669.119 39.8756 668.948 38.9634 669.014 38.0526C669.239 35.7971 670.786 34.4898 673.019 33.5232Z" fill="#C43E00"/>
</g>
<circle opacity="0.8" cx="617.5" cy="204.5" r="21.5" fill="#C43E00"/>
<circle cx="3.5" cy="187.5" r="3.5" fill="#FFA040"/>
<circle cx="135.5" cy="224.5" r="3.5" fill="#FFA040"/>
<circle cx="420.5" cy="170.5" r="3.5" fill="#FFA040"/>
<circle cx="599.5" cy="121.5" r="3.5" fill="#FFA040"/>
<circle cx="380.5" cy="88.5" r="3.5" fill="#FFA040"/>
<circle cx="724.5" cy="217.5" r="3.5" fill="#FFA040"/>
<path d="M440.997 281.999C438.497 234.999 528 290.5 553.498 230C579.91 167.331 602.498 230 658.252 210.664C677.316 202.979 687.296 190.477 692.604 157.337C697.912 124.198 722.497 115.999 739.921 116.826C746.113 117.384 760.997 119.099 766.997 119.499" stroke="#FFA040" stroke-width="2"/>
<path d="M436.498 282C436.498 226.362 535.835 291.731 559.997 212.999C573.5 169 611.539 221.281 653.347 209.302C672.411 201.617 682.391 189.115 687.699 155.976C693.007 122.836 718.498 115 735.498 114C743.498 113.529 760.998 116.6 766.998 117" stroke="#FFD80D" stroke-width="4"/>
<path d="M200 277.5C229.5 177.5 363.399 215.116 401.28 218.405C430.042 220.902 471.99 209.161 469.464 145.289C467.444 94.1919 497.021 68.7459 515.763 58.7264C527.739 52.3235 552.15 34.0388 605.366 39.0174C667.807 44.859 676.016 52.6278 700.499 35C721.333 20 711 3 711 1" stroke="#FFD80D" stroke-width="4"/>
<path d="M199 282.5C228.5 182 362.4 220.117 400.28 223.405C429.043 225.902 470.991 214.161 468.465 150.289C466.445 99.1922 496.021 73.7461 514.763 63.7267C526.74 57.3238 551.151 39.0391 604.367 44.0177C666.808 49.8593 678.5 55 701.5 40.5C723.833 26.4204 714.5 2 714.5 1" stroke="#FFA040" stroke-width="2"/>
</svg>
