<svg width="450" height="328" viewBox="0 0 450 328" fill="none" xmlns="http://www.w3.org/2000/svg">
<path d="M46.7548 184.94C38.3508 120.745 82.6323 44.4049 177 55.9832C257.043 65.8017 274.395 53.1416 308.854 35.1012C331.61 23.1928 367.208 2.12178 396.088 62.3752C433.889 141.236 345.24 264.883 266.065 302.805C190.354 339.073 61.9985 301.436 46.7548 184.94Z" fill="#534BAE"/>
<circle cx="351.433" cy="304.02" r="13.7246" fill="#534BAE"/>
<circle cx="436.275" cy="198.383" r="13.7246" fill="#534BAE"/>
<circle cx="13.7246" cy="159.288" r="13.7246" fill="#FFA040"/>
<circle cx="177.588" cy="13.7246" r="13.7246" fill="#534BAE"/>
<circle cx="59.4726" cy="277.403" r="7.07024" fill="#534BAE"/>
<circle cx="422.135" cy="55.3143" r="7.07024" fill="#FFA040"/>
<circle cx="281" cy="324" r="4" fill="#FFA040"/>
<circle cx="83.0205" cy="294.296" r="4" fill="#FFA040"/>
<circle cx="220.266" cy="47.2532" r="4" fill="#FFA040"/>
<circle cx="392.447" cy="216.107" r="4" fill="#FFA040"/>
<circle cx="121.283" cy="23.1312" r="4" fill="#534BAE"/>
<mask id="mask0_381_1082" style="mask-type:luminance" maskUnits="userSpaceOnUse" x="9" y="15" width="432" height="288">
<path d="M9 15H441V303H9V15Z" fill="white"/>
</mask>
<g mask="url(#mask0_381_1082)">
<path fill-rule="evenodd" clip-rule="evenodd" d="M210.842 121.272C208.477 118.436 202.874 117.94 199.21 121.601C196.844 123.967 196.455 126.658 196.925 128.536C196.948 128.628 196.968 128.721 196.986 128.816L206.845 180.764C209.138 191.35 217.48 199.708 228.127 202.01L280.112 211.863L280.126 211.865L280.159 211.872C282.859 212.412 285.738 211.3 287.415 209.625C290.862 206.18 290.862 201.265 287.415 197.821L211.143 121.601C211.038 121.496 210.937 121.386 210.842 121.272ZM187.364 123.324L149.593 161.399C140.802 170.26 140.802 183.786 149.593 192.646L209.171 252.703C211.087 254.636 214.194 254.636 216.111 252.703C216.169 252.646 216.224 252.587 216.278 252.527L220.763 257L224.428 254.266L246.06 256.008L248.463 253.317C250.391 254.997 253.308 254.914 255.139 253.069L286.85 221.102C284.191 221.924 281.255 222.173 278.277 221.583L226.254 211.724C226.216 211.716 226.179 211.709 226.141 211.7C211.708 208.61 200.344 197.276 197.239 182.799C197.231 182.76 197.223 182.722 197.216 182.683L187.37 130.802C186.801 128.428 186.779 125.862 187.364 123.324Z" fill="white"/>
<path d="M371.623 257.918C361.429 258.108 358.73 258.914 348.148 258.582C343.107 258.629 337.727 258.487 332.8 258.393C330.457 257.776 326.337 258.393 323.558 257.871L322.492 258.203C321.539 258.013 320.424 257.918 319.455 258.108L319.519 258.203C318.098 257.965 316.482 258.108 315.787 257.965L315.852 258.061L314.123 258.013L314.414 258.155C311.926 257.871 309.374 257.871 307.112 257.965L307.305 257.539C302.475 258.013 300.714 257.159 296.368 257.681L296.432 257.776C290.923 256.685 287.74 258.535 282.07 257.491C282.781 257.634 281.762 257.681 281.827 257.823C279.21 257.728 276.431 257.634 276.383 256.827C274.476 256.827 274.832 257.065 274.589 257.397C274.606 257.065 272.942 256.875 271.455 256.875L272.134 257.017L267.868 256.875L268.708 256.211C266.447 256.401 268.127 257.017 265.978 256.875L266.01 256.306C262.892 256.401 261.05 257.254 258.029 257.681C245.46 257.918 231.953 256.495 220.273 257.491L219.756 257.918C219.53 258.535 216.524 257.017 216.088 257.586L214.731 257.302C214.343 257.396 213.535 257.539 214.214 257.681C212.954 257.728 212.921 257.586 212.017 257.444L210.66 257.823C205.7 258.108 201.483 257.397 196.264 257.539C189.996 258.298 178.186 257.586 171.384 257.207C161.82 256.306 150.704 258.724 140.914 257.681C140.591 257.776 139.767 257.586 139.783 257.491L130.816 257.586C130.816 257.586 87.3725 257.823 120.379 252.749L120.153 252.606C125.065 252.274 128.15 252.227 131.527 252.891C132.061 252.085 135.55 252.796 136.697 252.559L136.584 252.511C139.573 253.128 142.74 251.99 145.632 252.559C145.518 252.511 145.454 252.274 144.792 252.274C146.892 252.369 149.767 252.559 149.929 252.085C154.954 252.227 161.949 251.99 165.164 252.749L164.938 252.606C166.764 253.128 167.313 252.701 169.365 252.938C169.478 252.891 169.623 252.843 169.591 252.796C171.594 253.318 175.423 252.891 177.023 253.081L177.12 252.749L181.094 252.843L179.608 252.891C180.125 253.744 182.613 252.322 185.488 252.891C188.186 252.796 190.966 254.693 193.76 254.266C195.101 254.693 192.581 253.602 194.584 253.934C194.649 253.46 193.647 253.65 194.164 253.27C196.119 253.507 197.379 252.796 199.803 253.128L199.9 252.796C203.05 253.46 205.845 252.322 207.946 252.938C211.193 253.223 210.126 251.895 213.519 252.559L214.844 252.085C216.298 251.99 215.878 252.654 217.494 252.417C217.397 252.132 219.53 252.18 218.576 251.895C222.211 251.421 225.96 252.559 230.758 251.753C231.792 252.322 234.215 251.99 234.991 252.417C235.12 252.18 239.822 252.369 237.123 251.8C236.897 251.752 236.477 251.753 236.51 251.847L236.186 251.515C238.917 250.851 241.146 251.895 243.86 251.753C243.053 251.847 241.986 251.847 242.697 252.085L245.218 252.037L244.701 251.753L248.449 251.563L247.932 251.942C249.758 251.753 250.404 251.136 252.472 251.658C253.409 251.942 250.743 252.132 252.665 252.274C255.121 252.037 258.789 251.658 261.907 251.563C261.616 251.99 262.456 251.942 263.329 252.037L263.426 251.705C266.738 252.18 264.637 250.946 267.933 251.326L267.642 251.089L268.514 251.847C271.488 252.559 270.114 251.136 273.41 252.085C272.102 252.037 272.796 252.843 274.395 252.701L273.992 252.369C274.88 252.464 275.171 252.606 275.769 252.511C275.235 252.322 275.494 252.037 276.803 252.085L275.93 251.658L278.402 252.274C280.309 251.895 283.33 252.369 284.122 251.895C284.122 251.895 288.225 251.658 289.162 252.18C288.338 251.847 290.6 251.705 289.954 251.326C291.02 251.705 294.154 251.99 295.415 251.61L295.172 251.563C299.825 251.136 303.121 252.132 307.289 251.61C307.095 252.037 309.309 251.8 308.76 252.322C313.073 252.843 316.627 251.231 318.194 252.891C320.166 252.986 320.521 252.511 321.539 252.417L321.071 252.322C324.754 252.464 325.82 252.464 328.55 252.417C329.908 252.559 330.134 253.318 332.573 253.128C331.782 252.843 332.784 252.891 333.688 252.891C333.107 252.843 332.929 252.749 334.125 252.511C334.286 252.606 334.561 252.654 334.803 252.701C334.819 252.701 334.868 252.654 334.836 252.606C336.354 252.701 336.096 252.796 335.385 252.843C335.417 252.891 335.368 252.938 335.142 253.033C336.726 252.654 339.553 253.081 339.747 252.559C344.335 252.701 347.615 253.223 351.428 253.413C351.864 253.128 350.959 252.891 349.861 252.796L352.575 252.891C352.559 252.511 351.024 252.654 350.184 252.606C353.415 251.99 356.84 253.223 360.621 252.654L361.412 252.938L361.638 252.891C361.622 253.033 362.478 253.27 363.028 253.318C363.561 252.986 362.995 252.559 364.87 252.559C366.356 252.227 369.07 252.701 371.009 252.891C369.959 252.938 370.298 253.128 370.75 253.27C371.688 253.27 372.22 252.938 372.948 253.081L373.045 252.654C372.673 253.08 375.484 253.128 375.84 253.27C376.373 252.938 374.386 252.986 374.159 252.749C377.907 252.796 376.034 252.748 379.798 252.796C381.801 253.128 379.426 253.223 380.396 253.602C382.156 253.697 383.885 253.981 385.921 253.744L385.274 254.124C388.603 254.456 390.59 254.409 392.82 253.981C417.571 257.207 398.038 258.393 398.038 258.393C388.248 259.388 383.223 258.25 371.623 257.918Z" fill="white"/>
</g>
<path d="M285.932 256C303.375 254.756 326.301 246.404 337.764 236.274C347.128 228 351.87 220.257 351.22 211.218C350.722 204.287 343.445 189.146 324.307 186.161C305.17 183.175 304.372 197.356 310.851 203.754C316.25 209.085 340.754 213.883 358.696 192.558C376.637 171.233 376.5 143.5 364.5 131C351.801 117.772 326.537 124.038 296 127C214.146 134.94 265 80.5 285.932 77.5" stroke="white" stroke-width="3" stroke-linecap="round" stroke-dasharray="6 6"/>
<path d="M343.067 52.3448C343.209 51.6218 342.858 50.8806 342.211 50.5361C322.92 40.2683 306.047 50.6245 296.591 67.2986L301.383 77.4244C320.205 80.5454 338.829 73.8891 343.067 52.3448Z" fill="white"/>
<path d="M320.309 61.3577C321.692 64.2809 325.18 65.5168 328.099 64.118C331.018 62.7193 332.262 59.2156 330.879 56.2923C329.495 53.369 326.008 52.1331 323.089 53.5319C320.17 54.9307 318.925 58.4344 320.309 61.3577Z" fill="white"/>
<path d="M317.238 76.5391L316.846 86.0709L307.985 91.3783L304.85 76.4163M307.256 55.3154L299.666 49.7616L289.986 53.34L300.697 65.2724" stroke="white" stroke-width="2" stroke-linejoin="round"/>
</svg>
