<svg width="1440" height="1024" viewBox="0 0 1440 1024" fill="none" xmlns="http://www.w3.org/2000/svg">
<circle cx="758.477" cy="606.053" r="7.5" fill="#FF6F00"/>
<circle cx="922.381" cy="466.658" r="7.5" fill="#FF6F00"/>
<circle cx="1037.43" cy="725.693" r="6.12724" fill="#FF6F00"/>
<ellipse cx="805.5" cy="390" rx="11.5" ry="12" fill="#FF6F00"/>
<circle cx="778.954" cy="602.021" r="5" fill="#C43E00"/>
<circle cx="1023.64" cy="725.693" r="3.06362" fill="#C43E00"/>
<circle cx="816.845" cy="684.334" r="3.06362" fill="#C43E00"/>
<circle cx="818.781" cy="701.589" r="5" fill="#C43E00"/>
<circle cx="881.181" cy="672.079" r="3.06362" fill="#C43E00"/>
<circle cx="919.881" cy="447.308" r="5" fill="#C43E00"/>
<circle cx="1097.17" cy="379.504" r="3.06362" fill="#C43E00"/>
<circle cx="801" cy="403" r="5" fill="#C43E00"/>
<circle cx="864.5" cy="361.5" r="21.5" fill="#C43E00"/>
<path d="M1438 778.002C1432.83 776.169 1403.7 764.67 1328.5 733.343C1253.3 702.015 1208.5 723.502 1179.04 780.281C1175.64 786.829 1144.57 857.637 1069.51 733.343C1042.32 688.314 1047.76 867.583 995.988 808.619C940.843 745.815 941.609 837.724 886.463 808.619C847.654 788.137 847.5 816.502 816 836.192C771.833 860.296 675.9 878.102 645.5 756.502" stroke="#FFD80D" stroke-width="4"/>
<path d="M1436.5 781.093C1431.33 779.26 1402.2 767.761 1327 736.434C1251.8 705.106 1207 726.593 1177.54 783.372C1174.14 789.92 1143.07 860.728 1068.01 736.434C1040.82 691.405 1046.26 870.674 994.488 811.71C939.343 748.906 940.109 840.815 884.963 811.71C846.154 791.228 846 819.593 814.5 839.283C770.333 863.387 674.4 881.193 644 759.593" stroke="#FFA040" stroke-width="2"/>
<path d="M678.65 567.059C829.86 623.121 824.06 445.407 855.176 414.902C902.813 368.201 941.977 424.371 1005.99 420.954C1035.92 416.202 1054.38 401.534 1072.94 355.675C1091.5 309.816 1130 303.065 1154.28 313.084C1188.69 327.281 1272 355.675 1330 355.675C1402.5 355.675 1430.5 338.5 1440 332.5" stroke="#FFD80D" stroke-width="4"/>
<path d="M1053.5 1024C996.503 986.523 973.179 952.811 951.18 919.743C935.655 896.407 892.2 876.679 835.803 899.685C779.407 922.691 749.058 921.955 715.698 906.245C649.944 867.487 658.194 799.312 572.521 804.171C516.56 807.345 374.388 946.721 272.437 806.225C219.302 733 183.501 587.001 0.00116653 667.502" stroke="#FFD80D" stroke-width="4"/>
<path d="M1055.58 1028.34C998.579 990.861 975.255 957.149 953.255 924.082C937.73 900.745 894.276 881.017 837.879 904.024C781.482 927.03 751.134 926.294 717.774 910.584C652.02 871.826 660.27 803.651 574.597 808.509C518.636 811.683 376.464 951.059 274.513 810.564C221.377 737.339 185.577 591.34 2.07685 671.84" stroke="#FFA040" stroke-width="4"/>
<path d="M674 569.303C825.21 625.365 819.41 447.651 850.527 417.146C898.164 370.445 937.328 426.615 1001.34 423.198C1031.27 418.446 1049.73 403.778 1068.29 357.919C1086.85 312.06 1125.35 305.309 1149.63 315.328C1184.04 329.525 1267.35 357.919 1325.35 357.919C1397.85 357.919 1425.85 340.744 1435.35 334.744" stroke="#FFA040" stroke-width="2"/>
<path d="M1231.5 1.00238C1246 85.5024 1232 134.003 1163.56 152.445C1106.5 167.823 1087.5 167.503 1024.87 161.633C971.486 156.631 949.464 173.502 934.985 181.436C923 188.002 886.518 217.069 888.544 268.408C891.077 332.581 849 344.378 820.149 341.869C782.151 338.565 746.369 348.454 725.577 412.798C710 461.003 709.5 462.003 707 469.372C698.5 492.916 643.8 544.103 493 560.503C304.5 581.003 225.365 497.082 185 460.003C99.0002 381.003 20.0001 403.003 2.00014 403.003" stroke="#FFA040" stroke-width="2"/>
<path d="M1228 0.00244095C1242.5 84.5024 1229 131.003 1160.56 149.445C1103.5 164.823 1084.5 164.503 1021.87 158.633C968.486 153.631 944 172.002 931.986 178.436C913.186 188.502 883.518 214.069 885.544 265.408C888.078 329.581 846 341.378 817.149 338.869C779.151 335.565 743.369 345.454 722.577 409.798C707 458.003 706.5 459.003 704 466.372C695.5 489.916 640.8 541.103 490 557.503C301.5 578.003 222.365 494.082 182 457.003C96.0003 378.003 17.0002 400.003 -0.999742 400.003" stroke="#FFD80D" stroke-width="4"/>
<path d="M953.563 520.933C936.377 505.025 905.91 506.883 890.786 524.789C884.833 531.845 880.787 541.087 872.6 545.364C860.101 551.937 844.852 543.647 830.728 544.849C814.166 546.254 800.574 563.052 802.605 579.522C803.527 586.953 807.058 594.868 803.558 601.487C799.105 609.933 786.215 610.276 780.794 618.129C775.904 625.232 779.716 635.707 786.825 640.609C793.934 645.511 803.089 646.12 811.714 645.729C820.338 645.339 829.087 644.168 837.493 646.042C846.758 648.134 854.679 653.847 863.569 657.344C884.771 665.837 909.597 661.107 929.19 649.445C948.782 637.783 964.031 619.955 977.28 601.362" fill="#FF725E"/>
<g opacity="0.8">
<path d="M953.563 520.933C936.377 505.025 905.91 506.883 890.786 524.789C884.833 531.845 880.787 541.087 872.6 545.364C860.101 551.937 844.852 543.647 830.728 544.849C814.166 546.254 800.574 563.052 802.605 579.522C803.527 586.953 807.058 594.868 803.558 601.487C799.105 609.933 786.215 610.276 780.794 618.129C775.904 625.232 779.716 635.707 786.825 640.609C793.934 645.511 803.089 646.12 811.714 645.729C820.338 645.339 829.087 644.168 837.493 646.042C846.758 648.134 854.679 653.847 863.569 657.344C884.771 665.837 909.597 661.107 929.19 649.445C948.782 637.783 964.031 619.955 977.28 601.362" fill="white"/>
</g>
<path d="M949.391 542.601C935.33 528.894 909.41 530.815 897.598 546.442C890.396 555.98 886.255 570.561 874.397 572.153C866.366 573.246 858.773 567.205 850.664 567.829C839.883 568.641 833.368 581.77 836.134 592.198C838.899 602.627 848.086 610.136 857.726 615.038C891.114 631.976 935.611 623.015 959.844 594.478" fill="#1A237E"/>
<path d="M1267.68 577.492L1249.6 551.89L1273.12 535.233L1289.59 568.656L1268.76 577.274" fill="#FFBE9D"/>
<path d="M1288.6 564.082L1301.4 587.14C1301.4 587.14 1329.15 581.895 1331.93 585.923L1288.09 612.306L1266.68 577.196L1288.6 564.082Z" fill="#FF6F00"/>
<g opacity="0.6">
<path d="M1286.68 593.4C1286.34 593.784 1286.15 594.282 1286.15 594.798C1286.15 595.313 1286.34 595.811 1286.68 596.195C1287.06 596.544 1287.55 596.738 1288.06 596.738C1288.58 596.738 1289.07 596.544 1289.45 596.195C1289.81 595.788 1290.02 595.259 1290.02 594.712C1290.02 594.164 1289.81 593.636 1289.45 593.229C1289.02 592.899 1288.48 592.747 1287.95 592.802C1287.41 592.857 1286.92 593.116 1286.57 593.525" fill="white"/>
</g>
<g opacity="0.6">
<path d="M1288.09 612.306L1286.07 608.684L1328.86 584.752C1328.86 584.752 1331.33 584.424 1331.99 585.923L1288.09 612.306Z" fill="white"/>
</g>
<path d="M1301.98 586.485C1302.09 586.703 1301.09 587.453 1300.41 588.764C1299.74 590.075 1299.74 591.324 1299.51 591.371C1299.27 591.418 1298.82 589.966 1299.63 588.389C1300.44 586.813 1301.9 586.266 1301.98 586.485Z" fill="#000051"/>
<path d="M1307.71 585.626C1307.88 585.798 1307.18 586.719 1306.99 588.061C1306.8 589.404 1307.18 590.497 1306.99 590.606C1306.8 590.715 1305.91 589.607 1306.16 587.936C1306.41 586.266 1307.59 585.454 1307.71 585.626Z" fill="#000051"/>
<path d="M1313.65 589.56C1313.48 589.716 1312.54 588.826 1312.38 587.328C1312.23 585.829 1312.94 584.752 1313.13 584.877C1313.32 585.002 1313.13 586.001 1313.24 587.234C1313.35 588.467 1313.83 589.404 1313.65 589.56Z" fill="#000051"/>
<path d="M1298.48 581.551C1298.48 581.801 1297.34 582.098 1296.18 582.91C1295.02 583.721 1294.31 584.674 1294.09 584.549C1293.87 584.424 1294.31 583.128 1295.65 582.191C1296.99 581.255 1298.48 581.333 1298.48 581.551Z" fill="#000051"/>
<path d="M1295.8 576.946C1295.8 577.04 1295.09 577.68 1293.6 578.257C1292.2 578.805 1290.71 579.065 1289.21 579.022C1288.88 579.043 1288.56 579.006 1288.24 578.913C1288.01 578.849 1287.8 578.708 1287.66 578.512C1287.52 578.316 1287.45 578.078 1287.46 577.836C1287.48 577.621 1287.54 577.413 1287.65 577.229C1287.77 577.044 1287.92 576.889 1288.1 576.774C1288.38 576.603 1288.68 576.476 1288.99 576.4C1289.5 576.236 1290.02 576.116 1290.55 576.041C1291.5 575.93 1292.45 575.967 1293.38 576.15C1294.95 576.478 1295.8 577.071 1295.76 577.165C1295.71 577.258 1294.8 576.915 1293.29 576.759C1292.41 576.671 1291.53 576.697 1290.66 576.837C1290.13 576.915 1289.61 577.04 1289.1 577.212C1288.56 577.368 1288.16 577.602 1288.16 577.883C1288.16 578.164 1288.16 578.023 1288.37 578.101C1288.61 578.131 1288.85 578.131 1289.09 578.101C1289.62 578.101 1290.15 578.101 1290.65 578.101C1291.54 578.022 1292.41 577.865 1293.27 577.633C1294.1 577.351 1294.95 577.122 1295.8 576.946Z" fill="#000051"/>
<path d="M1295.71 577.43C1295.71 577.508 1294.77 576.993 1293.85 575.65C1293.32 574.865 1292.94 573.993 1292.71 573.075C1292.57 572.528 1292.49 571.968 1292.46 571.404C1292.41 571.043 1292.45 570.674 1292.57 570.333C1292.7 569.991 1292.92 569.688 1293.2 569.453C1293.39 569.328 1293.61 569.262 1293.84 569.262C1294.06 569.262 1294.29 569.328 1294.48 569.453C1294.75 569.635 1294.99 569.862 1295.2 570.124C1295.56 570.566 1295.86 571.061 1296.09 571.591C1296.46 572.49 1296.6 573.465 1296.51 574.433C1296.34 575.994 1295.6 576.868 1295.54 576.806C1295.7 576.053 1295.82 575.292 1295.9 574.526C1295.9 573.669 1295.71 572.822 1295.35 572.044C1295.14 571.591 1294.87 571.17 1294.54 570.795C1294.2 570.374 1293.79 570.108 1293.65 570.264C1293.51 570.423 1293.41 570.611 1293.35 570.813C1293.3 571.016 1293.29 571.228 1293.32 571.435C1293.32 571.961 1293.37 572.485 1293.49 572.996C1293.67 573.853 1293.97 574.678 1294.38 575.447C1295.1 576.665 1295.8 577.321 1295.71 577.43Z" fill="#000051"/>
<path d="M1200.73 486.494L1256.89 574.667L1287.59 553.81L1235.87 447.575" fill="#000051"/>
<path d="M1205.28 467.152C1205.51 467.245 1203.83 470.836 1203.03 475.566C1202.23 480.296 1202.56 484.231 1202.31 484.262C1201.17 478.367 1202.22 472.258 1205.28 467.089V467.152Z" fill="#000051"/>
<path d="M1199.51 467.402C1199.75 467.402 1199.51 471.273 1200.16 475.957C1200.8 480.64 1201.97 484.293 1201.72 484.371C1199.29 479.066 1198.51 473.152 1199.5 467.402H1199.51Z" fill="#000051"/>
<path d="M981.764 486.229L943.251 474.349C896.786 533.469 899.895 598.427 974.687 636.878L1016.23 590.387L981.764 486.229Z" fill="black" fill-opacity="0.87"/>
<path d="M985.529 476.8C960.875 491.178 948.61 521.448 951.61 551.109C954.907 583.612 976.405 615.303 1015.81 624.061L1280.68 571.154C1291.61 568.969 1301.97 564.539 1311.1 558.145C1320.23 551.75 1327.93 543.531 1333.71 534.007C1339.49 524.483 1343.23 513.863 1344.69 502.82C1346.15 491.776 1345.3 480.55 1342.19 469.853C1336.42 449.987 1323.2 433.108 1305.3 422.726C1287.39 412.344 1266.17 409.256 1246.04 414.105L985.529 476.8Z" fill="#1A237E"/>
<path d="M985.53 476.8L987.983 476.175L995.217 474.395L1023.07 467.605L1125.6 442.783L1196.41 425.61L1235.87 416.087L1246.11 413.636L1251.37 412.637C1252.25 412.465 1253.12 412.278 1254.01 412.138L1256.7 411.903C1258.49 411.763 1260.29 411.544 1262.09 411.451H1267.56C1269.39 411.459 1271.21 411.584 1273.03 411.825L1275.78 412.106L1277.15 412.262L1278.51 412.528L1283.96 413.636C1285.77 414.058 1287.54 414.667 1289.34 415.197C1290.23 415.478 1291.13 415.728 1292.02 416.04L1294.63 417.086L1297.24 418.164C1298.13 418.484 1299 418.871 1299.84 419.319L1304.88 421.941C1306.55 422.863 1308.12 423.971 1309.74 425.064C1310.54 425.594 1311.3 426.078 1312.13 426.625L1314.4 428.405L1316.68 430.2L1317.82 431.09L1318.87 432.089C1330.7 442.707 1339.16 456.558 1343.19 471.929C1347.37 487.877 1346.54 504.722 1340.82 520.183C1334.9 536.076 1324.16 549.723 1310.1 559.212C1304.17 563.22 1297.72 566.407 1290.93 568.688C1284.18 571.045 1277.17 572.075 1270.34 573.512L1229.72 581.614L1152.16 597.194L1015.95 624.342H1015.81C1008.86 622.707 1002.12 620.315 995.701 617.208C983.838 611.252 973.675 602.397 966.156 591.465C962.769 586.466 959.891 581.142 957.563 575.572C957.001 574.23 956.563 572.84 956.001 571.498C955.478 570.177 955.035 568.827 954.673 567.454C954.282 566.096 953.907 564.754 953.532 563.411L952.688 559.399C952.378 558.086 952.144 556.757 951.985 555.418C951.813 554.107 951.626 552.795 951.454 551.5C951.282 550.204 951.267 548.908 951.173 547.628C951.079 546.348 951.001 545.083 951.017 543.835C950.819 534.663 952.117 525.52 954.86 516.765C957.027 509.749 960.183 503.079 964.234 496.954C967.202 492.447 970.73 488.334 974.734 484.715C975.546 483.996 976.296 483.263 977.03 482.669L979.187 481.03L980.999 479.641L982.561 478.626L985.452 476.815L982.608 478.704L981.046 479.734L979.233 481.14L977.171 482.779C976.437 483.388 975.702 484.106 974.89 484.839C970.924 488.471 967.433 492.588 964.5 497.094C960.476 503.207 957.345 509.862 955.204 516.858C952.505 525.584 951.234 534.688 951.438 543.819C951.438 545.068 951.438 546.332 951.595 547.597C951.751 548.861 951.751 550.157 951.907 551.453C952.063 552.749 952.251 554.044 952.438 555.356C952.598 556.684 952.833 558.003 953.141 559.305C953.423 560.617 953.704 561.959 953.985 563.302C954.266 564.644 954.751 565.956 955.126 567.314C955.495 568.679 955.939 570.024 956.454 571.342C956.954 572.669 957.391 574.042 958.016 575.369C960.337 580.902 963.205 586.19 966.578 591.152C970.271 596.344 974.514 601.123 979.233 605.405C984.343 609.792 989.942 613.574 995.92 616.677C1002.29 619.758 1008.99 622.124 1015.89 623.733H1015.76L1151.92 596.382L1229.54 580.865L1270.17 572.747C1277.01 571.295 1284.01 570.28 1290.65 567.938C1297.37 565.691 1303.75 562.54 1309.62 558.572C1323.55 549.167 1334.19 535.639 1340.04 519.887C1345.7 504.581 1346.53 487.905 1342.4 472.116C1338.41 456.894 1330.04 443.173 1318.33 432.651L1317.29 431.667L1316.21 430.902L1313.96 429.138L1311.71 427.374C1310.96 426.797 1310.15 426.328 1309.34 425.813C1307.77 424.814 1306.21 423.706 1304.54 422.8L1299.54 420.193C1298.71 419.763 1297.85 419.378 1296.98 419.038L1294.38 417.992L1291.79 416.93C1290.91 416.634 1290.02 416.384 1289.13 416.118C1287.35 415.603 1285.6 414.979 1283.81 414.557L1278.42 413.465L1277.07 413.184L1275.7 413.043L1272.98 412.762C1271.18 412.516 1269.37 412.385 1267.56 412.372H1262.15C1260.35 412.465 1258.57 412.684 1256.81 412.824L1254.14 413.059C1253.26 413.184 1252.39 413.371 1251.51 413.543L1246.31 414.526L1236.03 416.852L1196.58 426.328L1125.75 443.391L1023.18 467.901L995.279 474.614L988.014 476.331L985.53 476.8Z" fill="#000051"/>
<path d="M1015.81 624.03L980.874 703.398C980.874 703.398 1145.71 687.521 1138.67 599.489L1015.81 624.03Z" fill="#FFA040"/>
<path d="M1110.27 446.763C1110.27 446.763 1031.01 369.925 930.299 402.287L985.561 476.8L1110.27 446.763Z" fill="#FFA040"/>
<path d="M1254.96 412.981C1288.98 437.959 1309.77 535.623 1293.38 566.643C1389.78 538.464 1410 455.802 1410 455.802C1340.32 390.953 1254.96 412.981 1254.96 412.981Z" fill="#FFA040"/>
<path d="M966.234 587.733C966.39 587.874 961.094 594.212 954.391 601.877C947.689 609.542 942.111 615.631 941.892 615.475C941.673 615.319 947.017 608.996 953.735 601.331C960.453 593.666 966.078 587.577 966.234 587.733Z" fill="#000051"/>
<path d="M1409.95 455.771C1409.95 455.771 1409.77 456.13 1409.36 456.817L1407.53 459.846L1404.55 464.779C1403.95 465.747 1403.31 466.793 1402.64 467.901L1400.23 471.336C1398.53 473.755 1396.67 476.472 1394.56 479.375L1387.2 488.492C1385.81 490.054 1384.31 491.615 1382.8 493.316C1381.28 495.018 1379.78 496.735 1378.11 498.359C1374.64 501.637 1371.08 505.212 1366.92 508.506C1358.08 515.944 1348.4 522.335 1338.08 527.552C1332.34 530.475 1326.41 533.01 1320.33 535.139C1317.21 536.279 1313.99 537.262 1310.82 538.417C1307.51 539.47 1304.15 540.335 1300.74 541.009C1273.43 547.05 1243.32 553.232 1211.69 559.742C1148.46 572.793 1091.19 584.439 1049.73 592.807L1000.61 602.72L987.248 605.359L983.764 606.014C982.983 606.17 982.577 606.217 982.577 606.217L983.748 605.936L987.217 605.187L1000.54 602.408L1049.6 592.292L1211.53 558.993C1243.12 552.436 1273.24 546.27 1300.59 540.259C1303.95 539.595 1307.28 538.751 1310.55 537.73C1313.79 536.544 1316.99 535.592 1320.1 534.452C1326.15 532.343 1332.06 529.834 1337.79 526.943C1348.07 521.767 1357.73 515.435 1366.58 508.069C1370.72 504.791 1374.3 501.247 1377.75 497.984C1379.5 496.423 1380.99 494.596 1382.53 492.988C1384.08 491.381 1385.56 489.773 1386.95 488.196L1394.34 479.141C1396.47 476.253 1398.34 473.552 1400.08 471.164L1402.5 467.745L1404.44 464.623L1407.48 459.736C1408.31 458.441 1408.94 457.442 1409.37 456.739C1409.81 456.037 1409.95 455.771 1409.95 455.771Z" fill="#000051"/>
<path d="M1159.13 595.508C1159.13 595.508 1159.02 595.414 1158.85 595.196L1158.08 594.228L1155.22 590.481L1153.16 587.749C1152.44 586.734 1151.72 585.579 1150.91 584.361C1149.35 581.926 1147.38 579.21 1145.61 575.994L1142.72 570.998C1141.72 569.265 1140.85 567.361 1139.86 565.441C1137.82 561.631 1136.05 557.37 1134.1 552.952C1126.05 533.409 1121.42 512.63 1120.41 491.521C1120.29 486.666 1120.07 482.061 1120.3 477.736C1120.4 475.582 1120.3 473.49 1120.54 471.492C1120.77 469.494 1120.88 467.573 1121.04 465.747C1121.27 462.078 1121.88 458.8 1122.27 455.912C1122.5 454.475 1122.66 453.133 1122.9 451.9C1123.13 450.666 1123.38 449.573 1123.6 448.559C1124.02 446.592 1124.35 445.062 1124.6 443.875C1124.71 443.391 1124.8 443.001 1124.88 442.673C1124.96 442.345 1124.99 442.267 1125 442.283C1125.01 442.423 1125.01 442.564 1125 442.705C1125 443.017 1124.88 443.423 1124.8 443.907L1123.96 448.59C1123.77 449.605 1123.55 450.713 1123.32 451.931C1123.08 453.148 1122.97 454.507 1122.77 455.959C1122.43 458.847 1121.86 462.109 1121.66 465.762C1121.52 467.589 1121.36 469.509 1121.22 471.492C1121.08 473.474 1121.1 475.566 1121.04 477.736C1120.83 482.045 1121.04 486.635 1121.21 491.474C1122.26 512.49 1126.85 533.178 1134.78 552.671C1136.71 557.104 1138.44 561.366 1140.46 565.16C1141.44 567.08 1142.3 568.969 1143.27 570.717L1146.11 575.713C1147.83 578.944 1149.74 581.676 1151.28 584.127C1152.08 585.361 1152.85 586.516 1153.49 587.546C1154.13 588.577 1154.88 589.466 1155.47 590.309C1156.64 591.87 1157.55 593.229 1158.22 594.15L1158.91 595.165C1158.99 595.27 1159.07 595.385 1159.13 595.508Z" fill="#000051"/>
<path d="M1084.73 513.642L918.597 547.987C918.597 547.987 917.863 564.207 921.94 564.332C925.346 564.441 1048.85 542.18 1088.91 534.936C1090.45 534.658 1091.91 534.05 1093.19 533.153C1094.48 532.256 1095.55 531.093 1096.33 529.742C1097.12 528.391 1097.61 526.886 1097.75 525.33C1097.9 523.774 1097.71 522.205 1097.19 520.73C1096.32 518.246 1094.58 516.161 1092.29 514.858C1089.99 513.556 1087.31 513.124 1084.73 513.642Z" fill="#FFA040"/>
<path d="M1251.65 498.316C1251.68 477.951 1233.93 461.417 1212 461.386C1190.07 461.356 1172.28 477.84 1172.25 498.205C1172.22 518.57 1189.97 535.103 1211.9 535.134C1233.82 535.165 1251.62 518.68 1251.65 498.316Z" fill="white"/>
<path d="M1251.67 498.328C1251.65 498.12 1251.65 497.911 1251.67 497.703C1251.67 497.25 1251.57 496.657 1251.53 495.892C1251.53 495.486 1251.53 495.049 1251.43 494.55C1251.34 494.05 1251.26 493.535 1251.15 492.988C1251.04 492.442 1250.95 491.802 1250.84 491.146C1250.73 490.491 1250.46 489.804 1250.26 489.07C1249.8 487.471 1249.23 485.906 1248.56 484.387C1245.66 478.128 1241.1 472.78 1235.39 468.916C1230.5 465.588 1224.94 463.371 1219.11 462.422C1217.52 462.152 1215.91 461.985 1214.29 461.922C1213.47 461.922 1212.64 461.813 1211.81 461.828L1209.29 461.953H1208.03L1206.75 462.125L1204.19 462.5L1201.64 463.108L1200.34 463.405L1199.09 463.842C1191.94 466.113 1185.59 470.395 1180.81 476.175C1175.62 482.359 1172.78 490.172 1172.78 498.242C1172.78 506.312 1175.62 514.124 1180.81 520.308C1185.57 526.098 1191.9 530.396 1199.05 532.688L1200.31 533.125L1201.61 533.437L1204.15 534.046L1206.72 534.421L1207.98 534.608H1209.26L1211.78 534.733C1212.61 534.733 1213.44 534.733 1214.25 534.655C1215.86 534.594 1217.47 534.427 1219.06 534.155C1224.86 533.219 1230.38 531.012 1235.23 527.692C1242.5 523.012 1247.81 515.848 1250.18 507.538C1250.37 506.804 1250.6 506.133 1250.75 505.477C1250.89 504.822 1250.98 504.197 1251.07 503.62C1251.17 503.042 1251.28 502.527 1251.35 502.059C1251.43 501.59 1251.35 501.122 1251.45 500.732C1251.51 499.962 1251.56 499.353 1251.59 498.905C1251.6 498.701 1251.63 498.497 1251.67 498.296C1251.68 498.504 1251.68 498.713 1251.67 498.921V500.732C1251.67 501.138 1251.67 501.59 1251.67 502.09C1251.67 502.589 1251.51 503.12 1251.42 503.651C1251.32 504.182 1251.23 504.853 1251.14 505.524C1251.04 506.196 1250.78 506.867 1250.59 507.616C1250.15 509.252 1249.59 510.854 1248.92 512.409C1248.09 514.253 1247.11 516.028 1246 517.717C1243.26 521.83 1239.75 525.376 1235.67 528.161C1230.72 531.565 1225.08 533.831 1219.15 534.796C1217.54 535.071 1215.9 535.244 1214.26 535.311C1213.44 535.311 1212.59 535.42 1211.75 535.404L1209.2 535.295H1207.9L1206.61 535.108L1204 534.733L1201.4 534.124L1200.09 533.812L1198.81 533.375C1191.51 531.055 1185.04 526.68 1180.17 520.777C1174.85 514.458 1171.94 506.466 1171.94 498.21C1171.94 489.954 1174.85 481.963 1180.17 475.644C1185.09 469.769 1191.6 465.433 1198.92 463.155L1200.2 462.734L1201.51 462.422L1204.12 461.813L1206.73 461.438L1208.01 461.266H1209.31L1211.87 461.157C1212.72 461.157 1213.56 461.235 1214.39 461.266C1216.03 461.331 1217.66 461.508 1219.28 461.797C1225.15 462.759 1230.73 465.003 1235.64 468.369C1239.72 471.161 1243.21 474.719 1245.93 478.845C1248.03 481.93 1249.58 485.352 1250.51 488.961C1250.7 489.694 1250.9 490.381 1251.04 491.053C1251.18 491.724 1251.25 492.348 1251.32 492.926C1251.4 493.504 1251.5 494.034 1251.57 494.487C1251.65 494.94 1251.57 495.424 1251.57 495.83C1251.57 496.61 1251.57 497.203 1251.57 497.656C1251.62 497.877 1251.66 498.101 1251.67 498.328Z" fill="#000051"/>
<g opacity="0.8">
<path d="M898.366 849.163C893.67 851.201 888.32 850.951 883.225 850.402C878.13 849.853 872.971 849.007 867.939 849.979C860.145 851.546 853.277 857.253 845.339 856.845C834.334 856.281 827.77 844.648 818.043 839.6C806.224 833.33 790.363 837.249 780.844 825.711C778.016 822.276 776.29 818.095 775.884 813.697C775.477 809.299 776.408 804.882 778.56 801.004C785.476 788.76 801.448 786.722 813.906 791.127C824.623 794.906 833.392 802.572 841.745 810.159C844.588 812.746 847.431 815.348 850.37 817.841C855.067 821.812 860.537 824.803 866.449 826.633C872.361 828.463 878.59 829.093 884.758 828.486C890.726 827.88 896.702 829.565 901.433 833.189C902.704 834.181 903.703 835.469 904.34 836.935C905.006 838.346 905.297 839.899 905.186 841.45C904.803 845.291 902.167 847.517 898.366 849.163Z" fill="#C43E00"/>
</g>
<g opacity="0.8">
<path d="M1087.21 808.715C1086.96 812.152 1090.99 814.201 1094.27 813.991C1097.54 813.781 1100.77 811.907 1103.89 810.175C1107.01 808.444 1110.38 806.77 1113.57 806.994C1116.98 807.229 1119.47 809.582 1122.4 810.98C1125.33 812.379 1129.7 812.395 1132.13 809.225C1132.84 808.311 1133.36 807.275 1133.66 806.202C1133.96 805.128 1134.03 804.048 1133.86 803.047C1133.44 801.174 1132.69 799.47 1131.62 798.017C1128.81 794.281 1125.22 791.304 1121.05 789.247C1118.33 787.992 1115.24 787.486 1112.01 787.767C1108.77 788.048 1105.49 789.108 1102.41 790.867C1096.29 794.428 1086.89 801.239 1087.29 808.752" fill="#C43E00"/>
</g>
<path d="M1077.43 403.411C1064.66 402.786 1058.37 412.403 1051.23 414.339C1044.09 416.275 1036.29 416.618 1029.43 413.839C1020.53 410.217 1014.45 402.021 1006.65 396.417C991.029 385.161 967.828 385.833 952.86 397.978C952.516 406.486 959.797 413.215 966.843 417.992C973.89 422.769 993.404 429.638 995.951 437.787C997.825 443.875 984.67 448.996 987.982 454.444C991.295 459.893 1002.25 459.346 1008.29 458.3C1046.45 451.743 1033.06 463.405 1044.87 462.328C1044.87 462.328 1069.6 456.083 1088.99 452.867" fill="#534BAE"/>
<path d="M1206.03 627.87L1193.64 599.099L1220.09 587.655L1229.29 623.749L1207.15 627.87" fill="#FFBE9D"/>
<path d="M1229.28 619.065L1237.09 644.278C1237.09 644.278 1265.32 644.871 1267.21 649.398L1218.78 666.149L1205.11 627.371L1229.28 619.065Z" fill="#FF6F00"/>
<g opacity="0.6">
<path d="M1221.34 647.353C1220.93 647.657 1220.64 648.104 1220.53 648.609C1220.42 649.113 1220.51 649.638 1220.76 650.085C1221.05 650.511 1221.49 650.812 1221.99 650.926C1222.49 651.039 1223.01 650.956 1223.45 650.694C1223.89 650.373 1224.2 649.901 1224.31 649.367C1224.42 648.833 1224.33 648.277 1224.06 647.806C1223.72 647.389 1223.23 647.121 1222.69 647.06C1222.15 646.999 1221.61 647.149 1221.18 647.478" fill="white"/>
</g>
<g opacity="0.6">
<path d="M1218.78 666.149L1217.56 662.184L1264.43 647.603C1264.43 647.603 1266.92 647.79 1267.2 649.398L1218.78 666.149Z" fill="white"/>
</g>
<path d="M1131.44 294.509L1131.44 294.509C1133.86 294.711 1136.73 295.788 1138.9 297.405C1140.78 298.807 1141.95 300.467 1142.07 302.17L1055.27 303.052C1055.37 301.322 1056.74 299.588 1058.54 298.744C1060.46 297.849 1062.62 297.737 1064.98 297.615C1065.23 297.602 1065.48 297.589 1065.73 297.575C1068.3 297.433 1071.24 297.14 1073.62 295.333C1074.67 294.538 1075.51 293.5 1076.26 292.575C1076.35 292.464 1076.44 292.354 1076.53 292.247C1077.38 291.201 1078.15 290.333 1079.12 289.78L1079.12 289.779C1080.41 289.043 1081.89 288.924 1083.62 289.007C1084.19 289.034 1084.75 289.08 1085.33 289.128C1085.64 289.154 1085.96 289.18 1086.29 289.205C1087.21 289.271 1088.16 289.316 1089.11 289.255L1089.11 289.255C1091.31 289.111 1093.34 288.403 1095.25 287.523C1096.48 286.959 1097.71 286.293 1098.9 285.649C1099.53 285.307 1100.15 284.97 1100.76 284.658C1104.35 282.802 1108.31 281.584 1111.56 282.998L1111.56 282.999C1113.76 283.95 1115.35 285.918 1117.14 288.128L1117.21 288.222C1118.96 290.377 1120.91 292.769 1123.78 293.79C1125.09 294.266 1126.45 294.383 1127.73 294.418C1128.21 294.432 1128.67 294.434 1129.12 294.436C1129.91 294.44 1130.66 294.444 1131.44 294.509Z" fill="white" stroke="#000051" stroke-width="2"/>
<path d="M987.457 245.825L987.458 245.826C990.801 246.966 994.271 247.263 997.693 247.349C998.941 247.381 1000.17 247.385 1001.38 247.389C1003.55 247.396 1005.68 247.404 1007.82 247.567C1014.71 248.117 1022.77 251.017 1028.86 255.373C1034.7 259.545 1038.48 264.857 1038.11 270.527L800.171 272.813C799.862 270.064 800.73 267.335 802.384 264.918C804.204 262.258 806.942 260.033 809.948 258.682C815.47 256.199 821.653 255.896 827.981 255.586C828.656 255.553 829.332 255.52 830.009 255.484C836.953 255.117 844.374 254.334 850.359 250.029C853.045 248.096 855.199 245.555 857.252 243.131C857.479 242.863 857.705 242.597 857.93 242.333C860.228 239.638 862.48 237.167 865.4 235.562C869.312 233.431 873.742 233.149 878.507 233.368C879.993 233.436 881.527 233.555 883.083 233.676C886.418 233.936 889.857 234.203 893.149 233.992C898.775 233.638 904.045 231.898 909.103 229.666C912.358 228.23 915.581 226.561 918.758 224.917C920.485 224.023 922.198 223.137 923.894 222.299C933.64 217.484 944.997 213.979 954.556 217.963L954.558 217.964C960.887 220.584 965.422 225.948 970.136 231.526C970.249 231.659 970.362 231.793 970.475 231.927C975.242 237.564 980.245 243.357 987.457 245.825Z" fill="white" stroke="#000051" stroke-width="2"/>
<path d="M1237.73 643.762C1237.73 643.997 1236.65 644.512 1235.76 645.667C1234.87 646.822 1234.57 648.04 1234.32 648.024C1234.07 648.009 1233.96 646.463 1235.07 645.136C1236.18 643.809 1237.7 643.528 1237.73 643.762Z" fill="#000051"/>
<path d="M1243.53 644.09C1243.65 644.309 1242.78 645.058 1242.32 646.338C1241.87 647.618 1242 648.742 1241.76 648.82C1241.53 648.899 1240.9 647.603 1241.5 646.026C1242.09 644.449 1243.45 643.872 1243.53 644.09Z" fill="#000051"/>
<path d="M1248.51 649.164C1248.31 649.289 1247.57 648.227 1247.73 646.713C1247.89 645.199 1248.82 644.324 1248.98 644.481C1249.14 644.637 1248.71 645.573 1248.6 646.807C1248.5 648.04 1248.75 649.055 1248.51 649.164Z" fill="#000051"/>
<path d="M1235.32 638.205C1235.32 638.455 1234.11 638.501 1232.79 639.063C1231.48 639.625 1230.61 640.39 1230.4 640.234C1230.2 640.078 1230.92 638.892 1232.47 638.252C1234.01 637.612 1235.37 637.986 1235.32 638.205Z" fill="#000051"/>
<path d="M1233.67 633.147C1232.95 633.644 1232.1 633.931 1231.23 633.974C1230.31 634.118 1229.37 634.154 1228.43 634.083C1227.88 634.031 1227.33 633.942 1226.79 633.818C1226.47 633.769 1226.15 633.663 1225.86 633.506C1225.64 633.392 1225.47 633.21 1225.38 632.99C1225.28 632.77 1225.25 632.523 1225.31 632.288C1225.37 632.082 1225.49 631.893 1225.63 631.736C1225.78 631.579 1225.97 631.458 1226.17 631.383C1226.47 631.281 1226.79 631.218 1227.11 631.195C1227.67 631.149 1228.23 631.149 1228.79 631.195C1229.74 631.279 1230.67 631.511 1231.54 631.882C1233.11 632.538 1233.71 633.287 1233.65 633.365C1233.59 633.443 1232.76 632.928 1231.32 632.46C1230.49 632.19 1229.62 632.033 1228.75 631.992C1228.23 631.952 1227.7 631.952 1227.18 631.992C1226.62 631.992 1226.18 632.179 1226.14 632.444C1226.09 632.71 1226.14 632.585 1226.29 632.71C1226.51 632.813 1226.73 632.886 1226.97 632.928C1227.48 633.062 1228 633.161 1228.53 633.225C1229.41 633.333 1230.3 633.36 1231.18 633.303C1232.01 633.196 1232.84 633.144 1233.67 633.147Z" fill="#000051"/>
<path d="M1233.48 633.599C1233.48 633.599 1232.64 632.975 1232.03 631.476C1231.67 630.597 1231.47 629.662 1231.43 628.713C1231.42 628.149 1231.45 627.584 1231.54 627.027C1231.56 626.662 1231.67 626.308 1231.87 626.001C1232.07 625.694 1232.34 625.444 1232.67 625.279C1232.88 625.206 1233.11 625.197 1233.33 625.253C1233.55 625.308 1233.75 625.425 1233.9 625.591C1234.13 625.833 1234.32 626.107 1234.47 626.403C1234.73 626.892 1234.92 627.418 1235.03 627.964C1235.22 628.914 1235.17 629.897 1234.87 630.821C1234.36 632.382 1233.47 633.022 1233.42 632.959C1233.74 632.209 1234.03 631.443 1234.28 630.665C1234.46 629.831 1234.46 628.969 1234.28 628.136C1234.17 627.65 1233.99 627.183 1233.75 626.746C1233.5 626.262 1233.15 625.919 1232.98 626.028C1232.81 626.158 1232.68 626.323 1232.58 626.512C1232.48 626.701 1232.43 626.909 1232.42 627.121C1232.32 627.635 1232.27 628.158 1232.26 628.682C1232.27 629.554 1232.39 630.421 1232.64 631.258C1233.03 632.725 1233.59 633.521 1233.48 633.599Z" fill="#000051"/>
<path d="M1079.52 404.363C1079.52 404.363 1056.6 449.714 1072.01 460.345C1087.41 470.977 1159.36 524.992 1159.36 524.992L1196.06 622.921L1230.43 608.871L1201.8 494.253L1129.49 429.341L1079.52 404.363Z" fill="black" fill-opacity="0.87"/>
<path d="M1167.78 507.023C1167.99 507.179 1165.61 510.333 1163.85 514.829C1162.08 519.325 1161.6 523.212 1161.35 523.181C1161.45 517.192 1163.74 511.448 1167.78 507.023Z" fill="#000051"/>
<path d="M1162.11 506.086C1162.35 506.086 1161.31 509.864 1160.97 514.579C1160.63 519.293 1160.97 523.118 1160.77 523.149C1160.01 520.337 1159.81 517.407 1160.16 514.516C1160.25 511.606 1160.91 508.741 1162.11 506.086Z" fill="#000051"/>
<path d="M1199.53 621.454C1199.44 621.303 1199.36 621.14 1199.31 620.97C1199.16 620.611 1198.97 620.127 1198.72 619.502C1198.19 618.176 1197.45 616.287 1196.5 613.851C1194.61 608.918 1191.81 601.737 1188.56 592.776C1185.31 583.815 1181.33 573.059 1177.22 560.913C1176.19 557.885 1175.17 554.747 1174.17 551.546C1173.17 548.346 1172.25 545.021 1170.91 541.743C1168.28 535.233 1165.14 528.645 1161.7 521.963L1161.81 522.072C1157.95 518.81 1153.88 515.391 1149.69 511.956C1146.42 509.271 1143.19 506.633 1139.92 504.151L1130.24 496.813C1123.89 491.989 1117.74 487.353 1111.79 483.122C1105.83 478.891 1099.96 475.176 1094.6 471.476C1089.54 468.139 1084.8 464.351 1080.43 460.158C1078.52 458.309 1076.83 456.245 1075.4 454.007C1074.15 451.983 1073.22 449.776 1072.65 447.466C1071.8 443.762 1071.75 439.919 1072.51 436.195C1072.97 433.855 1073.64 431.562 1074.51 429.341C1074.79 428.576 1075.05 428.014 1075.21 427.624C1075.29 427.423 1075.38 427.23 1075.49 427.046C1075.49 427.046 1075.49 427.265 1075.29 427.655C1075.09 428.045 1074.91 428.623 1074.66 429.388C1073.87 431.625 1073.25 433.922 1072.82 436.257C1072.13 439.936 1072.23 443.717 1073.1 447.357C1073.67 449.614 1074.6 451.769 1075.84 453.742C1077.27 455.925 1078.95 457.941 1080.84 459.752C1085.22 463.887 1089.95 467.627 1094.99 470.93C1100.37 474.583 1106.29 478.267 1112.25 482.513C1118.22 486.76 1124.39 491.349 1130.75 496.173L1140.44 503.511C1143.74 506.008 1146.97 508.647 1150.24 511.316C1154.42 514.766 1158.5 518.185 1162.36 521.464V521.542C1165.8 528.254 1168.94 534.858 1171.56 541.415C1172.81 544.63 1173.9 547.907 1174.81 551.234C1175.8 554.45 1176.81 557.572 1177.81 560.601C1181.88 572.747 1185.75 583.503 1188.98 592.495L1196.7 613.648C1197.59 616.099 1198.26 618.019 1198.78 619.362L1199.3 620.923C1199.4 621.088 1199.48 621.267 1199.53 621.454Z" fill="#000051"/>
<path d="M1107.79 418.882L1152.1 425.157L1174.81 430.934L1143.71 442.08L1107.79 418.882Z" fill="black" fill-opacity="0.87"/>
<path d="M1053.54 415.681C1053.29 416.078 1052.98 416.436 1052.62 416.743C1051.73 417.656 1050.78 418.512 1049.77 419.303C1043.16 424.597 1035.18 427.924 1026.76 428.904C1025.5 429.06 1024.22 429.133 1022.95 429.123C1022.48 429.171 1022 429.139 1021.54 429.029C1021.54 428.888 1023.53 428.826 1026.68 428.326C1030.79 427.695 1034.8 426.568 1038.64 424.97C1042.46 423.361 1046.09 421.301 1049.43 418.835C1051.99 416.946 1053.45 415.588 1053.54 415.681Z" fill="#000051"/>
<path d="M1085.35 350.863L1076.8 415.057C1076.8 415.057 1105.21 413.199 1125.24 419.85C1145.27 426.5 1157.58 426.313 1157.58 426.313L1153.39 386.379L1168.34 353.595L1174.92 391.921L1205.64 423.518L1225.65 418.991L1204.9 384.271L1190.5 313.521C1189.28 307.623 1186.09 302.318 1181.44 298.487L1180.86 298.019L1150.71 281.221L1140.58 281.424C1132.02 281.611 1123.5 282.488 1115.08 284.047C1109.83 285.023 1105.01 287.603 1101.29 291.431C1097.94 295.191 1095.52 299.69 1094.24 304.56L1085.35 350.863Z" fill="#FF6F00"/>
<path d="M1181.14 324.012C1180.96 324.726 1180.71 325.421 1180.39 326.088L1178.11 331.583C1176.14 336.267 1173.42 342.589 1170.3 349.614L1162.3 367.583C1161.3 369.753 1160.45 371.564 1159.81 373C1159.53 373.673 1159.2 374.325 1158.83 374.951C1158.97 374.233 1159.2 373.536 1159.52 372.875C1160.03 371.548 1160.8 369.675 1161.77 367.349C1163.7 362.665 1166.45 356.327 1169.58 349.286C1172.7 342.246 1175.53 335.923 1177.63 331.349L1180.16 325.948C1180.42 325.27 1180.75 324.621 1181.14 324.012Z" fill="#000051"/>
<path d="M1095.91 312.834C1101.79 329.195 1113.1 366.553 1118.6 380.962C1120.29 385.334 1123.11 389.176 1126.79 392.093L1187.72 435.164L1201.78 416.883L1156.11 372.86L1131.49 299.97C1128.02 290.245 1113.63 284.968 1104.69 290.166C1097.91 294.179 1093.27 305.341 1095.91 312.834Z" fill="#FF6F00"/>
<path d="M1132.68 302.999C1132.68 302.999 1132.85 303.42 1133.14 304.248L1134.46 307.963C1135.58 311.257 1137.24 316.019 1139.32 322.092L1156.5 372.75L1156.41 372.61L1202.15 416.587L1202.4 416.837L1202.19 417.118L1192.06 430.278C1190.7 432.026 1189.36 433.79 1188.11 435.414L1187.87 435.726L1187.55 435.492L1140.77 401.818L1130.28 394.278L1127.77 392.467C1126.91 391.885 1126.1 391.243 1125.33 390.547C1123.84 389.159 1122.54 387.585 1121.46 385.864C1120.42 384.219 1119.57 382.465 1118.91 380.634L1116.9 375.451C1115.61 372.063 1114.4 368.801 1113.27 365.663C1108.79 353.174 1105.46 342.964 1103.24 335.908C1102.15 332.395 1101.3 329.663 1100.71 327.774C1100.44 326.869 1100.22 326.213 1100.08 325.651C1100.01 325.41 1099.95 325.165 1099.9 324.917C1099.9 324.917 1099.99 325.151 1100.16 325.635C1100.33 326.119 1100.55 326.837 1100.87 327.727C1101.47 329.601 1102.43 332.317 1103.54 335.814C1105.86 342.839 1109.24 352.986 1113.8 365.475C1114.94 368.598 1116.18 371.845 1117.47 375.232C1118.15 376.918 1118.82 378.651 1119.5 380.4C1120.16 382.187 1121 383.899 1122.02 385.505C1123.09 387.156 1124.36 388.667 1125.8 390.001C1126.54 390.678 1127.34 391.299 1128.18 391.858L1130.71 393.669L1141.22 401.241L1188.09 434.852H1187.55L1191.5 429.716L1201.62 416.571V417.102L1155.97 373.141V373.062C1148.94 352.034 1143.11 334.565 1139.02 322.31L1134.33 308.119L1133.13 304.388C1132.78 303.436 1132.68 302.999 1132.68 302.999Z" fill="#000051"/>
<path d="M1126.85 294.101C1126.75 294.194 1125.74 293.133 1123.72 291.899C1121.15 290.283 1118.2 289.358 1115.17 289.213C1112.13 289.068 1109.11 289.708 1106.4 291.072C1104.3 292.102 1103.19 293.07 1103.1 292.961C1103.92 291.946 1104.96 291.126 1106.13 290.557C1108.89 288.997 1112.04 288.251 1115.21 288.403C1118.38 288.555 1121.44 289.599 1124.04 291.415C1125.16 292.098 1126.11 293.014 1126.85 294.101Z" fill="#000051"/>
<path d="M1206.25 385.224C1206.25 385.473 1203.36 385.224 1200 386.004C1196.64 386.785 1194.22 388.377 1194.08 388.159C1195.65 386.622 1197.65 385.593 1199.81 385.208C1201.91 384.556 1204.15 384.562 1206.25 385.224Z" fill="#000051"/>
<path d="M1103.93 337.438C1103.73 337.512 1103.53 337.564 1103.32 337.594C1102.76 337.715 1102.2 337.804 1101.63 337.859C1099.75 338.055 1097.85 337.933 1096.01 337.5C1093.62 336.866 1091.4 335.709 1089.51 334.112C1089.34 333.984 1089.19 333.838 1089.05 333.675C1091.18 335.241 1093.56 336.424 1096.08 337.172C1098.67 337.684 1101.32 337.774 1103.93 337.438Z" fill="white"/>
<path d="M1108.68 351.363C1107.75 350.74 1106.78 350.172 1105.79 349.661C1103.33 348.518 1100.68 347.845 1097.97 347.678C1095.27 347.511 1092.56 347.569 1089.87 347.85L1087.41 348.084C1087.11 348.105 1086.81 348.105 1086.51 348.084C1086.8 347.997 1087.1 347.939 1087.4 347.913C1087.98 347.819 1088.8 347.71 1089.85 347.585C1092.55 347.228 1095.27 347.133 1097.99 347.304C1100.71 347.485 1103.36 348.201 1105.8 349.411C1106.54 349.786 1107.24 350.225 1107.9 350.723C1108.18 350.9 1108.45 351.115 1108.68 351.363Z" fill="white"/>
<g opacity="0.4">
<path d="M1100.8 327.712C1100.8 327.712 1102.37 352.128 1104.19 363.415C1106.02 374.702 1109.58 386.192 1117.68 394.263C1125.77 402.334 1137.39 405.987 1148.69 408.313C1145.03 405.565 1141.47 402.74 1137.96 399.82C1133.44 396.074 1126.82 392.405 1123.18 387.784C1116.18 378.901 1114.66 367.677 1111.05 356.967C1107.74 347.07 1104.13 337.656 1100.8 327.774" fill="black" fill-opacity="0.87"/>
</g>
<path d="M1143.24 337.235C1142.85 337.512 1142.41 337.728 1141.96 337.875C1140.7 338.318 1139.38 338.519 1138.05 338.468C1134.69 338.468 1130.24 336.907 1125.18 337.359C1120.87 337.693 1116.7 339.029 1113.01 341.262C1111.89 341.942 1110.82 342.693 1109.8 343.51L1108.99 344.197C1108.8 344.353 1108.69 344.431 1108.69 344.416C1109.93 343.113 1111.34 341.984 1112.88 341.059C1116.59 338.747 1120.8 337.365 1125.16 337.032C1130.29 336.548 1134.77 338.218 1138.05 338.234C1139.35 338.307 1140.66 338.148 1141.91 337.765C1142.78 337.547 1143.22 337.235 1143.24 337.235Z" fill="white"/>
<path d="M1138.71 325.448C1138.61 325.526 1138.5 325.594 1138.39 325.651L1137.5 326.166C1136.72 326.619 1135.57 327.212 1134.11 327.899C1126.48 331.467 1118.21 333.433 1109.79 333.675C1108.22 333.675 1106.86 333.675 1105.97 333.675H1104.94C1104.82 333.686 1104.7 333.686 1104.58 333.675H1104.94H1105.97C1106.86 333.675 1108.18 333.675 1109.77 333.597C1113.95 333.414 1118.09 332.839 1122.16 331.88C1126.23 330.901 1130.2 329.553 1134.02 327.852C1135.47 327.196 1136.64 326.619 1137.44 326.291L1138.36 325.823C1138.58 325.479 1138.69 325.432 1138.71 325.448Z" fill="white"/>
<path d="M1173.31 338.249L1172.89 338.156C1172.49 338.043 1172.09 337.908 1171.7 337.75C1170.3 337.131 1169.01 336.275 1167.89 335.221C1164.92 332.692 1162.19 327.946 1157.58 324.293C1152.45 320.201 1146.26 317.651 1139.74 316.94L1138.5 316.815C1138.36 316.842 1138.22 316.842 1138.08 316.815C1140.19 316.809 1142.29 317.06 1144.33 317.564C1149.26 318.716 1153.88 320.956 1157.83 324.121C1159.97 325.893 1161.92 327.893 1163.63 330.085C1164.99 331.877 1166.48 333.567 1168.1 335.143C1169.19 336.196 1170.44 337.066 1171.81 337.718C1172.74 338.093 1173.33 338.202 1173.31 338.249Z" fill="white"/>
<path d="M1171.49 345.696C1171.04 345.598 1170.6 345.473 1170.17 345.321C1169.04 344.843 1167.99 344.196 1167.05 343.401C1165.66 342.208 1164.38 340.897 1163.22 339.483C1161.8 337.784 1160.23 336.216 1158.53 334.799C1156.79 333.422 1154.72 332.533 1152.52 332.223C1150.73 331.972 1148.91 331.936 1147.11 332.114C1145.55 332.255 1144.32 332.442 1143.46 332.551L1142.46 332.692C1142.34 332.709 1142.23 332.709 1142.11 332.692C1142.22 332.642 1142.33 332.61 1142.44 332.598L1143.42 332.395C1144.28 332.239 1145.53 332.02 1147.08 331.864C1148.9 331.63 1150.74 331.63 1152.56 331.864C1154.85 332.147 1157.01 333.054 1158.81 334.487C1160.53 335.933 1162.1 337.543 1163.5 339.295C1164.65 340.696 1165.91 342.011 1167.25 343.229C1168.19 344.033 1169.24 344.695 1170.38 345.196C1171.03 345.524 1171.49 345.665 1171.49 345.696Z" fill="white"/>
<path d="M1195.42 340.669C1194.29 340.363 1193.12 340.247 1191.95 340.326C1190.69 340.436 1189.44 340.714 1188.25 341.153C1186.91 341.621 1185.47 342.308 1183.95 342.995C1182.53 343.665 1181.04 344.188 1179.52 344.556C1178.25 344.849 1176.95 344.918 1175.66 344.759C1174.79 344.64 1173.95 344.365 1173.17 343.947C1172.92 343.816 1172.69 343.659 1172.47 343.479C1173.47 344.083 1174.59 344.466 1175.75 344.603C1177.01 344.732 1178.28 344.642 1179.5 344.338C1181.01 343.963 1182.47 343.44 1183.88 342.777C1185.44 342.09 1186.84 341.418 1188.22 340.95C1189.44 340.522 1190.71 340.259 1192 340.17C1192.87 340.117 1193.75 340.201 1194.59 340.419C1194.88 340.472 1195.16 340.556 1195.42 340.669Z" fill="white"/>
<path d="M1197.89 349.162C1196.64 348.222 1195.14 347.678 1193.58 347.6C1191.9 347.544 1190.22 347.848 1188.67 348.49C1186.79 349.33 1185 350.378 1183.34 351.613C1181.67 352.858 1179.9 353.96 1178.05 354.907C1176.51 355.66 1174.84 356.111 1173.13 356.234C1171.97 356.301 1170.82 356.131 1169.74 355.734C1169.34 355.584 1168.96 355.385 1168.61 355.141C1170.01 355.826 1171.56 356.122 1173.11 355.999C1174.78 355.848 1176.42 355.387 1177.92 354.641C1179.75 353.677 1181.5 352.576 1183.16 351.347C1184.84 350.107 1186.65 349.06 1188.56 348.225C1190.16 347.58 1191.87 347.292 1193.59 347.382C1194.75 347.448 1195.88 347.779 1196.89 348.35C1197.26 348.573 1197.6 348.846 1197.89 349.162Z" fill="white"/>
<g opacity="0.4">
<path d="M1171.91 374.296C1175.03 361.51 1175.72 347.663 1176.17 334.503C1175.06 339.108 1172.24 343.089 1170.49 347.507C1169.64 349.599 1168.31 353.408 1168.31 353.408L1171.84 373.984" fill="black" fill-opacity="0.87"/>
</g>
<path d="M1151.28 223.896C1151.11 225.075 1150.61 226.183 1149.85 227.097C1149.09 228.012 1148.09 228.698 1146.96 229.079C1145.67 229.501 1144.27 229.501 1143 229.985C1142.35 230.169 1141.78 230.569 1141.39 231.12C1141 231.671 1140.81 232.339 1140.85 233.013C1141.07 234.013 1141.99 234.653 1142.74 235.324C1143.49 235.995 1144.17 237.057 1143.74 237.962C1143.3 238.868 1141.82 239.055 1141.07 239.882C1140.72 240.361 1140.55 240.941 1140.58 241.528C1140.62 242.116 1140.85 242.675 1141.24 243.114C1142.04 243.972 1142.98 244.704 1144 245.284C1145.03 245.875 1145.8 246.844 1146.13 247.985" fill="#000051"/>
<path d="M1197.62 244.176C1201.06 236.916 1198.56 227.877 1193.2 221.883C1187.84 215.888 1180.16 212.516 1172.44 210.283C1171.33 209.971 1169.95 209.737 1169.17 210.596C1168.88 211.011 1168.74 211.515 1168.78 212.021C1168.82 212.528 1169.03 213.006 1169.38 213.374C1170.1 214.099 1170.99 214.636 1171.97 214.936C1168.85 213.309 1165.42 212.377 1161.91 212.204C1160.68 212.11 1159.45 212.37 1158.36 212.953C1157.83 213.263 1157.41 213.731 1157.16 214.291C1156.91 214.851 1156.85 215.475 1156.97 216.075C1157.06 216.37 1157.23 216.638 1157.44 216.856C1157.66 217.075 1157.93 217.238 1158.22 217.331C1158.52 217.425 1158.83 217.446 1159.13 217.393C1159.44 217.34 1159.73 217.215 1159.97 217.028C1156.63 216.665 1153.26 217.452 1150.42 219.26C1148.42 220.54 1146.6 222.757 1147.08 225.083C1147.59 226.38 1148.17 227.647 1148.83 228.877C1149.66 231.296 1148.46 233.888 1147.53 236.261C1146 239.951 1145.47 243.976 1145.97 247.938C1146.23 249.917 1146.93 251.813 1148.01 253.492C1149.09 255.171 1150.53 256.59 1152.22 257.648" fill="#000051"/>
<path d="M1149.71 305.387C1147.64 304.835 1145.71 303.876 1144.03 302.567C1142.34 301.257 1140.94 299.624 1139.89 297.764C1138.85 295.903 1138.19 293.852 1137.95 291.732C1137.71 289.613 1137.9 287.467 1138.5 285.421L1152.85 236.901C1153.64 233.939 1155.01 231.166 1156.89 228.746C1158.78 226.325 1161.12 224.306 1163.8 222.809C1166.48 221.311 1169.42 220.365 1172.47 220.026C1175.52 219.687 1178.61 219.963 1181.55 220.837L1182.67 221.243C1188.13 223.215 1192.64 227.167 1195.32 232.312C1197.99 237.458 1198.63 243.42 1197.11 249.015C1194.16 259.802 1190.75 271.698 1188.64 277.303C1184.28 288.902 1171.97 286.498 1171.97 286.498L1168.94 295.193C1167.62 299.006 1164.9 302.177 1161.33 304.068C1157.76 305.96 1153.61 306.431 1149.71 305.387Z" fill="#FFBE9D"/>
<path d="M1172.05 286.342C1166.63 284.498 1161.88 281.085 1158.41 276.538C1158.41 276.538 1158.97 286.217 1170.91 289.37L1172.05 286.342Z" fill="#FFA040"/>
<path d="M1169.84 227.955C1168.89 225.864 1167.69 221.305 1166.06 219.666C1164.44 218.027 1161.8 218.573 1159.58 219.198C1158.44 219.528 1157.39 220.125 1156.52 220.94C1155.66 221.754 1155 222.762 1154.6 223.881C1151.47 232.264 1151.16 240.195 1148.88 248.438C1148.67 248.974 1148.62 249.56 1148.74 250.124C1149.17 251.513 1150.71 252.012 1152.16 252.231C1155.74 252.746 1157.56 250.139 1159.25 247.001C1159.82 245.101 1160.24 243.159 1160.5 241.194C1160.7 238.437 1161.62 235.781 1163.18 233.493C1164.73 231.205 1166.86 229.365 1169.34 228.158L1169.84 227.955Z" fill="#000051"/>
<path d="M1154.86 243.567C1154.7 243.411 1147.71 238.306 1145.08 246.361C1142.46 254.417 1151.1 255.4 1151.19 255.166C1151.28 254.932 1154.86 243.567 1154.86 243.567Z" fill="#FFBE9D"/>
<path d="M1149.72 251.372C1149.72 251.372 1149.55 251.372 1149.27 251.466C1148.89 251.491 1148.51 251.374 1148.21 251.138C1147.79 250.638 1147.52 250.037 1147.42 249.398C1147.32 248.759 1147.39 248.104 1147.63 247.501C1147.83 246.802 1148.19 246.156 1148.67 245.612C1148.83 245.387 1149.04 245.202 1149.29 245.075C1149.53 244.947 1149.8 244.88 1150.08 244.878C1150.25 244.893 1150.42 244.966 1150.54 245.085C1150.67 245.204 1150.76 245.362 1150.78 245.534C1150.78 245.799 1150.78 245.94 1150.78 245.971C1150.78 246.002 1151 245.893 1151.05 245.534C1151.07 245.319 1151.01 245.105 1150.89 244.925C1150.81 244.806 1150.7 244.705 1150.58 244.627C1150.46 244.549 1150.32 244.497 1150.17 244.472C1149.82 244.433 1149.46 244.483 1149.14 244.62C1148.81 244.757 1148.52 244.974 1148.3 245.253C1147.74 245.839 1147.32 246.551 1147.08 247.329C1146.81 248.035 1146.75 248.805 1146.92 249.544C1147.08 250.282 1147.46 250.956 1148 251.482C1148.2 251.614 1148.42 251.702 1148.65 251.737C1148.88 251.772 1149.12 251.754 1149.35 251.685C1149.64 251.513 1149.74 251.372 1149.72 251.372Z" fill="#FFA040"/>
<path d="M1166.74 229.688C1170.7 226.972 1174.8 228.314 1177.53 229.907C1180.27 231.499 1182.58 233.747 1185.34 235.199C1188.11 236.651 1191.81 237.15 1194.31 235.199C1195.19 234.411 1195.9 233.45 1196.39 232.375C1196.89 231.301 1197.15 230.136 1197.17 228.955C1197.35 226.706 1197.08 224.444 1196.38 222.3C1195.67 220.157 1194.55 218.174 1193.08 216.466C1192.31 215.576 1191.12 214.717 1190.05 215.185C1188.72 215.779 1188.94 217.714 1189.36 219.104C1189.36 219.104 1175.8 214.093 1167.49 216.981C1159.17 219.869 1166.74 229.688 1166.74 229.688Z" fill="#000051"/>
<path d="M1171.83 210.127C1171.83 210.127 1171.99 210.721 1172.41 211.688C1173.04 213.034 1173.92 214.256 1174.99 215.295C1176.57 216.838 1178.4 218.114 1180.39 219.073C1181.57 219.625 1182.81 220.039 1184.08 220.306C1185.41 220.603 1186.83 220.805 1188.27 221.196C1189.71 221.549 1191.05 222.227 1192.19 223.178C1193.23 224.086 1194.04 225.232 1194.55 226.519C1195.01 227.689 1195.18 228.954 1195.03 230.203C1194.89 231.28 1194.49 232.307 1193.87 233.201C1192.99 234.503 1191.7 235.471 1190.2 235.948C1189.8 236.063 1189.38 236.126 1188.95 236.136C1188.67 236.136 1188.52 236.136 1188.52 236.136C1188.52 236.136 1189.12 236.136 1190.08 235.714C1191.46 235.175 1192.63 234.213 1193.42 232.967C1193.96 232.117 1194.3 231.156 1194.42 230.157C1194.53 229.012 1194.35 227.859 1193.91 226.8C1193.43 225.598 1192.68 224.528 1191.7 223.678C1190.65 222.819 1189.42 222.206 1188.09 221.883C1186.72 221.508 1185.3 221.289 1183.94 220.977C1182.62 220.693 1181.34 220.248 1180.13 219.65C1178.08 218.642 1176.22 217.284 1174.64 215.638C1173.56 214.534 1172.72 213.222 1172.17 211.782C1172.02 211.39 1171.92 210.981 1171.88 210.564C1171.83 210.423 1171.82 210.275 1171.83 210.127Z" fill="#000051"/>
<path d="M1162.88 212.563C1162.88 212.563 1163.08 213.156 1163.53 214.124C1164.21 215.526 1165.15 216.783 1166.31 217.824C1168.05 219.353 1170.09 220.506 1172.3 221.211C1175.03 222.064 1177.82 222.711 1180.64 223.147C1183.52 223.562 1186.34 224.371 1189 225.551C1190.2 226.13 1191.17 227.106 1191.73 228.314C1192.15 229.396 1192.21 230.581 1191.92 231.702C1191.46 233.288 1190.43 234.649 1189.03 235.527C1188.67 235.768 1188.28 235.972 1187.87 236.136C1187.74 236.205 1187.59 236.253 1187.44 236.276C1187.44 236.276 1187.98 235.964 1188.87 235.293C1190.13 234.395 1191.03 233.086 1191.42 231.593C1191.67 230.592 1191.6 229.538 1191.22 228.58C1190.69 227.509 1189.81 226.654 1188.72 226.16C1186.1 225.046 1183.35 224.28 1180.53 223.881C1177.67 223.436 1174.86 222.757 1172.11 221.851C1169.84 221.099 1167.75 219.863 1166 218.23C1164.83 217.114 1163.92 215.762 1163.31 214.264C1163.15 213.86 1163.03 213.442 1162.95 213.015C1162.9 212.872 1162.87 212.717 1162.88 212.563Z" fill="#000051"/>
<path d="M1189.33 254.62C1189.17 255.093 1188.83 255.485 1188.39 255.713C1187.95 255.941 1187.43 255.985 1186.95 255.837C1186.71 255.778 1186.49 255.671 1186.29 255.523C1186.1 255.375 1185.93 255.189 1185.81 254.976C1185.69 254.763 1185.61 254.528 1185.58 254.285C1185.55 254.041 1185.57 253.794 1185.64 253.558C1185.8 253.083 1186.14 252.689 1186.59 252.459C1187.03 252.229 1187.55 252.181 1188.03 252.325C1188.27 252.388 1188.49 252.498 1188.69 252.648C1188.88 252.798 1189.04 252.986 1189.16 253.199C1189.28 253.413 1189.36 253.649 1189.39 253.893C1189.42 254.137 1189.4 254.384 1189.33 254.62Z" fill="#000051"/>
<path d="M1192.78 253.589C1192.47 253.745 1191.45 252.262 1189.48 251.591C1187.52 250.92 1185.77 251.388 1185.64 251.076C1185.52 250.764 1185.94 250.592 1186.73 250.358C1187.78 250.068 1188.88 250.104 1189.9 250.461C1190.92 250.818 1191.81 251.48 1192.44 252.356C1192.89 253.027 1192.94 253.527 1192.78 253.589Z" fill="#000051"/>
<path d="M1170.02 249.062C1169.86 249.536 1169.52 249.929 1169.07 250.157C1168.62 250.384 1168.1 250.428 1167.63 250.28C1167.39 250.218 1167.17 250.11 1166.97 249.961C1166.78 249.813 1166.62 249.627 1166.5 249.414C1166.37 249.202 1166.3 248.967 1166.27 248.724C1166.24 248.481 1166.26 248.235 1166.33 248C1166.49 247.527 1166.82 247.133 1167.27 246.903C1167.71 246.672 1168.23 246.624 1168.7 246.767C1168.94 246.828 1169.17 246.937 1169.36 247.086C1169.56 247.236 1169.72 247.423 1169.85 247.637C1169.97 247.851 1170.05 248.088 1170.08 248.332C1170.11 248.577 1170.08 248.825 1170.02 249.062Z" fill="#000051"/>
<path d="M1173.45 247.282C1173.14 247.454 1172.13 245.955 1170.17 245.284C1168.22 244.613 1166.44 245.081 1166.31 244.769C1166.19 244.457 1166.63 244.285 1167.41 244.051C1168.44 243.768 1169.53 243.806 1170.53 244.16C1171.55 244.508 1172.43 245.169 1173.05 246.049C1173.55 246.689 1173.59 247.22 1173.45 247.282Z" fill="#000051"/>
<path d="M1175.59 264.236C1176.74 264.272 1177.87 264.45 1178.97 264.767C1179.48 264.892 1179.98 264.954 1180.19 264.642C1180.4 264.151 1180.47 263.608 1180.38 263.081C1180.38 261.707 1180.27 260.271 1180.22 258.772C1179.96 255.08 1180.01 251.373 1180.36 247.688C1180.9 251.353 1181.15 255.053 1181.11 258.757C1181.11 260.318 1181.11 261.691 1181.11 263.065C1181.22 263.775 1181.07 264.501 1180.69 265.11C1180.56 265.261 1180.39 265.38 1180.21 265.458C1180.02 265.537 1179.83 265.572 1179.63 265.563C1179.32 265.559 1179.01 265.511 1178.72 265.423C1177.63 265.156 1176.58 264.758 1175.59 264.236Z" fill="#000051"/>
<path d="M1169.34 263.596C1169.66 263.596 1168.92 265.797 1170.22 267.936C1171.52 270.075 1173.86 270.621 1173.77 270.933C1173.67 271.246 1173.13 271.168 1172.2 270.933C1170.96 270.52 1169.89 269.68 1169.2 268.56C1168.54 267.49 1168.32 266.2 1168.6 264.97C1168.74 263.971 1169.14 263.534 1169.34 263.596Z" fill="#000051"/>
<path d="M1176.62 239.804C1176.23 240.273 1174.37 239.352 1171.94 238.821C1169.5 238.29 1167.48 238.29 1167.34 237.712C1167.34 237.431 1167.78 237.041 1168.7 236.791C1169.92 236.496 1171.18 236.484 1172.4 236.755C1173.62 237.025 1174.76 237.572 1175.73 238.353C1176.52 239.024 1176.8 239.586 1176.62 239.804Z" fill="#000051"/>
<path d="M1194.05 247.688C1193.55 248.016 1192.36 247.095 1190.75 246.502C1189.14 245.908 1187.62 245.768 1187.5 245.19C1187.5 244.925 1187.81 244.55 1188.55 244.332C1189.53 244.113 1190.55 244.187 1191.49 244.545C1192.43 244.903 1193.24 245.529 1193.83 246.346C1194.23 247.001 1194.34 247.532 1194.05 247.688Z" fill="#000051"/>
<path d="M1157.22 420.896C1158.97 421.53 1160.43 422.765 1161.34 424.378C1162.26 425.992 1162.57 427.878 1162.22 429.7L1151.66 433.868L1149.25 423.721L1157.22 420.896Z" fill="#534BAE"/>
<path d="M1068.57 420.864C1068.57 420.864 1089.71 418.679 1102.94 423.346C1116.18 428.014 1132.74 431.496 1140.03 429.856C1143.94 428.905 1147.43 426.714 1149.99 423.612C1149.99 423.612 1128.93 421.083 1119 417.883C1112.33 415.728 1099.15 400.788 1074.74 404.394L1068.57 420.864Z" fill="#534BAE"/>
<path d="M1153.27 428.514C1152.52 426.586 1151.35 424.844 1149.86 423.409L1150.05 423.659C1147.84 423.756 1145.64 424.075 1143.49 424.611C1141.33 425.165 1139.4 426.363 1137.94 428.046C1137.44 428.579 1137.16 429.282 1137.16 430.013C1137.26 430.486 1137.46 430.934 1137.75 431.326C1138.03 431.719 1138.4 432.047 1138.82 432.292C1140.75 434.033 1143 435.375 1145.46 436.241C1146.69 436.653 1148.01 436.7 1149.27 436.376C1150.53 436.052 1151.67 435.371 1152.55 434.415C1153.14 433.562 1153.51 432.58 1153.63 431.553C1153.76 430.525 1153.63 429.482 1153.27 428.514Z" fill="#534BAE"/>
<path d="M1137.93 427.78C1138.05 427.332 1138.28 426.919 1138.6 426.578C1139.44 425.65 1140.52 424.965 1141.72 424.595C1143.5 424.003 1145.4 423.843 1147.25 424.127C1148.4 424.299 1149.49 424.714 1150.46 425.344C1151.43 425.974 1152.26 426.805 1152.88 427.78C1153.52 428.807 1153.83 430.006 1153.77 431.215C1153.68 432.345 1153.28 433.428 1152.6 434.337C1151.98 435.15 1151.14 435.764 1150.17 436.101C1149.34 436.382 1148.46 436.489 1147.58 436.413C1146.33 436.294 1145.1 435.989 1143.94 435.508C1143.53 435.352 1143.22 435.211 1143 435.102C1142.89 435.061 1142.79 435.003 1142.69 434.93L1143.03 435.039L1143.99 435.383C1145.15 435.817 1146.36 436.085 1147.6 436.179C1148.48 436.262 1149.38 436.121 1150.2 435.769C1151.02 435.417 1151.73 434.866 1152.28 434.165C1152.96 433.277 1153.35 432.2 1153.4 431.082C1153.44 429.965 1153.14 428.861 1152.53 427.921C1151.93 426.984 1151.14 426.187 1150.21 425.581C1149.28 424.975 1148.23 424.575 1147.13 424.408C1145.32 424.111 1143.47 424.244 1141.72 424.798C1140.54 425.138 1139.47 425.772 1138.6 426.64C1138.33 426.996 1138.11 427.378 1137.93 427.78Z" fill="#000051"/>
<path d="M1142.39 428.124C1142 427.732 1141.58 427.367 1141.14 427.031C1140.64 426.725 1140.12 426.458 1139.58 426.235C1140.14 426.344 1140.68 426.568 1141.15 426.893C1141.62 427.218 1142.01 427.637 1142.32 428.124H1142.39Z" fill="white"/>
<path d="M1145.82 428.28C1145.82 428.28 1145.33 427.796 1144.67 427.249C1144.02 426.703 1143.44 426.344 1143.46 426.313C1143.95 426.492 1144.4 426.768 1144.78 427.124C1145.2 427.441 1145.55 427.833 1145.82 428.28Z" fill="white"/>
<path d="M1147.21 435.586C1147.21 435.586 1147.13 435.227 1146.96 434.665C1146.73 433.948 1146.4 433.265 1145.99 432.635C1145.55 432.012 1145.02 431.455 1144.42 430.98C1143.97 430.606 1143.66 430.418 1143.67 430.403C1143.97 430.535 1144.24 430.698 1144.5 430.887C1145.11 431.356 1145.64 431.92 1146.07 432.557C1146.49 433.192 1146.81 433.894 1147 434.633C1147.11 434.943 1147.17 435.262 1147.21 435.586Z" fill="white"/>
<path d="M1150.67 432.854C1150.66 432.552 1150.66 432.25 1150.67 431.948C1150.69 431.222 1150.64 430.495 1150.52 429.778C1150.39 429.067 1150.18 428.371 1149.91 427.702C1149.71 427.187 1149.55 426.875 1149.57 426.859C1149.58 426.843 1149.56 426.859 1149.71 427.062C1149.82 427.254 1149.92 427.452 1150.02 427.655C1150.32 428.329 1150.54 429.036 1150.67 429.763C1150.81 430.483 1150.84 431.218 1150.78 431.948C1150.8 432.172 1150.8 432.396 1150.78 432.62C1150.75 432.701 1150.72 432.779 1150.67 432.854Z" fill="white"/>
<path d="M1150.69 426.344C1147.28 427.502 1144.28 429.628 1142.07 432.464C1142.29 431.979 1142.58 431.531 1142.94 431.137C1144.58 429.125 1146.74 427.602 1149.19 426.734C1149.67 426.532 1150.17 426.401 1150.69 426.344Z" fill="#000051"/>
<path d="M1145.46 424.658C1144.28 425.541 1143.3 426.65 1142.57 427.921C1141.91 429.233 1141.53 430.659 1141.42 432.12C1141.34 431.687 1141.34 431.242 1141.42 430.809C1141.51 429.742 1141.82 428.705 1142.33 427.764C1142.85 426.821 1143.54 425.989 1144.38 425.314C1144.69 425.026 1145.06 424.804 1145.46 424.658Z" fill="#000051"/>
<path d="M1151.25 435.586C1151.25 435.586 1151.16 435.071 1150.85 434.321C1150.42 433.355 1149.79 432.496 1148.99 431.808C1147.08 430.247 1145.16 429.388 1145.24 429.263C1145.67 429.389 1146.08 429.562 1146.47 429.778C1147.46 430.252 1148.37 430.85 1149.21 431.558C1150.04 432.28 1150.68 433.205 1151.06 434.243C1151.24 434.667 1151.31 435.13 1151.25 435.586Z" fill="#000051"/>
<path d="M1106.85 424.424C1106.14 424.365 1105.45 424.234 1104.77 424.033C1103.44 423.737 1101.54 423.315 1099.16 422.863C1092.97 421.681 1086.71 420.95 1080.41 420.677C1076.97 420.438 1073.52 420.717 1070.16 421.504C1067.45 422.23 1064.91 423.488 1062.7 425.204C1060.67 426.841 1058.89 428.748 1057.38 430.871C1057.64 430.205 1057.98 429.579 1058.41 429.013C1059.51 427.413 1060.83 425.978 1062.34 424.751C1064.58 422.912 1067.18 421.562 1069.98 420.786C1073.4 419.937 1076.93 419.626 1080.44 419.865C1086.79 420.131 1093.1 420.945 1099.3 422.301C1101.68 422.831 1103.58 423.346 1104.88 423.737C1105.56 423.892 1106.22 424.122 1106.85 424.424Z" fill="#000051"/>
<path d="M951.532 403.255C951.863 402.939 952.224 402.657 952.61 402.412C953.682 401.669 954.828 401.041 956.032 400.538C960.513 398.653 965.485 398.269 970.203 399.446C973.466 400.242 976.493 401.804 979.03 404.004C981.86 406.562 984.354 409.468 986.452 412.653C988.767 416.114 991.26 419.454 993.92 422.66C996.804 426.062 999.937 429.245 1003.29 432.183C1010.2 438.193 1017.67 443.11 1025.17 445.515C1028.72 446.715 1032.45 447.332 1036.2 447.341C1039.45 447.472 1042.68 446.676 1045.49 445.046C1047.75 443.581 1049.72 441.713 1051.31 439.535C1052.76 437.646 1053.9 435.914 1054.84 434.509L1056.98 431.261C1057.21 430.874 1057.47 430.504 1057.76 430.153C1057.58 430.574 1057.36 430.976 1057.1 431.355L1055.1 434.68C1054.21 436.117 1053.1 437.803 1051.67 439.801C1050.09 442.062 1048.1 444.006 1045.81 445.53C1042.91 447.255 1039.57 448.121 1036.2 448.028C1032.37 448.048 1028.57 447.441 1024.93 446.233C1017.23 443.766 1009.67 438.864 1002.7 432.807C999.304 429.842 996.139 426.622 993.232 423.175C990.564 419.944 988.071 416.572 985.764 413.074C983.705 409.934 981.271 407.056 978.515 404.504C976.068 402.351 973.144 400.81 969.984 400.008C965.377 398.813 960.511 399.103 956.079 400.835C954.498 401.512 952.977 402.321 951.532 403.255Z" fill="#000051"/>
<path d="M990.451 389.408H989.358C988.639 389.408 987.623 389.501 986.358 389.642C979.766 390.405 973.477 392.827 968.078 396.682C967.062 397.416 966.25 398.056 965.703 398.509L964.859 399.211C965.837 398.264 966.881 397.387 967.984 396.589C973.361 392.658 979.685 390.223 986.311 389.532C987.687 389.398 989.07 389.356 990.451 389.408Z" fill="white"/>
<path d="M1015.53 404.582L1014.39 404.738C1013.64 404.831 1012.57 405.003 1011.26 405.269C1007.86 405.964 1004.56 407.075 1001.43 408.578C998.301 410.084 995.363 411.966 992.685 414.183C991.67 415.026 990.873 415.744 990.342 416.275L989.498 417.071C990.473 416.01 991.517 415.014 992.623 414.089C995.288 411.846 998.222 409.942 1001.36 408.422C1004.5 406.923 1007.83 405.826 1011.25 405.159C1012.66 404.876 1014.09 404.683 1015.53 404.582Z" fill="white"/>
<path d="M1014.76 440.129C1014.67 439.732 1014.6 439.331 1014.54 438.927C1014.4 437.829 1014.36 436.721 1014.43 435.617C1014.69 431.957 1015.76 428.4 1017.56 425.204C1019.4 422.044 1021.57 419.092 1024.04 416.399C1025.9 414.292 1027.17 413.059 1027.17 413.059L1026.37 413.98L1024.18 416.462C1021.76 419.179 1019.62 422.134 1017.79 425.282C1015.98 428.453 1014.88 431.979 1014.56 435.617C1014.46 436.718 1014.46 437.826 1014.56 438.927C1014.56 439.317 1014.65 439.613 1014.67 439.816L1014.76 440.129Z" fill="white"/>
<path d="M1042.26 424.392C1042.09 424.004 1041.94 423.602 1041.84 423.19C1041.33 421.196 1041.3 419.113 1041.73 417.102C1041.81 416.69 1041.94 416.288 1042.1 415.9C1042.1 415.9 1041.99 416.368 1041.84 417.133C1041.46 419.129 1041.51 421.181 1041.96 423.159C1042.13 423.924 1042.28 424.377 1042.26 424.392Z" fill="white"/>
<path d="M1047.07 443.391C1046.19 442.835 1045.35 442.208 1044.57 441.518C1040.71 438.212 1037.97 433.779 1036.76 428.842C1036.5 427.817 1036.33 426.773 1036.24 425.719C1036.24 425.719 1036.24 426.016 1036.4 426.547C1036.56 427.078 1036.64 427.843 1036.87 428.764C1038.14 433.647 1040.83 438.044 1044.6 441.393C1045.17 441.902 1045.76 442.381 1046.37 442.829C1046.84 443.22 1047.07 443.391 1047.07 443.391Z" fill="white"/>
<path d="M1068.15 421.817C1068.15 421.817 1067.35 421.458 1066.12 420.739C1064.53 419.807 1063 418.764 1061.56 417.617C1060.11 416.469 1058.74 415.223 1057.46 413.886C1056.49 412.856 1055.9 412.153 1055.9 412.153L1056.34 412.59L1057.49 413.808C1058.78 415.116 1060.15 416.346 1061.59 417.492C1063.04 418.616 1064.55 419.659 1066.12 420.615L1067.57 421.473L1068.15 421.817Z" fill="white"/>
<path d="M1083.13 419.74C1083.13 419.74 1083.13 419.522 1083.13 419.131C1083.13 418.741 1083.13 418.007 1083.05 417.445C1083.05 416.025 1082.84 414.073 1082.55 411.935C1082.27 409.796 1081.88 407.86 1081.57 406.486L1081.19 404.847C1081.1 404.457 1081.07 404.238 1081.07 404.238C1081.07 404.238 1081.07 404.441 1081.26 404.831C1081.44 405.222 1081.52 405.768 1081.69 406.393C1082.02 407.766 1082.41 409.702 1082.71 411.857C1082.96 413.69 1083.11 415.534 1083.16 417.383C1083.16 418.085 1083.16 418.663 1083.16 419.069C1083.16 419.475 1083.13 419.74 1083.13 419.74Z" fill="white"/>
<path d="M1102.58 409.047C1102.61 409.217 1102.61 409.391 1102.58 409.562C1102.58 410.046 1102.49 410.498 1102.46 410.935C1102.32 412.106 1102.08 413.714 1101.72 415.463C1101.37 417.211 1100.94 418.788 1100.6 419.912C1100.46 420.333 1100.32 420.771 1100.18 421.239C1100.04 421.707 1099.99 421.707 1099.99 421.707C1100.01 421.537 1100.06 421.369 1100.12 421.208C1100.24 420.755 1100.37 420.302 1100.49 419.881C1100.8 418.757 1101.21 417.18 1101.57 415.432C1101.93 413.683 1102.18 412.091 1102.35 410.92C1102.35 410.483 1102.46 410.03 1102.52 409.546L1102.58 409.047Z" fill="white"/>
<path d="M1115.83 421.957C1115.93 421.1 1116.08 420.25 1116.29 419.412C1116.43 418.561 1116.63 417.72 1116.9 416.899C1116.79 417.755 1116.64 418.604 1116.44 419.444C1116.29 420.294 1116.09 421.133 1115.83 421.957Z" fill="white"/>
<path d="M1137.74 429.216C1137.74 429.216 1137.74 428.826 1137.86 428.17C1137.99 427.515 1137.99 426.609 1138 425.61C1138 424.923 1138 424.174 1138 423.05V422.269C1137.99 422.176 1137.99 422.081 1138 421.988C1138.06 422.339 1138.09 422.694 1138.1 423.05C1138.1 423.706 1138.1 424.611 1138.1 425.626C1138.08 426.483 1138.01 427.338 1137.89 428.186C1137.88 428.534 1137.82 428.879 1137.74 429.216Z" fill="white"/>
<path d="M1141.94 434.306C1140.25 427.515 1133.27 423.144 1126.32 422.051C1119.36 420.958 1112.35 422.379 1105.4 423.268C1098.44 424.158 1091.02 424.377 1084.79 421.145C1082.81 424.81 1081.81 428.925 1081.9 433.088H1085.55C1086.32 438.365 1091.15 442.455 1096.35 443.532C1101.55 444.609 1104.99 444.703 1109.86 442.58C1114.99 440.332 1121.63 436.944 1126.66 435.18C1131.69 433.416 1137.25 432.542 1142.28 434.196" fill="#534BAE"/>
<path d="M1088.43 422.769C1088.26 423.272 1088.05 423.763 1087.8 424.236C1087.31 425.39 1086.88 426.573 1086.54 427.78C1086.18 429.007 1085.93 430.26 1085.77 431.527C1085.75 432.051 1085.69 432.572 1085.6 433.088C1085.53 432.57 1085.53 432.045 1085.6 431.527C1085.68 430.236 1085.91 428.958 1086.27 427.718C1086.62 426.474 1087.08 425.266 1087.66 424.111C1087.86 423.631 1088.11 423.179 1088.43 422.769Z" fill="#000051"/>
<path d="M1085.85 430.122C1085.21 430.131 1084.56 430.073 1083.93 429.95C1083.28 429.929 1082.63 429.846 1081.99 429.7C1082.64 429.552 1083.31 429.552 1083.96 429.7C1084.61 429.701 1085.26 429.845 1085.85 430.122Z" fill="#000051"/>
<path d="M1086.63 425.907C1086.63 425.907 1085.91 425.47 1084.96 425.126C1084.01 424.783 1083.18 424.767 1083.18 424.673C1083.81 424.56 1084.46 424.614 1085.07 424.831C1085.68 425.047 1086.21 425.418 1086.63 425.907Z" fill="#000051"/>
<path d="M1093.9 423.674H1094.99C1095.69 423.674 1096.74 423.674 1098.11 423.674C1101.94 423.634 1105.76 423.242 1109.52 422.503C1115.18 421.325 1121 421.166 1126.71 422.035C1130.11 422.579 1133.34 423.875 1136.17 425.829C1139.24 427.992 1141.52 431.086 1142.67 434.649L1142.77 434.992L1142.44 434.836C1140.97 434.122 1139.38 433.688 1137.75 433.556C1133.79 433.468 1129.85 434.174 1126.16 435.633C1122.66 436.831 1119.24 438.222 1115.89 439.801C1114.33 440.55 1112.77 441.362 1111.21 441.955C1109.73 442.644 1108.19 443.203 1106.61 443.626C1103.75 444.3 1100.78 444.417 1097.86 443.969C1095.46 443.628 1093.16 442.759 1091.13 441.424C1089.61 440.39 1088.33 439.05 1087.37 437.49C1086.76 436.517 1086.3 435.467 1085.98 434.368C1085.77 433.603 1085.71 433.197 1085.71 433.197C1086.08 434.699 1086.67 436.136 1087.47 437.459C1088.45 438.988 1089.73 440.296 1091.24 441.299C1093.25 442.613 1095.53 443.461 1097.91 443.782C1100.79 444.205 1103.72 444.073 1106.55 443.391C1108.12 442.978 1109.64 442.418 1111.1 441.721C1112.66 441.05 1114.22 440.316 1115.79 439.567C1119.14 437.97 1122.57 436.562 1126.08 435.352C1129.81 433.89 1133.79 433.179 1137.8 433.26C1139.48 433.396 1141.12 433.84 1142.64 434.571L1142.42 434.758C1141.29 431.264 1139.05 428.231 1136.05 426.11C1133.24 424.177 1130.04 422.892 1126.68 422.347C1121.01 421.482 1115.24 421.62 1109.63 422.753C1105.86 423.482 1102.03 423.837 1098.19 423.815C1095.38 423.784 1093.9 423.674 1093.9 423.674Z" fill="#1A237E"/>
<path d="M1093.65 442.673C1093.54 442.441 1093.45 442.201 1093.38 441.955C1093.17 441.299 1092.99 440.632 1092.85 439.957C1091.92 435.453 1092.25 430.782 1093.8 426.453C1094.03 425.804 1094.3 425.169 1094.6 424.549C1094.7 424.31 1094.82 424.085 1094.97 423.877C1094.97 423.877 1094.55 424.892 1094.02 426.531C1093.32 428.681 1092.88 430.909 1092.71 433.166C1092.56 435.421 1092.69 437.685 1093.08 439.91C1093.38 441.627 1093.71 442.658 1093.65 442.673Z" fill="white"/>
<path d="M1107.18 433.478C1107.3 433.907 1107.38 434.346 1107.43 434.79C1107.55 435.601 1107.79 436.71 1108.1 437.912C1108.74 440.332 1109.36 442.283 1109.27 442.314C1109.05 441.927 1108.87 441.513 1108.76 441.081C1108.47 440.3 1108.1 439.223 1107.79 437.959C1107.51 436.935 1107.31 435.891 1107.19 434.836C1107.11 434.388 1107.11 433.929 1107.18 433.478Z" fill="white"/>
<path d="M1105.29 428.186C1105.39 429.03 1105.45 429.88 1105.46 430.731C1105.57 432.12 1105.8 433.228 1105.71 433.26C1105.1 431.64 1104.96 429.884 1105.29 428.186Z" fill="white"/>
<path d="M1108.6 422.738C1108.69 422.738 1108.27 423.784 1108.04 425.079C1107.8 426.375 1107.82 427.468 1107.72 427.468C1107.52 426.664 1107.52 425.821 1107.72 425.017C1107.82 424.195 1108.12 423.411 1108.6 422.738Z" fill="white"/>
<path d="M1119.35 425.766C1118.88 425.239 1118.54 424.605 1118.38 423.919C1118.21 423.232 1118.22 422.516 1118.4 421.832C1118.5 421.832 1118.4 422.769 1118.69 423.846C1118.99 424.923 1119.47 425.719 1119.35 425.766Z" fill="white"/>
<path d="M1127.78 434.54C1127.44 434.165 1127.14 433.751 1126.89 433.306C1126.24 432.268 1125.67 431.177 1125.19 430.044C1124.71 428.915 1124.31 427.751 1124 426.562C1123.85 426.054 1123.77 425.53 1123.74 425.001C1123.94 425.465 1124.1 425.946 1124.22 426.437C1124.5 427.327 1124.93 428.545 1125.49 429.856C1126.05 431.168 1126.63 432.307 1127.05 433.135C1127.34 433.576 1127.59 434.047 1127.78 434.54Z" fill="white"/>
<path d="M1130.13 423.206C1130.13 423.284 1129.91 423.549 1129.64 423.908C1129.38 424.268 1129.22 424.595 1129.13 424.564C1129.04 424.533 1129.13 424.127 1129.38 423.706C1129.63 423.284 1130.08 423.097 1130.13 423.206Z" fill="white"/>
<path d="M1142.49 434.836C1142.33 434.715 1142.18 434.585 1142.03 434.446C1140.01 432.657 1137.46 431.562 1134.77 431.324C1131.66 430.986 1128.52 431.327 1125.55 432.323C1121.94 433.582 1118.39 435.041 1114.94 436.694C1111.5 438.339 1107.8 439.395 1104.01 439.816C1100.86 440.101 1097.68 439.826 1094.63 439.005C1092.59 438.469 1090.61 437.688 1088.76 436.679C1088.1 436.319 1087.62 436.007 1087.29 435.789L1086.79 435.461L1087.3 435.773C1087.63 435.976 1088.13 436.273 1088.79 436.616C1093.43 439.092 1098.7 440.176 1103.94 439.738C1107.74 439.31 1111.43 438.255 1114.88 436.616C1118.33 434.954 1121.88 433.494 1125.5 432.245C1128.49 431.246 1131.66 430.91 1134.78 431.261C1136.89 431.534 1138.92 432.27 1140.71 433.416C1141.35 433.818 1141.95 434.295 1142.49 434.836Z" fill="white"/>
<path d="M1116.43 427.483C1116.43 427.483 1116.04 427.671 1115.32 427.967C1114.6 428.264 1113.57 428.67 1112.19 429.123C1108.77 430.307 1105.16 430.903 1101.54 430.887C1097.92 430.783 1094.33 430.179 1090.88 429.091C1088.23 428.326 1086.6 427.749 1086.6 427.749L1087.77 428.077L1090.9 428.982C1094.35 430.033 1097.92 430.621 1101.52 430.731C1105.13 430.743 1108.72 430.163 1112.15 429.013C1113.46 428.576 1114.5 428.202 1115.27 427.905L1116.43 427.483Z" fill="white"/>
<path d="M1132.29 425.829L1131.89 425.579C1131.54 425.336 1131.17 425.117 1130.79 424.923C1129.38 424.177 1127.88 423.65 1126.32 423.362C1124.02 422.947 1121.67 422.857 1119.35 423.097C1116.71 423.346 1113.85 423.94 1110.83 424.502C1105.69 425.53 1100.4 425.677 1095.21 424.939C1091.21 424.377 1088.8 423.768 1088.8 423.768L1090.52 424.08C1091.62 424.283 1093.23 424.564 1095.21 424.814C1100.41 425.536 1105.69 425.377 1110.83 424.346C1113.85 423.784 1116.72 423.19 1119.38 422.941C1121.73 422.68 1124.1 422.769 1126.43 423.206C1127.99 423.482 1129.5 424.009 1130.89 424.767C1131.39 425.083 1131.85 425.438 1132.29 425.829Z" fill="white"/>
<path d="M1142.13 434.025C1140.88 432.301 1139.44 430.729 1137.83 429.341C1136.05 427.891 1134.01 426.799 1131.82 426.125C1129.13 425.306 1126.29 425.124 1123.52 425.595C1120.75 426.147 1118.1 427.206 1115.71 428.717C1113.46 430.028 1111.43 431.308 1109.6 432.167C1108.18 432.903 1106.66 433.429 1105.08 433.728C1104.66 433.805 1104.23 433.847 1103.8 433.853C1103.51 433.853 1103.35 433.853 1103.35 433.853C1105.44 433.432 1107.46 432.722 1109.35 431.745C1111.1 430.84 1113.07 429.529 1115.33 428.17C1117.77 426.572 1120.49 425.458 1123.35 424.892C1125.97 424.431 1128.66 424.559 1131.22 425.267C1133.79 425.974 1136.16 427.243 1138.18 428.982C1139.37 430.034 1140.42 431.242 1141.3 432.573C1141.64 433.014 1141.92 433.503 1142.13 434.025Z" fill="#000051"/>
<path d="M1120.43 426.063C1117.41 427.364 1114.18 428.084 1110.9 428.186C1107.63 428.558 1104.33 428.303 1101.16 427.437C1101.16 427.203 1105.52 427.765 1110.83 427.437C1116.15 427.109 1120.36 425.829 1120.43 426.063Z" fill="#000051"/>
<path d="M1112.69 421.27L1110.94 420.521C1109.77 420.037 1108.07 419.334 1105.83 418.523C1099.53 416.151 1092.9 414.776 1086.18 414.448C1081.54 414.29 1076.92 414.892 1072.48 416.228C1067.35 417.737 1062.67 420.475 1058.84 424.205C1054.77 428.092 1051.37 433.01 1046.7 437.022C1044.33 439.09 1041.52 440.581 1038.48 441.378C1035.31 442.058 1032.02 441.864 1028.95 440.816C1025.89 439.782 1023.05 438.194 1020.57 436.132C1018.18 434.119 1016.03 431.841 1014.15 429.341C1010.4 424.486 1007.42 419.366 1004 414.885C1000.84 410.599 997.212 406.677 993.185 403.192C989.668 400.156 985.692 397.695 981.405 395.902C975.183 393.246 968.296 392.559 961.672 393.935C959.889 394.335 958.151 394.916 956.485 395.668L954.766 396.526L956.469 395.636C958.133 394.871 959.871 394.28 961.656 393.872C968.296 392.477 975.204 393.147 981.452 395.793C985.754 397.582 989.742 400.048 993.263 403.099C997.344 406.572 1001.01 410.5 1004.2 414.807C1007.62 419.272 1010.61 424.408 1014.36 429.248C1016.23 431.733 1018.37 434.001 1020.75 436.007C1023.21 438.073 1026.04 439.661 1029.09 440.691C1032.11 441.719 1035.35 441.914 1038.46 441.253C1041.48 440.461 1044.26 438.98 1046.6 436.928C1051.29 432.947 1054.67 428.03 1058.76 424.127C1062.6 420.385 1067.3 417.641 1072.45 416.134C1076.91 414.791 1081.57 414.195 1086.23 414.37C1092.94 414.686 1099.56 416.051 1105.85 418.413C1110.32 420.115 1112.69 421.27 1112.69 421.27Z" fill="white"/>
<path d="M1036.03 425.829C1035.2 425.901 1034.37 425.869 1033.56 425.735C1031.31 425.356 1029.17 424.481 1027.31 423.175C1024.6 421.205 1022.25 418.774 1020.39 415.994C1018.14 412.593 1015.72 409.31 1013.14 406.158C1008.27 400.558 1002.41 395.901 995.857 392.42C993.867 391.375 991.823 390.437 989.732 389.61L987.482 388.752C987.482 388.752 988.326 389.017 989.826 389.564C991.924 390.372 993.974 391.3 995.966 392.342C1002.56 395.796 1008.44 400.45 1013.32 406.065C1015.91 409.219 1018.33 412.507 1020.57 415.915C1022.42 418.689 1024.75 421.12 1027.43 423.097C1029.27 424.395 1031.36 425.28 1033.57 425.688C1034.17 425.779 1034.78 425.831 1035.39 425.844L1036.03 425.829Z" fill="white"/>
<path d="M1107.96 412.637C1107.79 412.557 1107.63 412.468 1107.47 412.372C1107.18 412.2 1106.72 411.919 1106.13 411.607C1104.46 410.675 1102.73 409.852 1100.96 409.14C1095.1 406.758 1088.8 405.629 1082.48 405.825C1076.16 406.022 1069.94 407.539 1064.24 410.28C1062.52 411.1 1060.85 412.028 1059.24 413.059C1058.66 413.418 1058.24 413.73 1057.93 413.917L1057.48 414.214C1057.48 414.214 1058.07 413.761 1059.2 413.012C1060.8 411.963 1062.47 411.019 1064.2 410.186C1069.9 407.401 1076.13 405.857 1082.48 405.658C1088.82 405.459 1095.14 406.609 1101.01 409.031C1102.78 409.751 1104.5 410.591 1106.16 411.544C1107.33 412.169 1107.96 412.637 1107.96 412.637Z" fill="white"/>
<path d="M1076.19 419.6C1076.19 419.6 1076.12 419.381 1076.01 418.975C1075.9 418.569 1075.71 418.007 1075.49 417.305C1074.88 415.479 1074.14 413.695 1073.29 411.966C1072.42 410.243 1071.44 408.584 1070.34 407.001C1069.91 406.393 1069.57 405.909 1069.32 405.581C1069.07 405.253 1068.95 405.066 1068.95 405.066C1069.48 405.661 1069.97 406.286 1070.43 406.939C1072.69 410.087 1074.44 413.576 1075.6 417.274C1075.84 418.037 1076.04 418.814 1076.19 419.6Z" fill="white"/>
<path d="M1092.79 405.097C1092.79 405.097 1092.88 405.955 1092.91 407.376C1092.93 409.21 1092.8 411.041 1092.54 412.856C1092.28 414.673 1091.88 416.468 1091.35 418.226C1090.93 419.569 1090.58 420.365 1090.58 420.365C1090.58 420.365 1090.58 420.162 1090.76 419.787C1090.93 419.412 1091.08 418.71 1091.24 418.226C1091.73 416.461 1092.11 414.667 1092.38 412.856C1092.64 411.051 1092.77 409.231 1092.79 407.407C1092.79 406.845 1092.79 406.299 1092.79 405.737C1092.79 405.175 1092.79 405.097 1092.79 405.097Z" fill="white"/>
<path d="M1056.85 431.574C1056.22 431.222 1055.61 430.837 1055.02 430.418C1053.6 429.408 1052.27 428.28 1051.04 427.046C1049.79 425.83 1048.65 424.509 1047.63 423.097C1047.22 422.503 1046.83 421.888 1046.48 421.255C1046.48 421.255 1046.62 421.426 1046.82 421.739C1047.03 422.051 1047.34 422.488 1047.73 423.034C1048.74 424.436 1049.87 425.757 1051.09 426.984C1052.31 428.216 1053.63 429.354 1055.02 430.387L1056.32 431.293L1056.85 431.574Z" fill="white"/>
<path d="M1032.68 426.719C1032.52 426.207 1032.4 425.686 1032.31 425.157C1032.09 423.832 1032.02 422.486 1032.1 421.145C1032.18 419.802 1032.41 418.472 1032.79 417.18C1032.95 416.646 1033.14 416.125 1033.37 415.619C1033.34 415.767 1033.29 415.913 1033.25 416.056C1033.15 416.321 1033.04 416.712 1032.9 417.211C1032.56 418.504 1032.34 419.826 1032.26 421.161C1032.18 422.49 1032.24 423.823 1032.42 425.142C1032.5 425.657 1032.56 426.063 1032.62 426.344C1032.65 426.467 1032.67 426.592 1032.68 426.719Z" fill="white"/>
<path d="M1032.6 446.951C1032.17 446.129 1031.79 445.285 1031.45 444.422C1030.62 442.331 1029.98 440.174 1029.53 437.974C1029.08 435.774 1028.84 433.537 1028.81 431.293C1028.79 430.365 1028.82 429.438 1028.9 428.514V429.341C1028.9 429.81 1028.9 430.512 1028.9 431.371C1028.99 433.605 1029.25 435.828 1029.68 438.021C1030.12 440.213 1030.74 442.364 1031.54 444.453C1031.85 445.249 1032.12 445.889 1032.31 446.326L1032.6 446.951Z" fill="white"/>
<path d="M1050.96 414.432C1051.04 414.843 1051.13 415.249 1051.24 415.65C1051.49 416.29 1051.87 416.727 1051.82 416.759C1051.48 416.484 1051.23 416.114 1051.1 415.697C1050.93 415.3 1050.88 414.858 1050.96 414.432Z" fill="white"/>
<path d="M1020.46 408.594L1019.45 409.156C1018.79 409.499 1017.89 410.03 1016.72 410.717C1010.76 414.328 1005.54 419.025 1001.33 424.564C1000.53 425.626 999.904 426.516 999.498 427.124C999.091 427.733 998.826 428.077 998.826 428.077C999.569 426.843 1000.38 425.65 1001.25 424.502C1005.41 418.898 1010.64 414.18 1016.65 410.623C1017.89 409.88 1019.16 409.203 1020.46 408.594Z" fill="white"/>
<path d="M1001.67 392.936L1000.7 393.17C1000.06 393.31 999.138 393.544 998.045 393.841C995.144 394.656 992.312 395.7 989.576 396.963C986.857 398.222 984.244 399.7 981.764 401.381C980.811 402.037 980.046 402.583 979.53 402.942L978.718 403.52C978.718 403.52 979.796 402.583 981.702 401.256C984.172 399.541 986.786 398.042 989.514 396.776C992.261 395.501 995.109 394.457 998.029 393.654C1000.25 393.154 1001.67 392.936 1001.67 392.936Z" fill="white"/>
<path d="M1129.18 420.443C1129.17 420.771 1129.11 421.096 1129.02 421.411C1128.97 421.734 1128.87 422.046 1128.71 422.332C1128.71 422.003 1128.76 421.676 1128.86 421.364C1128.91 421.041 1129.02 420.729 1129.18 420.443Z" fill="white"/>
<path d="M1200.12 419.74C1200.12 419.74 1207.19 421.208 1210.19 421.863C1211.17 422.082 1212.17 421.863 1213.15 422.098C1217.48 422.806 1221.9 422.726 1226.2 421.863C1229.18 420.771 1229.32 424.58 1226.09 426.219C1224.47 427.118 1222.71 427.735 1220.89 428.045L1228.7 434.29C1229.1 434.615 1229.37 435.076 1229.45 435.586L1231.43 449.324C1231.55 449.889 1231.46 450.478 1231.17 450.979C1230.88 451.479 1230.42 451.857 1229.87 452.04C1229.73 452.109 1229.58 452.15 1229.43 452.161C1229.28 452.172 1229.12 452.152 1228.98 452.102C1228.83 452.053 1228.7 451.975 1228.58 451.873C1228.47 451.771 1228.38 451.648 1228.31 451.509L1228.53 453.351C1228.64 453.985 1228.49 454.635 1228.12 455.159C1227.74 455.683 1227.18 456.038 1226.54 456.146C1225.91 456.253 1225.26 456.105 1224.73 455.733C1224.21 455.361 1223.85 454.797 1223.75 454.163C1223.74 454.122 1223.74 454.08 1223.75 454.038L1221.01 455.599C1221.01 455.599 1219.2 457.473 1217.25 454.866C1215.69 452.711 1210.79 444.156 1210.79 444.156C1210.79 444.156 1190.2 435.492 1190.48 432.026L1200.12 419.74Z" fill="#FFBE9D"/>
<path d="M1223.81 454.148C1223.53 453.056 1223.35 451.944 1223.25 450.822C1222.93 448.793 1222.34 445.936 1221.93 442.814C1221.65 441.253 1221.29 439.77 1220.95 438.536C1220.74 437.993 1220.35 437.54 1219.84 437.256L1218.4 436.351C1217.41 435.804 1216.49 435.144 1215.65 434.384C1216.76 434.732 1217.81 435.225 1218.78 435.851L1220.26 436.679C1220.92 437.01 1221.44 437.562 1221.73 438.24C1222.18 439.689 1222.54 441.164 1222.81 442.658C1223.23 445.78 1223.72 448.637 1223.9 450.729C1224.05 451.866 1224.02 453.019 1223.81 454.148Z" fill="#FFA040"/>
<path d="M1228.37 451.494C1228.04 451.494 1227.53 446.561 1226.26 440.566C1226.11 439.195 1225.66 437.874 1224.95 436.694C1224.16 435.844 1223.32 435.051 1222.42 434.321C1221.82 433.82 1221.19 433.37 1220.51 432.979C1220.03 432.713 1219.73 432.651 1219.73 432.588C1219.73 432.526 1220.08 432.495 1220.64 432.682C1221.4 432.979 1222.11 433.378 1222.76 433.869C1223.75 434.556 1224.66 435.334 1225.5 436.195C1226.36 437.445 1226.89 438.887 1227.06 440.394C1227.62 442.967 1228.01 445.575 1228.23 448.2C1228.39 449.29 1228.44 450.394 1228.37 451.494Z" fill="#FFA040"/>
<path d="M1211.53 438.489C1212.48 438.776 1213.39 439.202 1214.22 439.754L1215.53 440.472C1216.12 440.723 1216.65 441.095 1217.09 441.565C1217.52 442.094 1217.82 442.713 1217.97 443.376C1218.15 444.016 1218.36 444.672 1218.58 445.327C1219.69 448.522 1220.56 451.8 1221.15 455.131C1219.78 452.046 1218.66 448.856 1217.79 445.593L1217.22 443.641C1217.1 443.076 1216.86 442.544 1216.51 442.08C1216.16 441.68 1215.74 441.351 1215.26 441.112L1214.01 440.3C1213.1 439.82 1212.27 439.21 1211.53 438.489Z" fill="#FFA040"/>
<path d="M1212.08 423.643C1212.17 423.331 1215.09 424.47 1218.33 426.359C1221.56 428.248 1224 430.215 1223.83 430.418C1223.65 430.621 1221.18 428.857 1217.92 427.062L1213.78 424.658C1213.18 424.385 1212.6 424.044 1212.08 423.643Z" fill="#FFA040"/>
</svg>
