<svg width="390" height="537" viewBox="0 0 390 537" fill="none" xmlns="http://www.w3.org/2000/svg">
<circle cx="90.9393" cy="212.769" r="4.36119" fill="#FF6F00"/>
<circle cx="157.837" cy="363.396" r="3.56295" fill="#FF6F00"/>
<ellipse cx="22.9743" cy="168.193" rx="6.68717" ry="6.97791" fill="#FF6F00"/>
<circle cx="7.53735" cy="291.482" r="2.90746" fill="#C43E00"/>
<circle cx="149.821" cy="363.396" r="1.78147" fill="#C43E00"/>
<circle cx="29.5705" cy="339.346" r="1.78147" fill="#C43E00"/>
<circle cx="30.6965" cy="349.38" r="2.90746" fill="#C43E00"/>
<circle cx="66.9817" cy="332.221" r="1.78147" fill="#C43E00"/>
<circle cx="89.4856" cy="201.518" r="2.90746" fill="#C43E00"/>
<circle cx="192.575" cy="162.09" r="1.78147" fill="#C43E00"/>
<circle cx="20.3567" cy="175.753" r="2.90746" fill="#C43E00"/>
<circle cx="57.2824" cy="151.621" r="12.5021" fill="#C43E00"/>
<path d="M390.768 393.814C387.763 392.748 370.822 386.061 327.094 367.845C283.366 349.628 257.315 362.123 240.184 395.139C238.208 398.946 220.142 440.121 176.496 367.845C160.684 341.66 163.846 445.904 133.741 411.617C101.674 375.097 102.12 428.542 70.0531 411.617C47.4855 399.707 47.3961 416.201 29.0791 427.651C3.39648 441.667 -52.3881 452.021 -70.0654 381.312" stroke="#FFD80D" stroke-width="4"/>
<path d="M389.895 395.611C386.891 394.545 369.95 387.859 326.222 369.642C282.494 351.425 256.443 363.92 239.312 396.936C237.336 400.744 219.27 441.918 175.624 369.642C159.812 343.458 162.974 447.702 132.869 413.415C100.802 376.895 101.248 430.339 69.181 413.415C46.6134 401.504 46.524 417.999 28.207 429.448C2.52441 443.464 -53.2601 453.819 -70.9375 383.109" stroke="#FFA040" stroke-width="2"/>
<path d="M-50.789 271.152C37.1386 303.751 33.7659 200.412 51.8599 182.674C79.5605 155.517 102.334 188.18 139.559 186.193C156.959 183.43 167.695 174.9 178.487 148.234C189.279 121.567 211.668 117.642 225.787 123.467C245.794 131.723 294.24 148.234 327.966 148.234C370.125 148.234 386.406 138.246 391.931 134.757" stroke="#FFD80D" stroke-width="4"/>
<path d="M167.184 536.861C134.04 515.067 120.477 495.464 107.685 476.235C98.6571 462.665 73.3886 451.193 40.5943 464.571C32.0628 468.048 11.9997 474.8 -0.000283979 474" stroke="#FFD80D" stroke-width="4"/>
<path d="M163.184 536.718C130.04 514.925 116.477 495.321 103.685 476.093C94.6571 462.523 69.3886 451.051 36.5943 464.429C28.0628 467.905 7.99972 474.658 -4.00028 473.858" stroke="#FFA040" stroke-width="2"/>
<path d="M-53.4931 272.457C34.4345 305.056 31.0618 201.717 49.1558 183.978C76.8564 156.822 99.6301 189.485 136.855 187.498C154.255 184.735 164.991 176.205 175.783 149.539C186.575 122.872 208.964 118.946 223.083 124.772C243.09 133.028 291.536 149.538 325.262 149.538C367.421 149.538 383.702 139.551 389.226 136.062" stroke="#FFA040" stroke-width="2"/>
<path d="M68.5 107C67 126.5 52 140.483 28.747 138.461C20.9996 137.788 11.3996 131.213 -1.00043 144.413" stroke="#FFD80D" stroke-width="4"/>
<path d="M66 107C63.5 130.5 43.524 136.589 26.7471 135.13C18.9996 134.456 9.39966 127.881 -3.00034 141.081" stroke="#FFA040" stroke-width="2"/>
<path d="M116.349 236.542C106.648 227.563 89.4498 228.611 80.9126 238.719C77.5524 242.702 75.2682 247.919 70.6469 250.334C63.5913 254.044 54.9836 249.364 47.0108 250.043C37.6622 250.836 29.9893 260.318 31.1358 269.615C31.6562 273.81 33.6494 278.277 31.6738 282.014C29.1603 286.781 21.8843 286.975 18.8239 291.408C16.0635 295.417 18.2154 301.33 22.2283 304.098C26.2411 306.865 31.4093 307.208 36.2776 306.988C41.1459 306.768 46.0848 306.107 50.8296 307.164C56.0595 308.345 60.531 311.57 65.5492 313.544C77.5172 318.338 91.5312 315.668 102.591 309.085C113.65 302.503 122.258 292.439 129.737 281.943" fill="#FF725E"/>
<g opacity="0.8">
<path d="M116.349 236.542C106.648 227.563 89.4498 228.611 80.9126 238.719C77.5524 242.702 75.2682 247.919 70.6469 250.334C63.5913 254.044 54.9836 249.364 47.0108 250.043C37.6622 250.836 29.9893 260.318 31.1358 269.615C31.6562 273.81 33.6494 278.278 31.6738 282.014C29.1603 286.781 21.8843 286.975 18.8239 291.408C16.0635 295.417 18.2154 301.331 22.2283 304.098C26.2411 306.865 31.4093 307.208 36.2776 306.988C41.1459 306.768 46.0848 306.107 50.8296 307.164C56.0595 308.345 60.531 311.57 65.5492 313.544C77.5172 318.338 91.5312 315.668 102.591 309.085C113.65 302.503 122.258 292.439 129.737 281.943" fill="white"/>
</g>
<path d="M113.995 248.774C106.057 241.037 91.426 242.121 84.7585 250.942C80.6928 256.326 78.3556 264.557 71.6617 265.456C67.1285 266.072 62.8423 262.662 58.265 263.015C52.1796 263.473 48.5019 270.884 50.0629 276.771C51.624 282.657 56.8098 286.896 62.2514 289.663C81.0985 299.224 106.216 294.166 119.895 278.057" fill="#1A237E"/>
<path d="M293.664 268.469L283.46 254.017L296.733 244.615L306.029 263.482L294.273 268.346" fill="#FFBE9D"/>
<path d="M305.473 260.9L312.696 273.915C312.696 273.915 328.36 270.954 329.93 273.228L305.182 288.121L293.1 268.302L305.473 260.9Z" fill="#FF6F00"/>
<g opacity="0.6">
<path d="M304.388 277.449C304.194 277.666 304.086 277.947 304.086 278.238C304.086 278.529 304.194 278.81 304.388 279.027C304.6 279.223 304.879 279.333 305.169 279.333C305.458 279.333 305.737 279.223 305.949 279.027C306.156 278.797 306.271 278.499 306.271 278.189C306.271 277.88 306.156 277.582 305.949 277.352C305.709 277.166 305.407 277.08 305.104 277.111C304.802 277.142 304.524 277.289 304.327 277.52" fill="white"/>
</g>
<g opacity="0.6">
<path d="M305.182 288.121L304.044 286.076L328.2 272.567C328.2 272.567 329.594 272.382 329.964 273.228L305.182 288.121Z" fill="white"/>
</g>
<path d="M313.022 273.545C313.084 273.669 312.52 274.092 312.14 274.832C311.761 275.572 311.761 276.277 311.629 276.304C311.497 276.33 311.241 275.51 311.699 274.62C312.158 273.73 312.978 273.422 313.022 273.545Z" fill="#000051"/>
<path d="M316.259 273.061C316.356 273.158 315.959 273.677 315.854 274.435C315.748 275.193 315.959 275.81 315.854 275.872C315.748 275.933 315.245 275.308 315.386 274.365C315.527 273.422 316.189 272.964 316.259 273.061Z" fill="#000051"/>
<path d="M319.611 275.281C319.514 275.369 318.984 274.867 318.896 274.021C318.808 273.175 319.214 272.567 319.32 272.638C319.425 272.708 319.32 273.272 319.381 273.968C319.443 274.664 319.716 275.193 319.611 275.281Z" fill="#000051"/>
<path d="M311.047 270.761C311.047 270.902 310.403 271.069 309.75 271.527C309.097 271.985 308.692 272.523 308.568 272.453C308.445 272.382 308.692 271.651 309.45 271.122C310.209 270.593 311.047 270.637 311.047 270.761Z" fill="#000051"/>
<path d="M309.538 268.161C309.538 268.214 309.133 268.575 308.295 268.901C307.506 269.21 306.663 269.357 305.817 269.333C305.632 269.345 305.447 269.324 305.27 269.271C305.138 269.235 305.022 269.155 304.942 269.045C304.862 268.934 304.822 268.8 304.829 268.663C304.838 268.542 304.875 268.425 304.938 268.321C305.001 268.216 305.087 268.129 305.191 268.064C305.346 267.967 305.515 267.896 305.693 267.853C305.981 267.76 306.276 267.692 306.575 267.65C307.107 267.587 307.646 267.608 308.171 267.712C309.053 267.897 309.538 268.231 309.512 268.284C309.486 268.337 308.974 268.143 308.119 268.055C307.625 268.005 307.127 268.02 306.637 268.099C306.337 268.143 306.042 268.214 305.755 268.311C305.446 268.399 305.226 268.531 305.226 268.69C305.226 268.848 305.226 268.769 305.34 268.813C305.475 268.83 305.611 268.83 305.746 268.813C306.046 268.813 306.346 268.813 306.628 268.813C307.129 268.768 307.624 268.68 308.11 268.549C308.577 268.39 309.055 268.26 309.538 268.161V268.161Z" fill="#000051"/>
<path d="M309.486 268.434C309.486 268.478 308.956 268.187 308.436 267.43C308.138 266.986 307.92 266.494 307.792 265.976C307.712 265.667 307.665 265.351 307.651 265.033C307.62 264.829 307.642 264.621 307.715 264.428C307.788 264.235 307.908 264.064 308.066 263.931C308.173 263.861 308.299 263.824 308.427 263.824C308.556 263.824 308.681 263.861 308.789 263.931C308.944 264.034 309.081 264.162 309.195 264.31C309.403 264.56 309.572 264.839 309.697 265.138C309.906 265.646 309.988 266.196 309.935 266.742C309.838 267.623 309.424 268.117 309.389 268.082C309.478 267.657 309.546 267.227 309.591 266.795C309.592 266.311 309.487 265.833 309.283 265.394C309.165 265.138 309.01 264.901 308.824 264.689C308.63 264.451 308.401 264.301 308.321 264.389C308.244 264.479 308.187 264.585 308.155 264.699C308.122 264.813 308.116 264.933 308.136 265.05C308.134 265.347 308.167 265.643 308.233 265.931C308.332 266.415 308.502 266.881 308.736 267.315C309.142 268.002 309.539 268.372 309.486 268.434Z" fill="#000051"/>
<path d="M255.873 217.102L287.57 266.874L304.9 255.101L275.708 195.133" fill="#000051"/>
<path d="M258.439 206.184C258.571 206.237 257.618 208.264 257.169 210.934C256.719 213.604 256.904 215.825 256.763 215.842C256.117 212.515 256.713 209.067 258.439 206.149V206.184Z" fill="#000051"/>
<path d="M255.184 206.325C255.317 206.325 255.184 208.51 255.546 211.154C255.907 213.798 256.569 215.86 256.428 215.904C255.056 212.91 254.619 209.571 255.175 206.325H255.184Z" fill="#000051"/>
<path d="M132.269 216.953L110.529 210.246C84.2999 243.619 86.055 280.287 128.274 301.991L151.724 275.748L132.269 216.953Z" fill="black" fill-opacity="0.87"/>
<path d="M134.394 211.63C120.477 219.746 113.554 236.833 115.247 253.577C117.108 271.924 129.244 289.813 151.486 294.757L301.002 264.892C307.173 263.658 313.02 261.158 318.173 257.548C323.326 253.938 327.672 249.299 330.936 243.923C334.201 238.547 336.312 232.552 337.136 226.318C337.96 220.084 337.479 213.747 335.724 207.709C332.465 196.495 325.006 186.967 314.898 181.106C304.79 175.246 292.81 173.503 281.449 176.24L134.394 211.63Z" fill="#1A237E"/>
<path d="M134.394 211.63L135.779 211.278L139.863 210.273L155.588 206.44L213.461 192.428L253.43 182.734L275.708 177.359L281.485 175.975L284.457 175.411C284.951 175.315 285.445 175.209 285.947 175.129L287.464 174.997C288.479 174.918 289.493 174.795 290.507 174.742H293.594C294.626 174.746 295.657 174.817 296.681 174.953L298.233 175.112L299.009 175.2L299.776 175.35L302.854 175.975C303.877 176.213 304.874 176.557 305.888 176.857C306.391 177.015 306.902 177.156 307.405 177.333L308.878 177.923L310.351 178.531C310.854 178.712 311.343 178.93 311.815 179.183L314.663 180.664C315.607 181.183 316.489 181.809 317.406 182.426C317.856 182.726 318.288 182.999 318.756 183.307L320.034 184.312L321.322 185.325L321.966 185.828L322.557 186.392C329.236 192.385 334.01 200.204 336.289 208.881C338.645 217.883 338.177 227.392 334.948 236.119C331.61 245.091 325.548 252.794 317.609 258.15C314.26 260.413 310.62 262.212 306.788 263.499C302.978 264.83 299.018 265.412 295.164 266.222L272.233 270.796L228.454 279.591L151.566 294.915H151.487C147.567 293.992 143.76 292.642 140.136 290.888C133.44 287.526 127.703 282.528 123.458 276.356C121.547 273.535 119.922 270.53 118.608 267.385C118.29 266.628 118.043 265.843 117.726 265.085C117.431 264.34 117.181 263.578 116.976 262.803C116.756 262.036 116.544 261.279 116.332 260.521L115.856 258.256C115.681 257.515 115.549 256.765 115.459 256.009C115.362 255.269 115.256 254.528 115.159 253.797C115.062 253.065 115.053 252.334 115.001 251.611C114.948 250.889 114.904 250.175 114.912 249.47C114.801 244.293 115.534 239.132 117.082 234.19C118.305 230.23 120.087 226.464 122.374 223.007C124.049 220.463 126.04 218.141 128.3 216.098C128.759 215.692 129.182 215.278 129.597 214.943L130.814 214.018L131.837 213.234L132.719 212.661L134.35 211.639L132.745 212.705L131.863 213.287L130.84 214.08L129.676 215.005C129.262 215.349 128.847 215.754 128.388 216.168C126.15 218.218 124.179 220.542 122.524 223.086C120.252 226.536 118.485 230.293 117.276 234.242C115.753 239.168 115.035 244.307 115.151 249.461C115.151 250.166 115.151 250.88 115.239 251.594C115.327 252.308 115.327 253.039 115.415 253.77C115.503 254.502 115.609 255.233 115.715 255.974C115.805 256.724 115.938 257.468 116.112 258.203C116.271 258.943 116.429 259.701 116.588 260.459C116.747 261.217 117.02 261.957 117.232 262.724C117.441 263.495 117.691 264.254 117.982 264.997C118.264 265.746 118.511 266.522 118.863 267.271C120.173 270.394 121.792 273.379 123.697 276.18C125.781 279.111 128.176 281.809 130.84 284.226C133.724 286.702 136.885 288.837 140.259 290.588C143.858 292.327 147.638 293.663 151.531 294.571H151.46L228.321 279.132L272.136 270.373L295.067 265.79C298.93 264.971 302.881 264.398 306.629 263.076C310.422 261.808 314.024 260.029 317.336 257.789C325.201 252.48 331.206 244.844 334.507 235.952C337.706 227.312 338.171 217.899 335.839 208.986C333.588 200.394 328.866 192.649 322.257 186.709L321.666 186.154L321.057 185.722L319.787 184.726L318.517 183.73C318.094 183.404 317.636 183.14 317.177 182.849C316.295 182.285 315.413 181.659 314.469 181.148L311.647 179.677C311.177 179.434 310.694 179.216 310.201 179.024L308.737 178.434L307.273 177.835C306.779 177.667 306.276 177.526 305.773 177.377C304.768 177.086 303.78 176.733 302.766 176.495L299.723 175.878L298.965 175.72L298.189 175.641L296.654 175.482C295.64 175.343 294.618 175.269 293.594 175.262H290.542C289.528 175.315 288.523 175.438 287.526 175.517L286.018 175.649C285.524 175.72 285.03 175.826 284.536 175.923L281.599 176.478L275.796 177.791L253.527 183.14L213.549 192.772L155.649 206.607L139.898 210.396L135.797 211.366L134.394 211.63Z" fill="#000051"/>
<path d="M151.486 294.739L131.766 339.541C131.766 339.541 224.81 330.578 220.842 280.886L151.486 294.739Z" fill="#FFA040"/>
<path d="M204.809 194.675C204.809 194.675 160.068 151.301 103.218 169.569L134.412 211.63L204.809 194.675Z" fill="#FFA040"/>
<path d="M286.484 175.605C305.684 189.705 317.423 244.835 308.171 262.345C362.587 246.439 374 199.777 374 199.777C334.665 163.171 286.484 175.605 286.484 175.605Z" fill="#FFA040"/>
<path d="M123.502 274.25C123.59 274.33 120.601 277.907 116.817 282.234C113.033 286.561 109.885 289.998 109.761 289.91C109.638 289.822 112.654 286.253 116.447 281.926C120.239 277.599 123.414 274.162 123.502 274.25Z" fill="#000051"/>
<path d="M373.974 199.76C373.974 199.76 373.868 199.962 373.639 200.35L372.607 202.06L370.922 204.844C370.587 205.391 370.226 205.981 369.846 206.607L368.488 208.546C367.527 209.912 366.477 211.445 365.287 213.084L361.133 218.23C360.348 219.112 359.501 219.993 358.646 220.953C357.79 221.914 356.944 222.883 356 223.8C354.042 225.65 352.031 227.668 349.685 229.528C344.691 233.726 339.228 237.334 333.405 240.279C330.165 241.929 326.818 243.36 323.386 244.562C321.622 245.205 319.805 245.76 318.015 246.412C316.147 247.006 314.248 247.495 312.326 247.875C296.91 251.285 279.915 254.775 262.055 258.45C226.363 265.817 194.04 272.391 170.633 277.114L142.905 282.71L135.365 284.199L133.398 284.569C132.957 284.658 132.728 284.684 132.728 284.684L133.389 284.525L135.347 284.102L142.87 282.534L170.563 276.823L261.967 258.027C279.8 254.326 296.804 250.845 312.238 247.452C314.138 247.077 316.016 246.601 317.865 246.024C319.69 245.355 321.498 244.817 323.253 244.174C326.671 242.983 330.007 241.567 333.237 239.935C339.043 237.013 344.497 233.439 349.491 229.281C351.828 227.43 353.848 225.43 355.797 223.588C356.785 222.707 357.623 221.676 358.496 220.768C359.369 219.861 360.207 218.953 360.992 218.063L365.163 212.952C366.363 211.322 367.421 209.797 368.4 208.449L369.767 206.519L370.861 204.756L372.58 201.998C373.048 201.267 373.401 200.703 373.648 200.306C373.895 199.91 373.974 199.76 373.974 199.76Z" fill="#000051"/>
<path d="M232.387 278.639C232.387 278.639 232.325 278.586 232.228 278.463L231.796 277.916L230.182 275.801L229.018 274.259C228.612 273.686 228.207 273.034 227.748 272.347C226.866 270.972 225.755 269.439 224.758 267.623L223.127 264.803C222.562 263.825 222.068 262.75 221.513 261.666C220.357 259.516 219.361 257.11 218.258 254.616C213.715 243.585 211.102 231.856 210.532 219.94C210.462 217.199 210.338 214.6 210.471 212.159C210.524 210.943 210.471 209.762 210.603 208.634C210.735 207.506 210.797 206.422 210.885 205.391C211.017 203.32 211.361 201.469 211.582 199.839C211.714 199.028 211.802 198.271 211.935 197.574C212.067 196.878 212.208 196.261 212.332 195.689C212.57 194.578 212.755 193.715 212.896 193.045C212.958 192.772 213.011 192.551 213.055 192.366C213.099 192.181 213.116 192.137 213.125 192.146C213.131 192.225 213.131 192.305 213.125 192.384C213.125 192.56 213.055 192.789 213.011 193.063L212.534 195.706C212.429 196.279 212.305 196.905 212.173 197.592C212.041 198.279 211.979 199.046 211.864 199.866C211.67 201.496 211.353 203.338 211.238 205.4C211.159 206.431 211.07 207.515 210.991 208.634C210.912 209.753 210.92 210.934 210.885 212.159C210.771 214.591 210.885 217.182 210.982 219.914C211.578 231.777 214.169 243.455 218.646 254.458C219.731 256.961 220.71 259.366 221.848 261.508C222.403 262.592 222.888 263.658 223.435 264.645L225.04 267.465C226.01 269.289 227.086 270.831 227.96 272.215C228.409 272.911 228.841 273.563 229.203 274.145C229.565 274.726 229.988 275.228 230.323 275.704C230.985 276.586 231.496 277.352 231.875 277.872L232.263 278.445C232.312 278.505 232.353 278.57 232.387 278.639Z" fill="#000051"/>
<path d="M190.388 232.427L96.6111 251.814C96.6111 251.814 96.1966 260.97 98.4984 261.041C100.421 261.102 170.139 248.536 192.752 244.447C193.621 244.29 194.445 243.947 195.168 243.441C195.891 242.934 196.496 242.277 196.941 241.515C197.385 240.753 197.658 239.903 197.742 239.025C197.826 238.146 197.718 237.26 197.426 236.428V236.428C196.932 235.026 195.948 233.849 194.655 233.114C193.362 232.378 191.847 232.135 190.388 232.427V232.427Z" fill="#FFA040"/>
<path d="M284.613 223.775C284.629 212.28 274.609 202.947 262.232 202.929C249.855 202.912 239.809 212.217 239.793 223.713C239.777 235.208 249.797 244.542 262.174 244.559C274.551 244.576 284.597 235.271 284.613 223.775Z" fill="white"/>
<path d="M284.623 223.782C284.614 223.665 284.614 223.547 284.623 223.43C284.623 223.174 284.571 222.839 284.544 222.407C284.544 222.178 284.544 221.932 284.491 221.65C284.438 221.368 284.394 221.077 284.332 220.768C284.271 220.46 284.218 220.099 284.156 219.729C284.094 219.358 283.944 218.971 283.83 218.556C283.571 217.654 283.25 216.771 282.868 215.913C281.231 212.38 278.661 209.361 275.434 207.18C272.675 205.301 269.538 204.05 266.244 203.514C265.345 203.362 264.438 203.267 263.527 203.232C263.06 203.232 262.593 203.17 262.125 203.179L260.705 203.25H259.991L259.268 203.346L257.821 203.558L256.384 203.902L255.652 204.069L254.946 204.316C250.909 205.598 247.326 208.015 244.627 211.278C241.698 214.768 240.093 219.178 240.093 223.734C240.093 228.289 241.698 232.699 244.627 236.19C247.316 239.458 250.889 241.884 254.92 243.178L255.634 243.425L256.366 243.601L257.804 243.945L259.25 244.156L259.964 244.262H260.688L262.107 244.332C262.575 244.332 263.042 244.332 263.501 244.288C264.412 244.254 265.319 244.16 266.217 244.006C269.492 243.478 272.609 242.232 275.345 240.358C279.449 237.716 282.449 233.672 283.786 228.981C283.891 228.567 284.024 228.188 284.103 227.818C284.182 227.448 284.235 227.096 284.288 226.77C284.341 226.443 284.403 226.153 284.447 225.888C284.491 225.624 284.447 225.36 284.5 225.139C284.535 224.705 284.562 224.361 284.579 224.108C284.586 223.993 284.601 223.878 284.623 223.765C284.633 223.882 284.633 224 284.623 224.117V225.139C284.623 225.368 284.623 225.624 284.623 225.906C284.623 226.188 284.535 226.488 284.482 226.787C284.429 227.087 284.376 227.466 284.324 227.845C284.271 228.224 284.121 228.603 284.015 229.026C283.767 229.949 283.451 230.853 283.071 231.731C282.602 232.772 282.051 233.774 281.422 234.727C279.877 237.049 277.897 239.051 275.592 240.622C272.8 242.544 269.617 243.823 266.27 244.368C265.357 244.523 264.435 244.621 263.51 244.659C263.042 244.659 262.566 244.72 262.09 244.711L260.652 244.65H259.92L259.188 244.544L257.715 244.332L256.251 243.989L255.511 243.813L254.787 243.566C250.668 242.256 247.015 239.787 244.266 236.454C241.264 232.887 239.618 228.376 239.618 223.716C239.618 219.056 241.264 214.545 244.266 210.978C247.043 207.661 250.717 205.214 254.849 203.928L255.572 203.69L256.313 203.514L257.786 203.17L259.259 202.959L259.982 202.862H260.714L262.16 202.8C262.637 202.8 263.113 202.844 263.58 202.862C264.506 202.898 265.429 202.998 266.341 203.161C269.654 203.704 272.807 204.971 275.575 206.871C277.877 208.447 279.852 210.455 281.387 212.784C282.569 214.526 283.443 216.458 283.971 218.495C284.077 218.909 284.191 219.297 284.271 219.676C284.35 220.055 284.385 220.407 284.429 220.733C284.474 221.059 284.526 221.359 284.571 221.614C284.615 221.87 284.571 222.143 284.571 222.372C284.571 222.813 284.571 223.148 284.571 223.403C284.599 223.528 284.617 223.655 284.623 223.782Z" fill="#000051"/>
<g opacity="0.8">
<path d="M85.1917 421.823C82.541 422.973 79.5207 422.832 76.6446 422.522C73.7686 422.212 70.8564 421.734 68.0164 422.283C63.6166 423.168 59.7398 426.389 55.2589 426.159C49.0469 425.84 45.3414 419.274 39.8507 416.425C33.1789 412.885 24.2261 415.097 18.8527 408.584C17.2565 406.645 16.282 404.285 16.0525 401.803C15.823 399.32 16.3488 396.827 17.5634 394.638C21.4673 387.726 30.4832 386.576 37.5156 389.063C43.5653 391.195 48.515 395.523 53.2303 399.806C54.8352 401.266 56.44 402.735 58.0989 404.142C60.7501 406.383 63.8381 408.072 67.1752 409.105C70.5123 410.138 74.0286 410.494 77.5102 410.151C80.8793 409.809 84.2525 410.76 86.9228 412.805C87.6405 413.365 88.2046 414.092 88.5637 414.92V414.92C88.9398 415.717 89.1041 416.593 89.0415 417.469C88.8251 419.637 87.3375 420.894 85.1917 421.823Z" fill="#C43E00"/>
</g>
<g opacity="0.8">
<path d="M191.829 399.339C191.569 401.3 193.745 402.414 195.574 402.251C197.404 402.088 199.266 400.977 201.063 399.949C202.859 398.921 204.79 397.923 206.562 398.008C208.45 398.097 209.756 399.404 211.34 400.162C212.924 400.92 215.356 400.872 216.814 399.034C217.24 398.503 217.568 397.906 217.772 397.291C217.975 396.675 218.048 396.058 217.986 395.49C217.819 394.429 217.456 393.468 216.915 392.654C215.477 390.563 213.58 388.915 211.326 387.798C209.856 387.12 208.151 386.872 206.344 387.075C204.536 387.278 202.673 387.926 200.899 388.969C197.367 391.079 191.904 395.084 191.869 399.358" fill="#C43E00"/>
</g>
<path d="M186.27 170.203C179.065 169.851 175.51 175.279 171.48 176.372C167.449 177.465 163.049 177.659 159.177 176.09C154.15 174.046 150.719 169.419 146.318 166.256C137.499 159.902 124.402 160.281 115.953 167.137C115.759 171.939 119.869 175.738 123.846 178.434C127.824 181.131 138.839 185.008 140.277 189.608C141.335 193.045 133.909 195.935 135.779 199.011C137.649 202.086 143.831 201.778 147.244 201.187C168.781 197.486 161.223 204.069 167.89 203.461C167.89 203.461 181.852 199.936 192.796 198.121" fill="#534BAE"/>
<path d="M258.862 296.907L251.868 280.666L266.799 274.206L271.994 294.58L259.497 296.907" fill="#FFBE9D"/>
<path d="M271.985 291.937L276.395 306.168C276.395 306.168 292.332 306.503 293.399 309.059L266.059 318.514L258.342 296.625L271.985 291.937Z" fill="#FF6F00"/>
<g opacity="0.6">
<path d="M267.505 307.904C267.271 308.076 267.107 308.329 267.047 308.613C266.987 308.898 267.034 309.195 267.179 309.447C267.34 309.687 267.587 309.857 267.869 309.921C268.151 309.985 268.447 309.938 268.696 309.79C268.945 309.609 269.118 309.342 269.182 309.041C269.246 308.74 269.195 308.426 269.04 308.16C268.847 307.924 268.569 307.773 268.266 307.739C267.963 307.704 267.659 307.789 267.417 307.975" fill="white"/>
</g>
<g opacity="0.6">
<path d="M266.059 318.514L265.371 316.276L291.829 308.045C291.829 308.045 293.232 308.151 293.39 309.059L266.059 318.514Z" fill="white"/>
</g>
<path d="M216.762 108.666L216.762 108.666C218.144 108.781 219.777 109.393 221.008 110.313C222.099 111.128 222.783 112.107 222.83 113.118L173.692 113.618C173.718 112.588 174.527 111.556 175.582 111.062C176.674 110.551 177.908 110.488 179.241 110.419C179.381 110.412 179.523 110.404 179.665 110.397C181.114 110.316 182.758 110.151 184.083 109.144C184.667 108.7 185.137 108.121 185.56 107.598C185.611 107.535 185.661 107.473 185.711 107.412C186.193 106.822 186.635 106.323 187.193 106.005L187.194 106.004C187.936 105.58 188.791 105.513 189.77 105.56C190.092 105.575 190.409 105.602 190.736 105.629C190.913 105.643 191.093 105.658 191.279 105.672C191.794 105.709 192.329 105.734 192.86 105.7L192.86 105.7C194.09 105.619 195.231 105.223 196.305 104.728C196.994 104.41 197.685 104.037 198.355 103.674C198.713 103.48 199.066 103.29 199.409 103.112C201.439 102.064 203.699 101.362 205.561 102.173L205.562 102.174C206.818 102.717 207.725 103.839 208.73 105.081L208.779 105.141C209.765 106.36 210.859 107.694 212.456 108.263C213.187 108.529 213.945 108.595 214.665 108.615C214.935 108.622 215.192 108.623 215.443 108.625C215.892 108.627 216.321 108.629 216.762 108.666Z" fill="white" stroke="#000051"/>
<path d="M135.503 81.1882L135.504 81.1884C137.382 81.8286 139.332 81.9961 141.262 82.045C141.963 82.0627 142.655 82.065 143.34 82.0674C144.567 82.0715 145.773 82.0756 146.983 82.1681C150.883 82.4791 155.444 84.1204 158.893 86.5861C162.215 88.9609 164.38 92.001 164.136 95.2565L29.7052 96.5484C29.51 94.9584 30.0069 93.381 30.9587 91.99C31.9931 90.4783 33.5484 89.2148 35.2549 88.4476C38.3842 87.0407 41.8866 86.8694 45.4567 86.6947C45.8379 86.6761 46.2198 86.6574 46.6022 86.6372C50.5222 86.4298 54.6938 85.9875 58.055 83.5695C59.5648 82.4835 60.775 81.0553 61.9352 79.6863C62.0631 79.5353 62.1905 79.385 62.3176 79.236C63.6147 77.7148 64.8922 76.3115 66.5524 75.3989C68.7766 74.1876 71.2923 74.0291 73.985 74.1526C74.8281 74.1912 75.6963 74.2588 76.5759 74.3273C78.4564 74.4736 80.3893 74.6241 82.2431 74.5048C85.4079 74.3059 88.375 73.327 91.227 72.0683C93.0624 71.2583 94.8787 70.3182 96.6702 69.391C97.6456 68.8861 98.6137 68.3851 99.5736 67.9108C105.077 65.1921 111.511 63.2012 116.935 65.4617L116.936 65.4622C120.523 66.9474 123.092 69.9862 125.75 73.1302C125.815 73.2075 125.88 73.2848 125.946 73.3621C128.638 76.5461 131.451 79.8016 135.503 81.1882Z" fill="white" stroke="#000051"/>
<path d="M276.757 305.878C276.757 306.01 276.149 306.301 275.646 306.953C275.143 307.605 274.976 308.292 274.834 308.283C274.693 308.275 274.632 307.402 275.258 306.653C275.884 305.904 276.739 305.745 276.757 305.878Z" fill="#000051"/>
<path d="M280.029 306.063C280.1 306.186 279.606 306.609 279.35 307.332C279.094 308.054 279.165 308.689 279.033 308.733C278.9 308.777 278.547 308.045 278.883 307.155C279.218 306.265 279.985 305.939 280.029 306.063Z" fill="#000051"/>
<path d="M282.843 308.927C282.728 308.997 282.314 308.398 282.402 307.543C282.49 306.688 283.019 306.195 283.107 306.283C283.196 306.371 282.957 306.9 282.896 307.596C282.834 308.292 282.975 308.865 282.843 308.927Z" fill="#000051"/>
<path d="M275.399 302.74C275.399 302.881 274.711 302.908 273.97 303.225C273.229 303.542 272.735 303.974 272.621 303.886C272.506 303.798 272.912 303.128 273.785 302.767C274.658 302.406 275.425 302.617 275.399 302.74Z" fill="#000051"/>
<path d="M274.464 299.885C274.058 300.166 273.581 300.328 273.088 300.352C272.566 300.433 272.036 300.454 271.509 300.414C271.198 300.384 270.888 300.334 270.583 300.264C270.398 300.236 270.219 300.177 270.054 300.088C269.934 300.024 269.838 299.921 269.783 299.797C269.727 299.673 269.714 299.533 269.745 299.401C269.782 299.284 269.845 299.178 269.929 299.089C270.013 299 270.116 298.932 270.231 298.89C270.402 298.832 270.58 298.797 270.76 298.784C271.077 298.757 271.395 298.757 271.712 298.784C272.247 298.831 272.771 298.962 273.264 299.171C274.146 299.542 274.49 299.965 274.455 300.009C274.42 300.053 273.952 299.762 273.141 299.498C272.67 299.345 272.18 299.256 271.686 299.233C271.392 299.211 271.097 299.211 270.804 299.233C270.486 299.233 270.239 299.339 270.213 299.489C270.186 299.639 270.213 299.568 270.301 299.639C270.421 299.697 270.549 299.738 270.68 299.762C270.97 299.837 271.265 299.893 271.562 299.929C272.06 299.991 272.562 300.005 273.062 299.973C273.527 299.913 273.995 299.884 274.464 299.885Z" fill="#000051"/>
<path d="M274.358 300.141C274.358 300.141 273.881 299.788 273.538 298.942C273.335 298.446 273.221 297.918 273.202 297.383C273.193 297.064 273.214 296.745 273.264 296.431C273.273 296.225 273.336 296.025 273.448 295.851C273.56 295.678 273.715 295.537 273.899 295.444C274.02 295.403 274.15 295.398 274.274 295.429C274.397 295.46 274.509 295.527 274.596 295.62C274.723 295.757 274.83 295.911 274.913 296.078C275.062 296.355 275.169 296.652 275.231 296.96C275.34 297.496 275.309 298.051 275.143 298.572C274.852 299.453 274.349 299.815 274.322 299.779C274.506 299.356 274.668 298.924 274.808 298.484C274.909 298.014 274.909 297.527 274.808 297.056C274.744 296.783 274.643 296.519 274.508 296.272C274.367 295.999 274.173 295.805 274.075 295.867C273.981 295.94 273.903 296.033 273.848 296.14C273.793 296.247 273.763 296.364 273.758 296.484C273.702 296.774 273.672 297.069 273.67 297.365C273.673 297.857 273.744 298.346 273.881 298.819C274.102 299.647 274.419 300.097 274.358 300.141Z" fill="#000051"/>
<path d="M187.451 170.741C187.451 170.741 174.513 196.341 183.209 202.342C191.905 208.343 232.518 238.834 232.518 238.834L253.235 294.113L272.638 286.182L256.472 221.482L215.656 184.841L187.451 170.741Z" fill="black" fill-opacity="0.87"/>
<path d="M237.272 228.691C237.387 228.779 236.046 230.559 235.05 233.097C234.053 235.635 233.78 237.829 233.639 237.811C233.7 234.431 234.992 231.188 237.272 228.691V228.691Z" fill="#000051"/>
<path d="M234.071 228.162C234.203 228.162 233.621 230.294 233.427 232.956C233.233 235.617 233.427 237.776 233.312 237.794C232.886 236.206 232.769 234.552 232.968 232.921C233.02 231.277 233.394 229.661 234.071 228.162V228.162Z" fill="#000051"/>
<path d="M255.194 293.285C255.141 293.2 255.099 293.108 255.07 293.012C254.982 292.809 254.876 292.536 254.735 292.183C254.435 291.434 254.021 290.368 253.483 288.993C252.415 286.209 250.837 282.155 249.002 277.097C247.168 272.038 244.919 265.967 242.599 259.111C242.017 257.401 241.444 255.63 240.88 253.823C240.315 252.017 239.795 250.14 239.036 248.289C237.555 244.614 235.782 240.896 233.842 237.124L233.903 237.186C231.725 235.344 229.423 233.414 227.06 231.475C225.216 229.96 223.391 228.47 221.547 227.069L216.079 222.927C212.499 220.204 209.024 217.587 205.664 215.199C202.303 212.811 198.987 210.714 195.962 208.625C193.108 206.741 190.431 204.603 187.963 202.236C186.885 201.192 185.932 200.027 185.123 198.764C184.416 197.622 183.892 196.376 183.571 195.072C183.092 192.981 183.065 190.812 183.492 188.709C183.752 187.389 184.13 186.094 184.621 184.841C184.779 184.409 184.929 184.092 185.017 183.871C185.06 183.758 185.113 183.649 185.176 183.545C185.176 183.545 185.176 183.669 185.061 183.889C184.947 184.109 184.85 184.435 184.709 184.867C184.259 186.13 183.911 187.426 183.668 188.744C183.281 190.821 183.335 192.956 183.827 195.01C184.15 196.285 184.671 197.501 185.37 198.614C186.181 199.847 187.128 200.985 188.192 202.007C190.665 204.341 193.339 206.452 196.183 208.317C199.217 210.379 202.559 212.458 205.928 214.855C209.297 217.252 212.781 219.843 216.37 222.566L221.838 226.708C223.699 228.118 225.525 229.607 227.368 231.114C229.732 233.062 232.034 234.991 234.212 236.842V236.886C236.152 240.675 237.925 244.403 239.407 248.104C240.113 249.919 240.726 251.769 241.241 253.647C241.797 255.462 242.37 257.225 242.935 258.934C245.228 265.79 247.415 271.862 249.24 276.938L253.597 288.879C254.1 290.262 254.479 291.346 254.77 292.104L255.061 292.985C255.119 293.078 255.164 293.179 255.194 293.285V293.285Z" fill="#000051"/>
<path d="M203.406 178.936L228.418 182.479L241.242 185.74L223.682 192.032L203.406 178.936Z" fill="black" fill-opacity="0.87"/>
<path d="M172.785 177.13C172.641 177.354 172.466 177.556 172.264 177.729C171.761 178.245 171.225 178.727 170.659 179.174C166.923 182.162 162.422 184.04 157.668 184.594C156.954 184.682 156.236 184.723 155.516 184.717C155.251 184.744 154.982 184.726 154.723 184.664C154.723 184.585 155.843 184.55 157.624 184.268C159.942 183.911 162.207 183.275 164.371 182.373C166.533 181.465 168.579 180.302 170.465 178.91C171.912 177.844 172.732 177.077 172.785 177.13Z" fill="#000051"/>
<path d="M190.741 140.541L185.917 176.777C185.917 176.777 201.951 175.729 213.257 179.483C224.564 183.237 231.513 183.131 231.513 183.131L229.15 160.589L237.59 142.083L241.303 163.718L258.642 181.554L269.94 178.998L258.227 159.4L250.096 119.462C249.41 116.133 247.605 113.139 244.981 110.976L244.654 110.712L227.633 101.229L221.918 101.344C217.088 101.449 212.275 101.944 207.525 102.825C204.56 103.376 201.839 104.832 199.737 106.993V106.993C197.845 109.115 196.482 111.655 195.759 114.404L190.741 140.541Z" fill="#FF6F00"/>
<path d="M244.813 125.384C244.709 125.787 244.568 126.18 244.39 126.556L243.102 129.658C241.991 132.302 240.456 135.871 238.692 139.836L234.177 149.979C233.612 151.204 233.136 152.226 232.774 153.037C232.616 153.417 232.43 153.785 232.219 154.139C232.298 153.733 232.429 153.339 232.607 152.967C232.898 152.217 233.33 151.16 233.877 149.847C234.97 147.203 236.523 143.625 238.287 139.651C240.05 135.677 241.647 132.108 242.828 129.526L244.257 126.477C244.404 126.094 244.59 125.728 244.813 125.384V125.384Z" fill="#000051"/>
<path d="M196.703 119.074C200.019 128.31 206.404 149.398 209.509 157.531C210.462 159.999 212.058 162.168 214.13 163.814L248.526 188.128L256.463 177.808L230.684 152.958L216.785 111.813C214.827 106.323 206.704 103.344 201.659 106.279C197.832 108.544 195.212 114.844 196.703 119.074Z" fill="#FF6F00"/>
<path d="M217.455 113.523C217.455 113.523 217.552 113.761 217.72 114.228L218.461 116.325C219.096 118.184 220.031 120.872 221.204 124.3L230.905 152.896L230.852 152.817L256.675 177.641L256.816 177.782L256.693 177.941L250.978 185.369C250.211 186.356 249.452 187.352 248.747 188.269L248.614 188.445L248.429 188.313L222.024 169.305L216.106 165.048L214.686 164.026C214.203 163.697 213.743 163.335 213.31 162.942C212.471 162.158 211.735 161.27 211.123 160.298C210.537 159.37 210.055 158.38 209.685 157.346L208.548 154.421C207.824 152.508 207.137 150.667 206.502 148.895C203.97 141.845 202.092 136.082 200.84 132.099C200.222 130.116 199.746 128.574 199.411 127.508C199.261 126.997 199.137 126.627 199.058 126.309C199.015 126.173 198.98 126.035 198.952 125.895C198.952 125.895 199.005 126.027 199.102 126.3C199.199 126.574 199.323 126.979 199.499 127.481C199.843 128.539 200.381 130.072 201.007 132.046C202.321 136.012 204.226 141.74 206.801 148.789C207.445 150.552 208.142 152.385 208.874 154.297C209.253 155.249 209.632 156.227 210.021 157.214C210.388 158.223 210.864 159.189 211.44 160.096C212.043 161.028 212.76 161.88 213.575 162.634C213.995 163.016 214.443 163.367 214.915 163.682L216.344 164.704L222.28 168.978L248.738 187.951H248.429L250.66 185.052L256.375 177.632V177.932L230.605 153.116V153.072C226.636 141.202 223.347 131.341 221.036 124.423L218.39 116.413L217.711 114.307C217.517 113.769 217.455 113.523 217.455 113.523Z" fill="#000051"/>
<path d="M214.165 108.5C214.112 108.552 213.539 107.953 212.401 107.257C210.949 106.345 209.286 105.822 207.572 105.741C205.859 105.659 204.153 106.02 202.621 106.79C201.439 107.372 200.813 107.918 200.76 107.856C201.223 107.284 201.807 106.82 202.471 106.499C204.03 105.619 205.806 105.197 207.594 105.283C209.383 105.369 211.11 105.959 212.578 106.984C213.21 107.369 213.752 107.886 214.165 108.5V108.5Z" fill="#000051"/>
<path d="M258.986 159.937C258.986 160.078 257.354 159.937 255.458 160.378C253.562 160.818 252.195 161.717 252.115 161.594C253.002 160.726 254.13 160.146 255.352 159.928C256.536 159.56 257.804 159.563 258.986 159.937V159.937Z" fill="#000051"/>
<path d="M201.227 132.963C201.116 133.005 201.001 133.034 200.883 133.051C200.569 133.119 200.251 133.169 199.931 133.2C198.868 133.311 197.795 133.242 196.756 132.998C195.406 132.64 194.153 131.987 193.087 131.086C192.992 131.013 192.907 130.931 192.831 130.839C194.029 131.722 195.372 132.39 196.8 132.813C198.258 133.102 199.753 133.152 201.227 132.963Z" fill="white"/>
<path d="M203.908 140.823C203.383 140.472 202.839 140.151 202.277 139.863C200.89 139.217 199.394 138.837 197.867 138.743C196.341 138.649 194.81 138.682 193.29 138.84L191.905 138.973C191.735 138.984 191.564 138.984 191.394 138.973C191.557 138.923 191.726 138.891 191.896 138.876C192.223 138.823 192.69 138.761 193.281 138.691C194.804 138.489 196.343 138.436 197.876 138.532C199.41 138.634 200.909 139.038 202.286 139.722C202.701 139.933 203.096 140.181 203.467 140.462C203.63 140.562 203.778 140.683 203.908 140.823V140.823Z" fill="white"/>
<g opacity="0.4">
<path d="M199.464 127.473C199.464 127.473 200.346 141.255 201.378 147.626C202.41 153.998 204.42 160.483 208.989 165.039C213.557 169.595 220.119 171.657 226.495 172.97C224.432 171.42 222.421 169.824 220.436 168.177C217.888 166.062 214.148 163.991 212.093 161.382C208.142 156.368 207.287 150.032 205.249 143.987C203.38 138.4 201.342 133.086 199.464 127.508" fill="black" fill-opacity="0.87"/>
</g>
<path d="M223.417 132.848C223.196 133.005 222.952 133.127 222.694 133.209C221.986 133.459 221.238 133.573 220.489 133.544C218.592 133.544 216.079 132.663 213.221 132.919C210.791 133.107 208.438 133.861 206.351 135.122C205.722 135.505 205.118 135.929 204.543 136.391L204.085 136.778C203.979 136.866 203.917 136.911 203.917 136.902C204.616 136.167 205.411 135.529 206.281 135.007C208.374 133.702 210.752 132.922 213.213 132.733C216.105 132.46 218.637 133.403 220.489 133.412C221.225 133.453 221.962 133.364 222.667 133.148C223.161 133.024 223.408 132.848 223.417 132.848Z" fill="white"/>
<path d="M220.859 126.195C220.804 126.239 220.745 126.277 220.683 126.309L220.18 126.6C219.739 126.856 219.087 127.191 218.266 127.578C213.961 129.592 209.287 130.702 204.535 130.839C203.653 130.839 202.885 130.839 202.383 130.839H201.801C201.733 130.845 201.665 130.845 201.598 130.839H201.801H202.383C202.885 130.839 203.626 130.839 204.526 130.795C206.882 130.691 209.224 130.367 211.52 129.825C213.816 129.273 216.056 128.512 218.213 127.552C219.034 127.182 219.695 126.856 220.145 126.671L220.665 126.406C220.789 126.212 220.85 126.186 220.859 126.195Z" fill="white"/>
<path d="M240.395 133.421L240.157 133.368C239.929 133.305 239.705 133.228 239.486 133.139C238.693 132.789 237.965 132.306 237.334 131.711C235.659 130.284 234.115 127.605 231.513 125.543C228.618 123.233 225.125 121.794 221.442 121.392L220.745 121.321C220.666 121.336 220.586 121.336 220.507 121.321C221.696 121.318 222.88 121.46 224.035 121.744C226.819 122.394 229.423 123.659 231.655 125.446C232.864 126.446 233.961 127.575 234.927 128.812C235.697 129.824 236.54 130.778 237.449 131.667C238.065 132.262 238.774 132.753 239.548 133.121C240.068 133.333 240.403 133.394 240.395 133.421Z" fill="white"/>
<path d="M239.363 137.624C239.112 137.569 238.864 137.498 238.622 137.413C237.982 137.143 237.387 136.778 236.858 136.329C236.075 135.655 235.352 134.915 234.697 134.117C233.897 133.158 233.011 132.273 232.051 131.473C231.069 130.696 229.897 130.194 228.656 130.019C227.645 129.878 226.62 129.857 225.604 129.958C224.723 130.037 224.026 130.143 223.541 130.204L222.976 130.284C222.912 130.293 222.847 130.293 222.782 130.284C222.84 130.256 222.903 130.238 222.967 130.231L223.523 130.116C224.008 130.028 224.714 129.905 225.587 129.817C226.614 129.685 227.655 129.685 228.682 129.817C229.972 129.976 231.193 130.488 232.21 131.297C233.179 132.113 234.065 133.022 234.856 134.011C235.507 134.802 236.214 135.544 236.973 136.232C237.504 136.685 238.098 137.06 238.737 137.342C239.107 137.527 239.363 137.607 239.363 137.624Z" fill="white"/>
<path d="M252.874 134.787C252.236 134.614 251.575 134.548 250.916 134.593C250.201 134.655 249.498 134.812 248.826 135.06C248.067 135.324 247.256 135.712 246.4 136.1C245.597 136.478 244.758 136.773 243.896 136.981C243.182 137.146 242.444 137.185 241.717 137.096C241.226 137.028 240.751 136.873 240.315 136.637C240.174 136.563 240.041 136.474 239.918 136.373C240.483 136.714 241.114 136.93 241.77 137.007C242.479 137.08 243.195 137.029 243.887 136.858C244.737 136.646 245.564 136.351 246.356 135.976C247.238 135.589 248.032 135.21 248.808 134.945C249.496 134.704 250.214 134.555 250.942 134.505C251.435 134.475 251.929 134.523 252.406 134.646C252.567 134.675 252.724 134.723 252.874 134.787V134.787Z" fill="white"/>
<path d="M254.268 139.581C253.563 139.05 252.715 138.743 251.834 138.699C250.885 138.668 249.941 138.839 249.064 139.202C248 139.676 246.991 140.267 246.057 140.964C245.115 141.667 244.114 142.289 243.067 142.824C242.198 143.249 241.255 143.503 240.289 143.573C239.638 143.611 238.987 143.515 238.375 143.291C238.15 143.206 237.937 143.093 237.74 142.956C238.528 143.342 239.405 143.51 240.28 143.44C241.225 143.355 242.146 143.095 242.997 142.674C244.027 142.129 245.015 141.508 245.951 140.814C246.899 140.114 247.923 139.523 249.003 139.052C249.903 138.688 250.872 138.526 251.842 138.576C252.496 138.613 253.133 138.8 253.703 139.122C253.912 139.248 254.102 139.403 254.268 139.581V139.581Z" fill="white"/>
<g opacity="0.4">
<path d="M239.601 153.768C241.365 146.551 241.753 138.735 242.008 131.306C241.382 133.906 239.786 136.153 238.798 138.647C238.322 139.827 237.572 141.978 237.572 141.978L239.565 153.592" fill="black" fill-opacity="0.87"/>
</g>
<path d="M227.959 68.8707C227.862 69.5359 227.582 70.1612 227.151 70.6775C226.719 71.1938 226.154 71.581 225.516 71.7964C224.793 72.0343 224 72.0343 223.285 72.3075C222.918 72.4112 222.597 72.6373 222.375 72.9482C222.154 73.2591 222.046 73.6362 222.068 74.017C222.192 74.581 222.712 74.9423 223.135 75.3213C223.559 75.7002 223.947 76.2994 223.7 76.8106C223.453 77.3217 222.615 77.4274 222.192 77.8945C221.998 78.1644 221.902 78.492 221.92 78.8235C221.938 79.155 222.068 79.4707 222.289 79.7186C222.744 80.203 223.271 80.616 223.85 80.9435C224.432 81.2774 224.862 81.8239 225.049 82.4681" fill="#000051"/>
<path d="M254.118 80.3179C256.058 76.2202 254.647 71.1178 251.622 67.7339C248.597 64.35 244.257 62.4465 239.901 61.1864C239.274 61.0101 238.498 60.8779 238.057 61.3626C237.893 61.5972 237.814 61.8815 237.835 62.1673C237.856 62.4532 237.975 62.7231 238.172 62.9312C238.58 63.3404 239.083 63.643 239.636 63.8124C237.877 62.8943 235.939 62.3681 233.956 62.2703C233.262 62.2172 232.568 62.364 231.954 62.6933C231.656 62.8684 231.419 63.1325 231.279 63.4486C231.138 63.7647 231.1 64.1169 231.169 64.4557C231.222 64.6219 231.313 64.7732 231.436 64.8966C231.559 65.02 231.71 65.112 231.876 65.1647C232.042 65.2174 232.219 65.2294 232.39 65.1996C232.562 65.1697 232.724 65.099 232.863 64.9933C230.975 64.7885 229.075 65.233 227.474 66.2534C226.345 66.9761 225.313 68.2274 225.587 69.5404C225.874 70.2727 226.204 70.9877 226.575 71.6818C227.042 73.0477 226.363 74.5106 225.843 75.85C224.979 77.933 224.675 80.2052 224.961 82.4417C225.108 83.5587 225.5 84.6293 226.11 85.5769C226.72 86.5246 227.532 87.3257 228.488 87.9229" fill="#000051"/>
<path d="M227.068 114.871C225.904 114.559 224.814 114.018 223.863 113.279C222.911 112.54 222.118 111.618 221.528 110.567C220.939 109.517 220.566 108.359 220.432 107.163C220.297 105.966 220.403 104.755 220.744 103.6L228.841 76.2113C229.287 74.5397 230.064 72.9744 231.126 71.608C232.188 70.2417 233.513 69.1021 235.024 68.2566C236.534 67.4112 238.199 66.877 239.92 66.6858C241.641 66.4946 243.382 66.6502 245.042 67.1434L245.677 67.3726C248.757 68.486 251.305 70.7166 252.815 73.6211C254.325 76.5257 254.686 79.8915 253.826 83.0497C252.159 89.139 250.237 95.8539 249.046 99.0176C246.585 105.565 239.636 104.208 239.636 104.208L237.925 109.116C237.178 111.269 235.643 113.059 233.629 114.126C231.614 115.194 229.27 115.46 227.068 114.871Z" fill="#FFBE9D"/>
<path d="M239.68 104.12C236.621 103.079 233.941 101.153 231.98 98.5858C231.98 98.5858 232.298 104.049 239.036 105.829L239.68 104.12Z" fill="#FFA040"/>
<path d="M238.437 71.1619C237.899 69.9811 237.22 67.4079 236.303 66.4826C235.386 65.5573 233.895 65.8657 232.643 66.2182C231.998 66.405 231.407 66.742 230.918 67.2016C230.428 67.6612 230.055 68.2302 229.829 68.8619C228.065 73.5941 227.889 78.0708 226.601 82.7237C226.484 83.0267 226.457 83.3571 226.522 83.6754C226.769 84.4597 227.633 84.7417 228.454 84.8651C230.473 85.1559 231.505 83.6842 232.458 81.9129C232.778 80.8402 233.014 79.7442 233.163 78.6348C233.276 77.0785 233.796 75.5792 234.673 74.2876C235.549 72.996 236.75 71.9575 238.155 71.2765L238.437 71.1619Z" fill="#000051"/>
<path d="M229.979 79.9742C229.891 79.8861 225.939 77.0045 224.458 81.5516C222.976 86.0988 227.853 86.6539 227.906 86.5217C227.959 86.3896 229.979 79.9742 229.979 79.9742Z" fill="#FFBE9D"/>
<path d="M227.077 84.3803C227.077 84.3803 226.98 84.3803 226.821 84.4332C226.605 84.4471 226.392 84.3812 226.222 84.2481C225.989 83.9659 225.837 83.6268 225.779 83.2658C225.722 82.9049 225.762 82.5352 225.895 82.1949C226.011 81.8002 226.213 81.4361 226.486 81.1286C226.576 81.0014 226.695 80.8975 226.833 80.8255C226.971 80.7535 227.124 80.7154 227.28 80.7144C227.378 80.723 227.47 80.7641 227.542 80.8312C227.614 80.8983 227.661 80.9874 227.677 81.0845C227.677 81.2343 227.677 81.3136 227.677 81.3313C227.677 81.3489 227.8 81.2872 227.827 81.0845C227.836 80.9634 227.805 80.8424 227.739 80.7408C227.691 80.6737 227.631 80.6166 227.561 80.5727C227.492 80.5289 227.414 80.4992 227.333 80.4853C227.134 80.463 226.932 80.4917 226.747 80.5688C226.561 80.6459 226.399 80.7688 226.275 80.9259C225.956 81.257 225.72 81.6586 225.587 82.0979C225.434 82.4966 225.402 82.9314 225.494 83.3482C225.587 83.7649 225.8 84.1453 226.107 84.442C226.217 84.5169 226.342 84.5662 226.473 84.586C226.604 84.6058 226.739 84.5958 226.865 84.5566C227.033 84.4596 227.086 84.3803 227.077 84.3803Z" fill="#FFA040"/>
<path d="M236.682 72.14C238.922 70.6067 241.233 71.3646 242.776 72.2634C244.32 73.1623 245.625 74.4312 247.186 75.2508C248.747 76.0703 250.837 76.3523 252.248 75.2508C252.746 74.8062 253.146 74.2635 253.424 73.6569C253.702 73.0503 253.851 72.3929 253.862 71.7259C253.963 70.4565 253.81 69.1798 253.413 67.9698C253.017 66.7597 252.384 65.6402 251.552 64.676C251.119 64.1737 250.449 63.689 249.841 63.9534C249.091 64.2883 249.214 65.381 249.452 66.1653C249.452 66.1653 241.797 63.3366 237.105 64.9668C232.413 66.5971 236.682 72.14 236.682 72.14Z" fill="#000051"/>
<path d="M239.557 61.0982C239.557 61.0982 239.645 61.4331 239.883 61.9795C240.243 62.7393 240.736 63.4287 241.338 64.0151C242.233 64.8865 243.264 65.6068 244.39 66.1477C245.054 66.4596 245.753 66.6933 246.471 66.8439C247.221 67.0113 248.024 67.1259 248.835 67.3462C249.649 67.5454 250.406 67.9283 251.049 68.4653C251.638 68.9774 252.095 69.6244 252.38 70.3512C252.642 71.0113 252.735 71.7257 252.654 72.4309C252.573 73.0385 252.35 73.6185 252.001 74.1228C251.504 74.8578 250.774 75.4041 249.929 75.6738C249.699 75.7386 249.462 75.7742 249.223 75.7795C249.064 75.7795 248.976 75.7795 248.976 75.7795C248.976 75.7795 249.32 75.7795 249.858 75.5416C250.636 75.2374 251.296 74.6943 251.745 73.9906C252.05 73.5109 252.243 72.9688 252.31 72.4044C252.371 71.7585 252.271 71.1075 252.019 70.5098C251.751 69.8313 251.325 69.2269 250.775 68.7473C250.18 68.2627 249.484 67.9165 248.738 67.7339C247.962 67.5224 247.159 67.399 246.392 67.2228C245.647 67.0626 244.924 66.811 244.24 66.4737C243.084 65.9043 242.037 65.1379 241.144 64.209C240.537 63.5857 240.062 62.845 239.751 62.0323C239.667 61.8109 239.611 61.5801 239.583 61.345C239.559 61.2651 239.55 61.1814 239.557 61.0982Z" fill="#000051"/>
<path d="M234.503 62.473C234.503 62.473 234.618 62.8078 234.874 63.3542C235.256 64.1456 235.79 64.855 236.444 65.4427C237.426 66.3059 238.576 66.957 239.822 67.355C241.362 67.8365 242.936 68.2018 244.531 68.4477C246.159 68.6817 247.746 69.1384 249.249 69.8048C249.928 70.1316 250.474 70.6826 250.793 71.3646C251.027 71.9753 251.064 72.644 250.899 73.2768C250.638 74.1719 250.057 74.9401 249.267 75.4359C249.062 75.5719 248.843 75.687 248.614 75.7795C248.537 75.8189 248.454 75.8457 248.368 75.8589C248.368 75.8589 248.676 75.6826 249.179 75.3037C249.888 74.7972 250.397 74.0581 250.616 73.2152C250.758 72.6503 250.718 72.0553 250.502 71.5144C250.204 70.9099 249.705 70.4272 249.091 70.1485C247.613 69.5196 246.059 69.0871 244.469 68.8619C242.856 68.6109 241.266 68.2277 239.716 67.7163C238.432 67.2915 237.256 66.5941 236.267 65.6718C235.608 65.0422 235.091 64.2791 234.75 63.4335C234.66 63.2055 234.592 62.9695 234.547 62.7285C234.515 62.6473 234.5 62.5603 234.503 62.473V62.473Z" fill="#000051"/>
<path d="M249.434 86.2133C249.346 86.4804 249.155 86.7021 248.905 86.8306C248.654 86.9591 248.363 86.9843 248.094 86.9007C247.959 86.867 247.833 86.8067 247.722 86.7232C247.612 86.6397 247.519 86.5347 247.45 86.4146C247.381 86.2945 247.337 86.1618 247.32 86.0242C247.303 85.8867 247.315 85.7472 247.353 85.6141C247.444 85.346 247.635 85.1237 247.887 84.9938C248.139 84.864 248.431 84.8367 248.703 84.9179C248.837 84.9535 248.962 85.0155 249.072 85.1003C249.182 85.1851 249.273 85.2909 249.341 85.4116C249.41 85.5323 249.453 85.6654 249.469 85.8031C249.485 85.9407 249.473 86.0802 249.434 86.2133V86.2133Z" fill="#000051"/>
<path d="M251.384 85.6317C251.207 85.7198 250.634 84.8826 249.523 84.5037C248.411 84.1248 247.424 84.3891 247.353 84.2129C247.283 84.0366 247.521 83.9397 247.97 83.8075C248.558 83.6438 249.182 83.6642 249.757 83.8659C250.333 84.0677 250.833 84.441 251.19 84.9355C251.445 85.3144 251.472 85.5964 251.384 85.6317Z" fill="#000051"/>
<path d="M238.534 83.0761C238.443 83.3439 238.251 83.5656 237.999 83.6941C237.747 83.8225 237.455 83.8474 237.184 83.7635C237.051 83.7289 236.925 83.6678 236.816 83.5839C236.706 83.5 236.614 83.3949 236.546 83.2749C236.478 83.1549 236.434 83.0225 236.418 82.8854C236.402 82.7483 236.414 82.6094 236.452 82.4769C236.541 82.2095 236.731 81.9872 236.981 81.8573C237.232 81.7273 237.523 81.6999 237.793 81.7807C237.928 81.8153 238.054 81.8767 238.165 81.961C238.276 82.0454 238.368 82.1511 238.437 82.2719C238.506 82.3927 238.551 82.5261 238.567 82.6643C238.584 82.8024 238.572 82.9424 238.534 83.0761Z" fill="#000051"/>
<path d="M240.474 82.0715C240.298 82.1685 239.724 81.3225 238.622 80.9435C237.52 80.5646 236.514 80.829 236.444 80.6527C236.373 80.4765 236.62 80.3796 237.061 80.2474C237.641 80.0879 238.257 80.1094 238.825 80.3091C239.399 80.5053 239.896 80.8786 240.245 81.3753C240.527 81.7366 240.553 82.0363 240.474 82.0715Z" fill="#000051"/>
<path d="M241.683 91.6417C242.328 91.662 242.968 91.7627 243.588 91.9413C243.879 92.0118 244.161 92.047 244.276 91.8708C244.397 91.5939 244.434 91.2873 244.381 90.9896C244.381 90.2141 244.32 89.4033 244.293 88.5574C244.15 86.4731 244.176 84.3806 244.373 82.3006C244.675 84.3692 244.817 86.4581 244.796 88.5486C244.796 89.4298 244.796 90.2053 244.796 90.9807C244.858 91.3816 244.773 91.7913 244.558 92.1352C244.484 92.2201 244.391 92.2872 244.287 92.3315C244.183 92.3757 244.071 92.396 243.958 92.3907C243.785 92.3882 243.612 92.3615 243.447 92.3114C242.833 92.1611 242.241 91.9362 241.683 91.6417V91.6417Z" fill="#000051"/>
<path d="M238.155 91.2804C238.331 91.2804 237.917 92.5229 238.649 93.7302C239.381 94.9375 240.704 95.2459 240.651 95.4222C240.598 95.5984 240.289 95.5544 239.769 95.4222C239.064 95.1891 238.464 94.7147 238.075 94.0827C237.698 93.4786 237.575 92.7504 237.731 92.0559C237.811 91.4919 238.04 91.2451 238.155 91.2804Z" fill="#000051"/>
<path d="M242.264 77.8504C242.044 78.1148 240.994 77.5949 239.618 77.2952C238.242 76.9956 237.105 76.9956 237.025 76.6696C237.025 76.5109 237.272 76.2906 237.793 76.1496C238.478 75.9831 239.192 75.976 239.88 76.1288C240.568 76.2816 241.212 76.5902 241.761 77.0309C242.202 77.4098 242.361 77.727 242.264 77.8504Z" fill="#000051"/>
<path d="M252.098 82.3006C251.815 82.4857 251.145 81.9658 250.237 81.6309C249.328 81.296 248.473 81.2167 248.402 80.8907C248.402 80.7409 248.579 80.5294 248.993 80.406C249.547 80.2825 250.125 80.3245 250.655 80.5266C251.185 80.7287 251.644 81.0821 251.974 81.5428C252.204 81.9129 252.265 82.2125 252.098 82.3006Z" fill="#000051"/>
<path d="M231.31 180.073C232.295 180.431 233.12 181.128 233.637 182.039C234.154 182.95 234.33 184.015 234.133 185.043L228.171 187.396L226.812 181.668L231.31 180.073Z" fill="#534BAE"/>
<path d="M181.27 180.056C181.27 180.056 193.202 178.822 200.672 181.457C208.142 184.092 217.491 186.057 221.61 185.131C223.814 184.594 225.786 183.357 227.227 181.606C227.227 181.606 215.339 180.179 209.739 178.372C205.973 177.156 198.529 168.723 184.753 170.759L181.27 180.056Z" fill="#534BAE"/>
<path d="M229.079 184.374C228.654 183.285 227.999 182.302 227.157 181.492L227.262 181.633C226.013 181.688 224.772 181.868 223.558 182.17C222.341 182.483 221.249 183.16 220.427 184.109C220.145 184.41 219.987 184.807 219.986 185.22C220.044 185.487 220.157 185.74 220.318 185.961C220.479 186.183 220.685 186.368 220.921 186.506C222.011 187.489 223.285 188.247 224.669 188.736C225.365 188.968 226.114 188.995 226.824 188.812C227.535 188.629 228.177 188.244 228.673 187.705C229.005 187.223 229.215 186.669 229.286 186.089C229.356 185.509 229.285 184.92 229.079 184.374V184.374Z" fill="#534BAE"/>
<path d="M220.419 183.959C220.489 183.706 220.619 183.474 220.798 183.281C221.275 182.757 221.884 182.37 222.562 182.162C223.567 181.827 224.637 181.737 225.684 181.897C226.33 181.994 226.948 182.228 227.496 182.584C228.043 182.94 228.508 183.409 228.859 183.959C229.221 184.539 229.397 185.216 229.362 185.898C229.313 186.536 229.084 187.148 228.7 187.661C228.353 188.12 227.877 188.466 227.333 188.656C226.863 188.815 226.364 188.875 225.869 188.833C225.163 188.766 224.47 188.593 223.814 188.322C223.585 188.233 223.409 188.154 223.285 188.092C223.222 188.069 223.162 188.037 223.109 187.995L223.303 188.057L223.841 188.251C224.495 188.496 225.181 188.647 225.878 188.7C226.379 188.747 226.884 188.668 227.346 188.469C227.808 188.27 228.213 187.959 228.524 187.564C228.908 187.062 229.127 186.454 229.153 185.823C229.178 185.193 229.008 184.569 228.665 184.039C228.327 183.51 227.88 183.06 227.354 182.718C226.827 182.376 226.234 182.15 225.614 182.056C224.593 181.888 223.548 181.964 222.562 182.276C221.895 182.468 221.288 182.826 220.798 183.316C220.65 183.517 220.523 183.733 220.419 183.959Z" fill="#000051"/>
<path d="M222.941 184.153C222.72 183.932 222.484 183.726 222.235 183.536C221.954 183.364 221.659 183.213 221.354 183.087C221.671 183.149 221.971 183.275 222.237 183.459C222.503 183.642 222.727 183.879 222.897 184.153H222.941Z" fill="white"/>
<path d="M224.872 184.241C224.872 184.241 224.599 183.968 224.228 183.66C223.858 183.351 223.531 183.149 223.54 183.131C223.818 183.232 224.073 183.388 224.29 183.589C224.523 183.768 224.721 183.989 224.872 184.241V184.241Z" fill="white"/>
<path d="M225.658 188.366C225.658 188.366 225.613 188.163 225.516 187.846C225.387 187.441 225.203 187.055 224.97 186.7C224.722 186.348 224.425 186.034 224.088 185.766C223.832 185.554 223.656 185.449 223.664 185.44C223.829 185.515 223.986 185.606 224.132 185.713C224.474 185.978 224.772 186.296 225.014 186.656C225.254 187.015 225.433 187.411 225.543 187.828C225.601 188.002 225.639 188.183 225.658 188.366Z" fill="white"/>
<path d="M227.615 186.823C227.605 186.653 227.605 186.483 227.615 186.312C227.624 185.902 227.595 185.492 227.527 185.087C227.453 184.686 227.338 184.293 227.183 183.915C227.068 183.625 226.98 183.448 226.989 183.439C226.998 183.431 226.989 183.439 227.068 183.554C227.133 183.662 227.192 183.774 227.245 183.889C227.416 184.269 227.54 184.669 227.615 185.079C227.689 185.485 227.71 185.9 227.677 186.312C227.685 186.438 227.685 186.565 227.677 186.691C227.66 186.737 227.639 186.781 227.615 186.823V186.823Z" fill="white"/>
<path d="M227.624 183.149C225.7 183.802 224.008 185.003 222.756 186.603C222.881 186.329 223.047 186.077 223.25 185.854C224.176 184.718 225.396 183.859 226.778 183.369C227.048 183.255 227.333 183.181 227.624 183.149V183.149Z" fill="#000051"/>
<path d="M224.67 182.197C224.008 182.695 223.453 183.322 223.038 184.039C222.671 184.779 222.452 185.585 222.394 186.409C222.346 186.165 222.346 185.913 222.394 185.669C222.443 185.067 222.617 184.481 222.906 183.951C223.197 183.418 223.589 182.948 224.061 182.567C224.238 182.405 224.445 182.279 224.67 182.197Z" fill="#000051"/>
<path d="M227.942 188.366C227.942 188.366 227.889 188.075 227.712 187.652C227.474 187.106 227.115 186.621 226.663 186.233C225.587 185.352 224.502 184.867 224.546 184.797C224.788 184.868 225.022 184.965 225.243 185.087C225.799 185.354 226.317 185.692 226.786 186.092C227.26 186.5 227.621 187.021 227.836 187.608C227.935 187.847 227.972 188.108 227.942 188.366V188.366Z" fill="#000051"/>
<path d="M202.876 182.065C202.479 182.031 202.086 181.958 201.703 181.844C200.954 181.677 199.878 181.439 198.537 181.184C195.044 180.516 191.507 180.104 187.954 179.95C186.013 179.815 184.063 179.972 182.168 180.417C180.638 180.827 179.205 181.537 177.953 182.505C176.811 183.429 175.802 184.506 174.954 185.704C175.096 185.328 175.292 184.975 175.536 184.656C176.155 183.752 176.901 182.942 177.75 182.25C179.016 181.212 180.485 180.449 182.063 180.011C183.993 179.532 185.987 179.357 187.972 179.492C191.553 179.641 195.115 180.101 198.617 180.866C199.957 181.166 201.033 181.457 201.765 181.677C202.149 181.765 202.522 181.895 202.876 182.065Z" fill="#000051"/>
<path d="M115.203 170.115C115.39 169.937 115.594 169.778 115.812 169.639C116.416 169.22 117.064 168.865 117.743 168.582C120.273 167.517 123.079 167.301 125.742 167.965C127.585 168.414 129.293 169.297 130.725 170.538C132.323 171.982 133.731 173.622 134.915 175.42C136.222 177.374 137.629 179.26 139.13 181.069C140.758 182.99 142.527 184.786 144.422 186.444C148.32 189.837 152.536 192.613 156.769 193.97C158.775 194.648 160.878 194.996 162.996 195.001C164.832 195.075 166.652 194.626 168.243 193.706C169.518 192.879 170.63 191.824 171.524 190.595C172.344 189.529 172.988 188.551 173.517 187.757L174.725 185.925C174.857 185.706 175.005 185.497 175.166 185.299C175.065 185.536 174.941 185.763 174.796 185.977L173.667 187.854C173.164 188.665 172.538 189.617 171.727 190.745C170.838 192.022 169.716 193.119 168.419 193.979C166.782 194.953 164.901 195.442 162.996 195.389C160.835 195.4 158.687 195.058 156.637 194.376C152.289 192.983 148.02 190.216 144.087 186.797C142.169 185.123 140.383 183.305 138.742 181.36C137.236 179.536 135.829 177.633 134.526 175.658C133.364 173.885 131.99 172.261 130.434 170.82C129.053 169.605 127.403 168.735 125.619 168.282C123.019 167.608 120.271 167.771 117.77 168.749C116.877 169.131 116.018 169.588 115.203 170.115V170.115Z" fill="#000051"/>
<path d="M137.172 162.299H136.554C136.149 162.299 135.575 162.352 134.861 162.431C131.14 162.862 127.59 164.229 124.542 166.405C123.969 166.819 123.511 167.181 123.202 167.436L122.726 167.833C123.277 167.298 123.867 166.803 124.489 166.352C127.524 164.134 131.094 162.759 134.835 162.369C135.611 162.293 136.392 162.27 137.172 162.299V162.299Z" fill="white"/>
<path d="M151.327 170.864L150.683 170.952C150.26 171.005 149.66 171.102 148.919 171.252C147 171.644 145.137 172.272 143.372 173.12C141.603 173.97 139.944 175.032 138.433 176.284C137.86 176.76 137.41 177.165 137.11 177.465L136.634 177.914C137.184 177.315 137.773 176.753 138.398 176.231C139.902 174.965 141.558 173.89 143.328 173.032C145.104 172.186 146.979 171.567 148.91 171.19C149.708 171.03 150.515 170.922 151.327 170.864V170.864Z" fill="white"/>
<path d="M150.895 190.93C150.842 190.706 150.801 190.48 150.771 190.251C150.691 189.632 150.671 189.006 150.71 188.383C150.853 186.317 151.456 184.309 152.474 182.505C153.511 180.722 154.738 179.055 156.134 177.535C157.183 176.346 157.897 175.649 157.897 175.649L157.448 176.169L156.213 177.57C154.845 179.104 153.637 180.772 152.606 182.549C151.583 184.339 150.96 186.33 150.78 188.383C150.723 189.005 150.723 189.63 150.78 190.251C150.78 190.472 150.833 190.639 150.842 190.754L150.895 190.93Z" fill="white"/>
<path d="M166.417 182.047C166.319 181.828 166.239 181.601 166.179 181.369C165.894 180.243 165.873 179.067 166.117 177.932C166.165 177.699 166.236 177.472 166.329 177.253C166.329 177.253 166.267 177.518 166.179 177.949C165.967 179.076 165.991 180.234 166.249 181.351C166.346 181.783 166.426 182.038 166.417 182.047Z" fill="white"/>
<path d="M169.133 192.772C168.635 192.458 168.164 192.104 167.722 191.714C165.54 189.848 163.998 187.346 163.313 184.559C163.166 183.98 163.068 183.391 163.021 182.796C163.021 182.796 163.021 182.964 163.11 183.263C163.198 183.563 163.242 183.995 163.374 184.515C164.089 187.271 165.608 189.753 167.74 191.644C168.058 191.931 168.391 192.202 168.736 192.454C169.001 192.675 169.133 192.772 169.133 192.772Z" fill="white"/>
<path d="M181.031 180.593C181.031 180.593 180.581 180.39 179.884 179.985C178.985 179.459 178.125 178.87 177.309 178.223C176.491 177.575 175.719 176.871 174.998 176.116C174.451 175.535 174.116 175.138 174.116 175.138L174.363 175.385L175.016 176.072C175.744 176.811 176.516 177.505 177.326 178.152C178.146 178.787 178.999 179.375 179.884 179.915L180.704 180.399L181.031 180.593Z" fill="white"/>
<path d="M189.488 179.421C189.488 179.421 189.488 179.298 189.488 179.077C189.488 178.857 189.488 178.443 189.444 178.126C189.444 177.324 189.321 176.222 189.162 175.015C189.003 173.808 188.783 172.715 188.606 171.939L188.395 171.014C188.342 170.794 188.324 170.67 188.324 170.67C188.324 170.67 188.324 170.785 188.43 171.005C188.536 171.226 188.58 171.534 188.677 171.887C188.862 172.662 189.083 173.755 189.25 174.971C189.39 176.006 189.475 177.047 189.506 178.09C189.506 178.487 189.506 178.813 189.506 179.042C189.506 179.271 189.488 179.421 189.488 179.421Z" fill="white"/>
<path d="M200.469 173.385C200.482 173.481 200.482 173.579 200.469 173.675C200.469 173.949 200.416 174.204 200.398 174.451C200.319 175.112 200.187 176.02 199.984 177.007C199.781 177.993 199.543 178.884 199.349 179.518C199.269 179.756 199.19 180.003 199.111 180.267C199.031 180.531 199.005 180.531 199.005 180.531C199.019 180.435 199.042 180.341 199.075 180.249C199.146 179.994 199.217 179.738 199.287 179.5C199.463 178.866 199.693 177.976 199.896 176.989C200.098 176.002 200.24 175.103 200.337 174.442C200.337 174.195 200.398 173.94 200.434 173.667L200.469 173.385Z" fill="white"/>
<path d="M207.948 180.672C208.002 180.188 208.087 179.709 208.204 179.236C208.283 178.755 208.398 178.281 208.548 177.817C208.489 178.3 208.403 178.78 208.292 179.254C208.208 179.733 208.093 180.207 207.948 180.672Z" fill="white"/>
<path d="M220.313 184.77C220.313 184.77 220.312 184.55 220.383 184.18C220.454 183.81 220.454 183.298 220.462 182.734C220.462 182.347 220.462 181.924 220.462 181.289V180.849C220.454 180.796 220.454 180.743 220.462 180.69C220.495 180.888 220.513 181.088 220.515 181.289C220.515 181.659 220.515 182.17 220.515 182.743C220.507 183.227 220.469 183.71 220.401 184.188C220.39 184.385 220.361 184.58 220.313 184.77Z" fill="white"/>
<path d="M222.685 187.643C221.732 183.81 217.79 181.342 213.865 180.725C209.941 180.108 205.981 180.91 202.056 181.413C198.132 181.915 193.942 182.038 190.423 180.214C189.307 182.283 188.745 184.605 188.792 186.956H190.856C191.288 189.934 194.013 192.243 196.95 192.851C199.887 193.459 201.827 193.512 204.579 192.313C207.471 191.044 211.22 189.132 214.059 188.136C216.899 187.141 220.039 186.647 222.879 187.581" fill="#534BAE"/>
<path d="M192.478 181.131C192.38 181.415 192.262 181.692 192.125 181.959C191.845 182.61 191.606 183.278 191.411 183.959C191.211 184.652 191.067 185.359 190.979 186.074C190.967 186.37 190.934 186.664 190.882 186.956C190.84 186.663 190.84 186.367 190.882 186.074C190.928 185.346 191.055 184.625 191.261 183.924C191.457 183.222 191.719 182.54 192.046 181.889C192.155 181.617 192.3 181.362 192.478 181.131V181.131Z" fill="#000051"/>
<path d="M191.023 185.281C190.659 185.286 190.296 185.254 189.938 185.184C189.57 185.173 189.204 185.125 188.845 185.043C189.21 184.96 189.59 184.96 189.956 185.043C190.325 185.044 190.689 185.125 191.023 185.281V185.281Z" fill="#000051"/>
<path d="M191.465 182.902C191.465 182.902 191.059 182.655 190.521 182.461C189.983 182.267 189.516 182.259 189.516 182.206C189.873 182.142 190.241 182.172 190.583 182.295C190.925 182.417 191.229 182.626 191.465 182.902V182.902Z" fill="#000051"/>
<path d="M195.565 181.642H196.182C196.579 181.642 197.17 181.642 197.946 181.642C200.108 181.619 202.263 181.397 204.384 180.981C207.576 180.315 210.862 180.226 214.086 180.716C216.005 181.023 217.831 181.755 219.43 182.858C221.158 184.079 222.445 185.825 223.099 187.837L223.152 188.031L222.967 187.943C222.137 187.539 221.24 187.294 220.321 187.22C218.083 187.17 215.858 187.569 213.777 188.392C211.803 189.068 209.869 189.854 207.982 190.745C207.101 191.168 206.219 191.626 205.337 191.961C204.501 192.35 203.634 192.665 202.744 192.904C201.125 193.285 199.448 193.351 197.805 193.098C196.447 192.906 195.149 192.415 194.004 191.661C193.148 191.077 192.424 190.321 191.878 189.441C191.538 188.891 191.274 188.298 191.093 187.678C190.979 187.246 190.943 187.017 190.943 187.017C191.152 187.865 191.488 188.676 191.94 189.423C192.489 190.286 193.213 191.025 194.065 191.591C195.201 192.332 196.487 192.811 197.831 192.992C199.456 193.231 201.112 193.156 202.708 192.772C203.592 192.538 204.451 192.222 205.275 191.829C206.157 191.45 207.039 191.036 207.921 190.613C209.812 189.711 211.752 188.917 213.733 188.233C215.838 187.408 218.086 187.007 220.347 187.053C221.296 187.129 222.223 187.38 223.081 187.793L222.958 187.898C222.316 185.926 221.054 184.214 219.36 183.016C217.775 181.925 215.968 181.2 214.068 180.893C210.872 180.404 207.615 180.482 204.446 181.122C202.319 181.533 200.157 181.734 197.99 181.721C196.403 181.703 195.565 181.642 195.565 181.642Z" fill="#1A237E"/>
<path d="M195.425 192.366C195.364 192.235 195.314 192.1 195.275 191.961C195.154 191.591 195.054 191.214 194.975 190.833C194.452 188.291 194.638 185.654 195.513 183.21C195.644 182.844 195.794 182.485 195.963 182.135C196.017 182.001 196.089 181.873 196.174 181.756C196.174 181.756 195.936 182.329 195.636 183.254C195.238 184.468 194.99 185.726 194.896 187C194.813 188.272 194.884 189.551 195.107 190.807C195.275 191.776 195.46 192.358 195.425 192.366Z" fill="white"/>
<path d="M203.062 187.176C203.13 187.418 203.177 187.666 203.203 187.916C203.273 188.374 203.406 189 203.582 189.679C203.944 191.044 204.296 192.146 204.243 192.164C204.117 191.945 204.019 191.711 203.952 191.467C203.794 191.027 203.582 190.419 203.406 189.705C203.247 189.127 203.135 188.538 203.07 187.943C203.025 187.689 203.022 187.43 203.062 187.176V187.176Z" fill="white"/>
<path d="M201.995 184.189C202.054 184.665 202.086 185.145 202.092 185.625C202.154 186.409 202.286 187.035 202.233 187.053C201.891 186.138 201.808 185.147 201.995 184.189V184.189Z" fill="white"/>
<path d="M203.864 181.113C203.917 181.113 203.679 181.703 203.547 182.435C203.415 183.166 203.423 183.783 203.37 183.783C203.255 183.329 203.255 182.854 203.37 182.4C203.423 181.936 203.593 181.493 203.864 181.113Z" fill="white"/>
<path d="M209.932 182.823C209.666 182.525 209.478 182.167 209.384 181.78C209.291 181.392 209.294 180.988 209.394 180.602C209.456 180.602 209.394 181.131 209.561 181.739C209.729 182.347 210.002 182.796 209.932 182.823Z" fill="white"/>
<path d="M214.694 187.775C214.5 187.564 214.331 187.33 214.192 187.079C213.82 186.493 213.499 185.877 213.23 185.237C212.957 184.6 212.733 183.943 212.56 183.272C212.476 182.985 212.426 182.689 212.41 182.391C212.524 182.653 212.615 182.924 212.684 183.201C212.842 183.704 213.08 184.391 213.398 185.131C213.715 185.872 214.042 186.515 214.28 186.982C214.446 187.231 214.585 187.497 214.694 187.775V187.775Z" fill="white"/>
<path d="M216.017 181.377C216.017 181.421 215.894 181.571 215.744 181.774C215.594 181.977 215.506 182.162 215.453 182.144C215.4 182.126 215.453 181.897 215.594 181.659C215.735 181.421 215.991 181.316 216.017 181.377Z" fill="white"/>
<path d="M222.994 187.943C222.905 187.874 222.819 187.801 222.738 187.722C221.595 186.712 220.158 186.094 218.637 185.96C216.882 185.769 215.107 185.962 213.434 186.524C211.393 187.234 209.394 188.058 207.445 188.991C205.501 189.92 203.414 190.516 201.272 190.754C199.495 190.914 197.703 190.759 195.98 190.295C194.826 189.993 193.712 189.552 192.664 188.982C192.294 188.78 192.02 188.603 191.835 188.48L191.553 188.295L191.844 188.471C192.029 188.586 192.311 188.753 192.682 188.947C195.304 190.345 198.275 190.956 201.236 190.71C203.378 190.468 205.464 189.872 207.41 188.947C209.359 188.009 211.362 187.185 213.407 186.48C215.092 185.916 216.88 185.726 218.646 185.925C219.836 186.078 220.978 186.494 221.989 187.141C222.354 187.368 222.691 187.637 222.994 187.943V187.943Z" fill="white"/>
<path d="M208.283 183.792C208.283 183.792 208.062 183.898 207.656 184.065C207.251 184.233 206.669 184.462 205.893 184.717C203.958 185.386 201.924 185.722 199.878 185.713C197.835 185.655 195.811 185.314 193.863 184.7C192.364 184.268 191.446 183.942 191.446 183.942L192.108 184.127L193.872 184.638C195.818 185.231 197.835 185.563 199.869 185.625C201.908 185.632 203.934 185.305 205.866 184.656C206.607 184.409 207.198 184.197 207.63 184.03L208.283 183.792Z" fill="white"/>
<path d="M217.235 182.858L217.014 182.717C216.814 182.58 216.605 182.456 216.388 182.347C215.598 181.926 214.747 181.628 213.866 181.465C212.568 181.231 211.244 181.181 209.932 181.316C208.442 181.457 206.828 181.792 205.126 182.109C202.221 182.689 199.239 182.772 196.306 182.356C194.049 182.038 192.69 181.695 192.69 181.695L193.661 181.871C194.278 181.985 195.186 182.144 196.306 182.285C199.24 182.692 202.222 182.603 205.126 182.021C206.828 181.703 208.451 181.369 209.95 181.228C211.276 181.08 212.617 181.131 213.928 181.377C214.81 181.533 215.662 181.831 216.45 182.259C216.727 182.437 216.99 182.637 217.235 182.858V182.858Z" fill="white"/>
<path d="M222.791 187.484C222.089 186.511 221.275 185.624 220.366 184.841C219.362 184.022 218.209 183.406 216.97 183.025C215.454 182.563 213.85 182.46 212.287 182.726C210.722 183.038 209.227 183.635 207.878 184.488C206.608 185.228 205.461 185.951 204.429 186.436C203.627 186.851 202.768 187.148 201.88 187.317C201.642 187.36 201.4 187.384 201.157 187.387C200.99 187.387 200.901 187.387 200.901 187.387C202.08 187.15 203.22 186.749 204.288 186.198C205.276 185.687 206.387 184.946 207.666 184.18C209.041 183.277 210.577 182.649 212.19 182.329C213.669 182.069 215.188 182.141 216.636 182.541C218.083 182.94 219.424 183.656 220.56 184.638C221.236 185.232 221.829 185.913 222.324 186.665C222.518 186.914 222.676 187.19 222.791 187.484V187.484Z" fill="#000051"/>
<path d="M210.54 182.99C208.839 183.724 207.013 184.131 205.161 184.189C203.319 184.398 201.454 184.255 199.666 183.766C199.666 183.633 202.127 183.951 205.125 183.766C208.124 183.58 210.505 182.858 210.54 182.99Z" fill="#000051"/>
<path d="M206.175 180.285L205.187 179.862C204.526 179.588 203.564 179.192 202.303 178.734C198.747 177.395 195.004 176.619 191.208 176.434C188.593 176.345 185.98 176.684 183.474 177.438C180.578 178.29 177.935 179.836 175.774 181.941C173.481 184.136 171.559 186.911 168.922 189.176C167.587 190.343 165.999 191.185 164.283 191.635C162.494 192.019 160.634 191.909 158.903 191.318C157.178 190.734 155.575 189.838 154.176 188.674C152.826 187.538 151.61 186.252 150.551 184.841C148.434 182.1 146.75 179.21 144.818 176.68C143.035 174.261 140.988 172.047 138.715 170.08C136.73 168.366 134.486 166.977 132.065 165.965C128.553 164.465 124.666 164.078 120.926 164.854C119.92 165.08 118.939 165.408 117.998 165.832L117.028 166.317L117.99 165.815C118.929 165.383 119.91 165.049 120.918 164.819C124.666 164.032 128.565 164.41 132.092 165.903C134.521 166.913 136.772 168.305 138.759 170.027C141.063 171.988 143.134 174.205 144.933 176.636C146.864 179.157 148.549 182.056 150.666 184.788C151.721 186.191 152.931 187.471 154.273 188.603C155.665 189.769 157.262 190.666 158.982 191.247C160.685 191.828 162.514 191.937 164.274 191.564C165.974 191.117 167.547 190.282 168.869 189.123C171.515 186.876 173.42 184.1 175.73 181.897C177.898 179.785 180.551 178.236 183.456 177.385C185.976 176.627 188.605 176.291 191.235 176.39C195.024 176.568 198.761 177.338 202.312 178.672C204.834 179.633 206.175 180.285 206.175 180.285Z" fill="white"/>
<path d="M162.898 182.858C162.433 182.899 161.965 182.881 161.505 182.805C160.236 182.591 159.031 182.097 157.977 181.36C156.447 180.248 155.124 178.876 154.07 177.306C152.802 175.386 151.436 173.533 149.978 171.754C147.23 168.593 143.924 165.964 140.223 164C139.1 163.409 137.946 162.88 136.766 162.413L135.496 161.929C135.496 161.929 135.972 162.078 136.819 162.387C138.003 162.843 139.16 163.367 140.285 163.955C144.006 165.905 147.329 168.532 150.083 171.701C151.544 173.482 152.91 175.338 154.176 177.262C155.221 178.828 156.531 180.2 158.047 181.316C159.083 182.049 160.266 182.548 161.513 182.779C161.852 182.83 162.194 182.859 162.536 182.867L162.898 182.858Z" fill="white"/>
<path d="M203.502 175.411C203.409 175.366 203.318 175.316 203.229 175.262C203.061 175.165 202.806 175.006 202.47 174.83C201.528 174.304 200.553 173.839 199.551 173.437C196.243 172.093 192.69 171.456 189.12 171.566C185.551 171.677 182.044 172.534 178.826 174.081C177.853 174.544 176.91 175.068 176.003 175.649C175.677 175.852 175.439 176.028 175.263 176.134L175.007 176.301C175.007 176.301 175.342 176.046 175.977 175.623C176.882 175.031 177.825 174.498 178.799 174.028C182.019 172.456 185.536 171.584 189.118 171.472C192.7 171.36 196.265 172.009 199.578 173.376C200.579 173.782 201.551 174.256 202.488 174.795C203.15 175.147 203.502 175.411 203.502 175.411Z" fill="white"/>
<path d="M185.573 179.342C185.573 179.342 185.529 179.218 185.467 178.989C185.405 178.76 185.299 178.443 185.176 178.046C184.828 177.015 184.413 176.009 183.932 175.033C183.444 174.06 182.887 173.123 182.265 172.23C182.027 171.887 181.833 171.613 181.692 171.428C181.551 171.243 181.48 171.137 181.48 171.137C181.78 171.473 182.06 171.826 182.318 172.195C183.596 173.972 184.581 175.941 185.238 178.029C185.374 178.46 185.486 178.898 185.573 179.342V179.342Z" fill="white"/>
<path d="M194.939 171.155C194.939 171.155 194.992 171.64 195.009 172.442C195.018 173.477 194.947 174.511 194.798 175.535C194.651 176.561 194.427 177.574 194.127 178.566C193.889 179.324 193.695 179.774 193.695 179.774C193.695 179.774 193.695 179.659 193.792 179.448C193.889 179.236 193.978 178.839 194.066 178.566C194.341 177.57 194.556 176.557 194.71 175.535C194.855 174.516 194.932 173.488 194.939 172.459C194.939 172.142 194.939 171.834 194.939 171.516C194.939 171.199 194.939 171.155 194.939 171.155Z" fill="white"/>
<path d="M174.655 186.101C174.299 185.902 173.955 185.685 173.623 185.449C172.821 184.878 172.069 184.242 171.374 183.545C170.67 182.859 170.027 182.113 169.451 181.316C169.216 180.981 168.998 180.634 168.799 180.276C168.799 180.276 168.878 180.373 168.993 180.549C169.108 180.725 169.284 180.972 169.504 181.28C170.077 182.072 170.711 182.817 171.401 183.51C172.092 184.206 172.835 184.848 173.623 185.431L174.355 185.942L174.655 186.101Z" fill="white"/>
<path d="M161.011 183.36C160.921 183.072 160.85 182.777 160.799 182.479C160.677 181.731 160.639 180.971 160.685 180.214C160.729 179.456 160.859 178.705 161.073 177.976C161.16 177.675 161.269 177.38 161.399 177.095C161.38 177.178 161.356 177.261 161.328 177.341C161.275 177.491 161.214 177.711 161.134 177.993C160.941 178.723 160.819 179.47 160.773 180.223C160.729 180.973 160.759 181.726 160.861 182.47C160.905 182.761 160.94 182.99 160.976 183.149C160.993 183.218 161.005 183.289 161.011 183.36V183.36Z" fill="white"/>
<path d="M160.967 194.781C160.723 194.317 160.505 193.841 160.314 193.353C159.849 192.173 159.486 190.956 159.229 189.714C158.979 188.472 158.844 187.209 158.823 185.942C158.815 185.419 158.832 184.895 158.876 184.374V184.841C158.876 185.105 158.876 185.502 158.876 185.986C158.924 187.247 159.072 188.502 159.317 189.74C159.565 190.978 159.916 192.192 160.367 193.371C160.543 193.82 160.693 194.182 160.799 194.428L160.967 194.781Z" fill="white"/>
<path d="M171.33 176.425C171.371 176.657 171.424 176.886 171.489 177.112C171.63 177.474 171.841 177.72 171.815 177.738C171.623 177.583 171.482 177.374 171.409 177.139C171.309 176.915 171.281 176.665 171.33 176.425V176.425Z" fill="white"/>
<path d="M154.114 173.129L153.541 173.446C153.171 173.64 152.659 173.94 151.998 174.328C148.637 176.366 145.69 179.017 143.311 182.144C142.861 182.743 142.508 183.246 142.279 183.589C142.049 183.933 141.899 184.127 141.899 184.127C142.319 183.431 142.775 182.757 143.266 182.109C145.615 178.946 148.571 176.282 151.962 174.275C152.659 173.855 153.377 173.473 154.114 173.129V173.129Z" fill="white"/>
<path d="M143.505 164.29L142.958 164.422C142.596 164.502 142.076 164.634 141.458 164.801C139.821 165.261 138.222 165.851 136.678 166.564C135.143 167.274 133.668 168.108 132.269 169.058C131.731 169.428 131.298 169.736 131.007 169.939L130.549 170.265C130.549 170.265 131.157 169.736 132.233 168.987C133.628 168.019 135.103 167.173 136.643 166.458C138.194 165.739 139.801 165.149 141.45 164.696C142.702 164.414 143.505 164.29 143.505 164.29Z" fill="white"/>
<path d="M215.479 179.818C215.474 180.003 215.444 180.186 215.391 180.364C215.364 180.546 215.304 180.722 215.215 180.884C215.215 180.698 215.245 180.514 215.303 180.338C215.33 180.155 215.39 179.979 215.479 179.818V179.818Z" fill="white"/>
<path d="M255.529 179.421C255.529 179.421 259.515 180.249 261.209 180.62C261.764 180.743 262.329 180.62 262.884 180.752C265.327 181.151 267.822 181.107 270.249 180.62C271.933 180.003 272.013 182.153 270.187 183.078C269.273 183.585 268.28 183.934 267.25 184.109L271.66 187.634C271.886 187.817 272.037 188.078 272.083 188.366L273.203 196.12C273.27 196.44 273.217 196.772 273.054 197.055C272.891 197.337 272.631 197.55 272.321 197.654C272.244 197.693 272.159 197.716 272.073 197.722C271.986 197.728 271.899 197.717 271.817 197.689C271.735 197.661 271.66 197.617 271.595 197.559C271.53 197.502 271.477 197.432 271.439 197.354L271.563 198.394C271.624 198.752 271.54 199.119 271.33 199.414C271.12 199.71 270.801 199.911 270.443 199.971C270.085 200.032 269.717 199.948 269.421 199.738C269.125 199.529 268.925 199.21 268.864 198.852C268.86 198.829 268.86 198.805 268.864 198.782L267.321 199.663C267.321 199.663 266.298 200.72 265.195 199.249C264.313 198.033 261.553 193.203 261.553 193.203C261.553 193.203 249.929 188.313 250.088 186.356L255.529 179.421Z" fill="#FFBE9D"/>
<path d="M268.899 198.843C268.744 198.227 268.637 197.599 268.581 196.966C268.405 195.821 268.07 194.208 267.84 192.446C267.682 191.564 267.479 190.727 267.285 190.031C267.167 189.724 266.946 189.469 266.659 189.308L265.847 188.797C265.288 188.489 264.768 188.116 264.295 187.687C264.917 187.884 265.51 188.162 266.059 188.515L266.897 188.982C267.268 189.169 267.562 189.481 267.726 189.864C267.979 190.682 268.182 191.515 268.334 192.358C268.572 194.12 268.846 195.733 268.952 196.913C269.033 197.556 269.015 198.207 268.899 198.843V198.843Z" fill="#FFA040"/>
<path d="M271.474 197.345C271.289 197.345 270.998 194.561 270.283 191.177C270.198 190.403 269.945 189.657 269.542 188.991C269.099 188.511 268.621 188.064 268.114 187.652C267.777 187.369 267.417 187.115 267.038 186.894C266.764 186.744 266.597 186.709 266.597 186.674C266.597 186.638 266.791 186.621 267.108 186.726C267.537 186.894 267.94 187.119 268.308 187.396C268.863 187.784 269.379 188.224 269.851 188.709C270.336 189.415 270.639 190.229 270.733 191.08C271.051 192.532 271.272 194.004 271.394 195.486C271.487 196.101 271.513 196.724 271.474 197.345Z" fill="#FFA040"/>
<path d="M261.967 190.005C262.505 190.167 263.016 190.407 263.484 190.718L264.225 191.124C264.558 191.266 264.859 191.476 265.107 191.741C265.347 192.039 265.516 192.389 265.6 192.763C265.706 193.124 265.821 193.494 265.944 193.864C266.575 195.668 267.062 197.518 267.4 199.399C266.625 197.657 265.991 195.857 265.503 194.014L265.177 192.913C265.11 192.594 264.974 192.293 264.78 192.031C264.582 191.806 264.343 191.62 264.075 191.485L263.369 191.027C262.855 190.756 262.382 190.412 261.967 190.005V190.005Z" fill="#FFA040"/>
<path d="M262.275 181.624C262.328 181.448 263.978 182.091 265.803 183.158C267.629 184.224 269.005 185.334 268.908 185.449C268.811 185.563 267.417 184.567 265.574 183.554L263.237 182.197C262.896 182.043 262.573 181.851 262.275 181.624V181.624Z" fill="#FFA040"/>
</svg>
