<svg width="36" height="36" viewBox="0 0 36 36" fill="none" xmlns="http://www.w3.org/2000/svg">
<path d="M10.5 9C10.8978 9 11.2794 8.84196 11.5607 8.56066C11.842 8.27936 12 7.89782 12 7.5C12 7.10218 11.842 6.72064 11.5607 6.43934C11.2794 6.15804 10.8978 6 10.5 6H7.5C7.10218 6 6.72064 6.15804 6.43934 6.43934C6.15804 6.72064 6 7.10218 6 7.5V28.5C6 28.8978 6.15804 29.2794 6.43934 29.5607C6.72064 29.842 7.10218 30 7.5 30H10.5C10.8978 30 11.2794 29.842 11.5607 29.5607C11.842 29.2794 12 28.8978 12 28.5C12 28.1022 11.842 27.7206 11.5607 27.4393C11.2794 27.158 10.8978 27 10.5 27H9V9H10.5Z" fill="white"/>
<path d="M31.2298 17.1298L26.9998 11.1298C26.7704 10.8064 26.4222 10.587 26.0315 10.5196C25.6408 10.4521 25.2393 10.5421 24.9148 10.7698C24.7525 10.8835 24.6144 11.0282 24.5084 11.1955C24.4024 11.3629 24.3306 11.5495 24.2971 11.7448C24.2637 11.94 24.2692 12.14 24.3134 12.3331C24.3576 12.5262 24.4397 12.7086 24.5548 12.8698L27.1348 16.4998H26.9998H14.9998C14.6019 16.4998 14.2204 16.6578 13.9391 16.9391C13.6578 17.2204 13.4998 17.602 13.4998 17.9998C13.4998 18.3976 13.6578 18.7792 13.9391 19.0605C14.2204 19.3418 14.6019 19.4998 14.9998 19.4998H26.9998L24.2998 23.0998C24.1816 23.2574 24.0956 23.4367 24.0467 23.6275C23.9978 23.8184 23.987 24.0169 24.0148 24.2119C24.0427 24.4069 24.1087 24.5945 24.209 24.764C24.3094 24.9335 24.4422 25.0816 24.5998 25.1998C24.8594 25.3945 25.1752 25.4998 25.4998 25.4998C25.7326 25.4998 25.9623 25.4456 26.1706 25.3414C26.3789 25.2373 26.56 25.0861 26.6998 24.8998L31.1998 18.8998C31.3919 18.6461 31.4983 18.3379 31.5037 18.0197C31.5091 17.7015 31.4132 17.3899 31.2298 17.1298Z" fill="white"/>
</svg>
